<?xml version="1.0" standalone="no"?>
<!DOCTYPE svg PUBLIC "-//W3C//DTD SVG 1.1//EN" "http://www.w3.org/Graphics/SVG/1.1/DTD/svg11.dtd" >
<svg>
<metadata>
Created by FontForge 20110222 at Sun Jul 13 13:49:22 2014
 By Orthosie Webhosting
(c) 2009 Mark Simonson Studio LLC.  All rights reserved.
</metadata>
<defs>
<font id="SketchFlowPrintRegular" horiz-adv-x="1114" >
  <font-face 
    font-family="SketchFlowPrintRegular"
    font-weight="400"
    font-stretch="normal"
    units-per-em="2048"
    panose-1="2 0 0 0 0 0 0 0 0 0"
    ascent="1638"
    descent="-410"
    x-height="965"
    cap-height="1380"
    bbox="-469 -684 2477 1980"
    underline-thickness="102"
    underline-position="-103"
    unicode-range="U+0020-FB02"
  />
<missing-glyph horiz-adv-x="922" 
 />
    <glyph glyph-name="fi" unicode="fi" horiz-adv-x="1343" 
d="M90 831q15 1 31.5 2t42.5 2t64 2t96 3q5 157 22.5 279t44.5 213t61 153t71 100t75.5 55t75.5 17q34 0 63.5 -16.5t52 -40.5t35.5 -52t13 -51q0 -24 -5 -58t-16.5 -65.5t-29.5 -53.5t-44 -22q-16 0 -28 10.5t-12 29.5q0 11 4 22q8 23 13.5 55.5t5.5 62.5q0 32 -7.5 54
t-26.5 22q-28 0 -55.5 -12t-53.5 -42.5t-48.5 -82.5t-40.5 -131t-30 -188t-15 -254q73 3 122.5 7t82.5 8t53.5 6.5t36.5 2.5q59 0 59 -61q0 -23 -19 -40.5t-61 -30.5t-109.5 -21t-164.5 -13q0 -100 2 -197t4 -181.5t4 -152.5t2 -110q0 -26 -2.5 -49.5t-10.5 -41t-23.5 -28
t-41.5 -10.5q-21 0 -32.5 48.5t-17.5 129.5t-7.5 185t-1.5 215v188q-32 -2 -60.5 -3t-52.5 -1q-53 0 -89 4.5t-58 13.5t-31.5 23t-9.5 33q0 31 18 46t49 17zM1061 950q13 0 29.5 -10.5t31.5 -26.5t25 -35.5t10 -37.5q0 -11 -4 -57.5t-9.5 -113.5t-9.5 -145.5t-4 -153.5
q0 -97 1.5 -157.5t3 -96.5t3 -53.5t1.5 -26.5q0 -12 -2.5 -22t-10 -17t-22 -11t-37.5 -4q-21 0 -33.5 17t-20 47.5t-10 73.5t-2.5 94q0 163 2.5 298.5t9 233t18.5 151t30 53.5zM1098 1440q45 0 67.5 -29.5t22.5 -73.5q0 -57 -34.5 -90t-88.5 -33q-46 0 -70 27.5t-24 75.5
q0 23 9 45t26 39.5t40 28t52 10.5z" />
    <glyph glyph-name="fl" unicode="fl" horiz-adv-x="1348" 
d="M90 831q15 1 31.5 2t42.5 2t64 2t96 3q5 157 22.5 279t44.5 213t61 153t71 100t75.5 55t75.5 17q34 0 63.5 -16.5t52 -40.5t35.5 -52t13 -51q0 -24 -5 -58t-16.5 -65.5t-29.5 -53.5t-44 -22q-16 0 -28 10.5t-12 29.5q0 11 4 22q8 23 13.5 55.5t5.5 62.5q0 32 -7.5 54
t-26.5 22q-28 0 -55.5 -12t-53.5 -42.5t-48.5 -82.5t-40.5 -131t-30 -188t-15 -254q73 3 122.5 7t82.5 8t53.5 6.5t36.5 2.5q59 0 59 -61q0 -23 -19 -40.5t-61 -30.5t-109.5 -21t-164.5 -13q0 -100 2 -197t4 -181.5t4 -152.5t2 -110q0 -26 -2.5 -49.5t-10.5 -41t-23.5 -28
t-41.5 -10.5q-21 0 -32.5 48.5t-17.5 129.5t-7.5 185t-1.5 215v188q-32 -2 -60.5 -3t-52.5 -1q-53 0 -89 4.5t-58 13.5t-31.5 23t-9.5 33q0 31 18 46t49 17zM1057 1642q19 0 30.5 -11t17.5 -28.5t8 -40t2 -45.5q0 -17 -0.5 -34t-0.5 -31q0 -11 1 -55.5t2.5 -113t3.5 -156.5
t4.5 -186t5 -200.5t5 -200.5t4.5 -186.5t3.5 -157.5t2.5 -114t1 -57q0 -29 -12.5 -54.5t-29.5 -44.5t-34 -30t-26 -11t-15 10t-9 25.5t-4 35t-1 38.5q0 13 -0.5 39.5t-1 62t-1.5 76.5t-1.5 82t-1 79.5t-0.5 69.5v80.5v135.5t0.5 171t0.5 187.5t0.5 184t0.5 160.5v117.5v55.5
q0 18 0.5 43t5 48t13.5 39.5t26 16.5z" />
    <glyph glyph-name=".notdef" horiz-adv-x="922" 
 />
    <glyph glyph-name=".null" horiz-adv-x="0" 
 />
    <glyph glyph-name="nonmarkingreturn" horiz-adv-x="922" 
 />
    <glyph glyph-name="space" unicode=" " horiz-adv-x="922" 
 />
    <glyph glyph-name="exclam" unicode="!" horiz-adv-x="799" 
d="M516 1278q1 -12 1 -29v-37q0 -52 -1.5 -124t-4.5 -151.5t-7.5 -159t-10.5 -146.5t-13.5 -115t-16.5 -63q-8 -14 -19 -28.5t-23.5 -26.5t-25.5 -19.5t-24 -7.5t-19 8t-13.5 26.5t-8.5 49t-3 76.5q0 50 3.5 113.5t9 131.5t12 136t12.5 127t10.5 104.5t6.5 68.5q5 85 16 135
t27 50q37 0 63.5 -30t28.5 -89zM442 248q22 0 42 -19t20 -65q0 -32 -20.5 -67t-49.5 -65t-62.5 -49.5t-58.5 -19.5q-29 0 -52 21t-23 53q0 16 2.5 34.5t9 37.5t17.5 36.5t28 32.5q15 13 22.5 16.5t14.5 4.5t15.5 3t23.5 13q17 12 32.5 22.5t38.5 10.5z" />
    <glyph glyph-name="quotedbl" unicode="&#x22;" horiz-adv-x="717" 
d="M221 1456q21 0 46 -20.5t46.5 -59t36.5 -92t15 -119.5q0 -47 -23.5 -97.5t-58 -92.5t-73 -69t-69.5 -27q-14 0 -23 17t-9 30q0 12 15.5 25.5t29.5 27.5q36 34 58.5 61t34.5 53t16.5 54t4.5 65q0 22 -5 51t-16 55.5t-28.5 45t-42.5 18.5q-11 0 -13.5 9.5t-2.5 17.5
q0 4 3 11.5t10 15.5t18.5 14t29.5 6zM393 1550q31 0 69 -28t70 -73.5t54 -102.5t22 -115q0 -67 -14.5 -119.5t-38 -89t-53 -55.5t-60.5 -19q-14 0 -24 6t-10 19t16 25t29 28q18 22 29.5 40.5t18.5 38.5t10 45.5t3 61.5q0 48 -11 85t-27 66t-35.5 51.5t-35.5 41t-27 35.5
t-11 35q0 8 6 16t20 8z" />
    <glyph glyph-name="numbersign" unicode="#" horiz-adv-x="1640" 
d="M977 119q1 8 2.5 30t3 52.5t2.5 66.5t2 74q-69 -23 -139.5 -45.5t-142.5 -42.5q6 -86 17 -159.5t22.5 -129.5t19.5 -93.5t8 -51.5q0 -28 -8 -49t-33 -21q-21 0 -45 30t-47 89t-41 147t-27 205q-96 -23 -181.5 -37t-153.5 -14q-45 0 -82.5 12.5t-65.5 29.5t-43.5 36
t-15.5 31q0 24 16 34.5t45 10.5q85 0 209.5 17t267.5 46q0 57 1.5 124t6.5 138q-51 -15 -103.5 -31t-101.5 -31t-92 -29t-75 -26q-26 -35 -46.5 -57.5t-35.5 -22.5q-12 0 -18.5 18.5t-6.5 61.5q0 27 12.5 47t33.5 36t49.5 29t60.5 26q18 7 51.5 17.5t77 22t96 24.5t109.5 26
q8 97 19.5 187.5t25 161t28 113t29.5 42.5t24.5 -14.5t15 -38t8 -52t2.5 -56.5q0 -30 -2.5 -56.5t-4.5 -40.5q-6 -38 -10.5 -94.5t-9.5 -123.5q49 10 97 19.5t93 17.5l86 15v164q0 38 2.5 81t7.5 82t11.5 71t15.5 48q12 22 25 37t25.5 23.5t23 12t16.5 3.5t12.5 -9.5
t12 -22.5t9 -27t3.5 -23q0 -19 -11.5 -27t-33.5 -14q-2 -7 -2 -17.5v-24.5q0 -37 2 -93t2 -121v-127q66 7 124 11t105.5 6.5t83 3t56.5 0.5q39 0 57 -2.5t18 -18.5q0 -15 -12 -21.5t-49 -11.5q-35 -5 -79 -11t-94 -13.5t-103.5 -16t-106.5 -16.5v-250q101 26 180.5 50
t138 42t95 28.5t51.5 10.5q23 0 31 -7t8 -24q0 -10 -21.5 -26.5t-63 -38t-101 -47t-134.5 -53.5l-184 -68v-209q0 -31 -4.5 -58t-13.5 -47.5t-23.5 -32t-34.5 -11.5q-52 0 -77 13.5t-25 31.5q0 28 47 49zM700 416q73 15 145.5 32.5t143.5 34.5v45q0 47 -1 103t-1 114
q-72 -14 -132 -25.5t-97 -21.5l-51 -14q-4 -82 -5.5 -154t-1.5 -114z" />
    <glyph glyph-name="dollar" unicode="$" horiz-adv-x="1372" 
d="M618 1333q0 18 0.5 43t5 48.5t14 40t26.5 16.5q19 0 30.5 -11.5t17.5 -29.5t8 -41t2 -47q0 -17 -0.5 -32.5t-0.5 -29.5v-76q114 34 197 45t128 11q14 0 24 -0.5t15 -1.5q18 -3 37.5 -16t36 -29t27 -32.5t10.5 -25.5t-8 -19t-20 -18.5t-26.5 -14t-28.5 -5.5q-18 0 -31 9
t-13 30q-5 1 -7.5 1h-6.5q-23 0 -58 -6t-78.5 -17.5t-92.5 -27t-101 -34.5l6 -311q72 -5 131 -11t101 -14q331 -63 331 -330q0 -65 -45.5 -124t-121.5 -107t-174 -84t-203 -55q2 -66 3 -109t1 -55q0 -29 -12.5 -54.5t-29.5 -44.5t-34.5 -29.5t-26.5 -10.5q-14 0 -20 19
t-8 55t-2 89t-3 121q-42 -3 -83 -3q-39 0 -77 2.5t-73 10.5q-64 13 -120 41.5t-97.5 68t-65.5 88.5t-24 103q0 19 9.5 32t21.5 13q14 0 26 -21.5t12 -76.5q0 -9 20.5 -32.5t64.5 -48.5t113 -44t167 -19q26 0 52 1.5t52 5.5v524q-60 0 -119.5 -1t-113.5 -2.5t-100 -2.5
t-79 -1q-31 0 -54.5 2.5t-39.5 18.5t-24 49t-8 95q0 19 20.5 46t56.5 59t86.5 67t110.5 69.5t127.5 67.5t138.5 60v153zM965 633q-47 9 -105.5 13.5t-124.5 6.5l13 -497q88 24 167 61.5t138 81t94 88.5t35 86q0 23 -16.5 47.5t-45.5 46.5t-68.5 39.5t-86.5 26.5zM215 754
q58 4 117 5.5t119 1.5q84 0 165 -3q0 69 1 135t1 129q-72 -30 -140 -64t-123 -68.5t-92.5 -69.5t-47.5 -66z" />
    <glyph glyph-name="percent" unicode="%" horiz-adv-x="1638" 
d="M735 1327q15 0 28 -7.5t22 -19t14 -25t5 -26.5q0 -16 -8 -26.5t-26 -12.5q-36 -2 -94 -26.5t-124 -63t-133.5 -85.5t-122 -95.5t-88.5 -93.5t-34 -78q0 -27 35 -27q34 0 95.5 23t133.5 60t146.5 83t135.5 91t99.5 85t38.5 66q0 4 -3 12.5t-6 18t-6 18.5t-3 16q0 12 4 29
t15 33t31.5 27.5t53.5 11.5q23 0 38.5 -12t23.5 -33q57 9 105.5 29.5t86.5 42.5t66 38.5t45 16.5q18 0 28.5 -20.5t10.5 -57.5q0 -23 -21.5 -68t-56.5 -108q-33 -60 -88 -137t-124 -168.5t-147 -196t-157.5 -218t-156.5 -234.5t-142 -246q-45 -86 -67.5 -143.5t-35.5 -92.5
t-23.5 -50t-31.5 -15q-11 0 -19.5 20t-8.5 59q0 50 19 130t72 186q52 106 119.5 212.5t143 211t154 207t153 199.5t140.5 188t116 174q-38 -19 -87 -37t-102 -29q-23 -52 -74.5 -111.5t-121 -118.5t-152 -113.5t-166.5 -96.5t-164.5 -67t-146.5 -25q-56 0 -85.5 32t-29.5 91
q0 42 28.5 93t73.5 103.5t99.5 101.5t106.5 87q42 31 96 64t106.5 60.5t98 45.5t69.5 18zM825 147q0 63 23.5 124t62 118t88.5 109t103 97t105.5 81t95.5 61.5t73 39.5t39 14q14 0 32 -4.5t34.5 -11.5t27.5 -16.5t11 -19.5q0 -20 -12 -32.5t-38 -24.5l-22 -12
q19 -21 42 -56.5t43.5 -80t34 -96t13.5 -105.5q0 -83 -41 -161.5t-108.5 -140t-153 -99t-174.5 -37.5q-56 0 -107 13.5t-89 44t-60.5 78.5t-22.5 117zM1415 565q-14 19 -26.5 33.5t-18.5 28.5q-66 -41 -141 -99.5t-139 -128t-106 -146.5t-42 -155q0 -30 12.5 -49t32.5 -29.5
t45.5 -14t52.5 -3.5q31 0 70.5 10.5t81 32.5t81 56t71 80t50.5 105t19 132q0 46 -13 84t-30 63z" />
    <glyph glyph-name="ampersand" unicode="&#x26;" horiz-adv-x="1358" 
d="M805 1466q21 0 31 -8t10 -20q0 -11 -9 -23.5t-26 -21.5q-15 -9 -28.5 -24.5t-23.5 -43t-17 -69t-9 -101.5q54 17 93.5 27t58.5 10q21 0 40 -6.5t33.5 -17t22.5 -25t8 -29.5q0 -18 -10 -30t-39 -17q-37 -6 -90.5 -19.5t-116.5 -33.5q0 -51 1 -118t3 -142q36 10 69 21
t61 20t50 14.5t37 5.5q32 0 53 -18t21 -47q0 -12 -2.5 -21t-11.5 -16.5t-25 -13t-43 -11.5q-40 -8 -93.5 -23.5t-113.5 -35.5l6 -336q81 21 154.5 52.5t136.5 70t113 83.5t84 93q16 24 24 45.5t13.5 38.5t11 27t16.5 10q12 0 18 -4t9 -15.5t3.5 -30.5t0.5 -49
q0 -72 -49.5 -138t-131 -122t-187 -101t-216.5 -75q0 -61 -1 -118.5t-8 -102t-22.5 -71.5t-43.5 -27q-17 0 -28 13t-11 48v232q-65 -13 -125.5 -19t-116.5 -6q-75 0 -136 14.5t-104.5 41.5t-67.5 66t-24 89q0 33 19 63.5t50 58t71 51.5t81 44t80.5 36.5t69.5 29.5
q-101 0 -167.5 9t-106 28t-56 49t-16.5 71q0 26 24.5 55t65.5 60t96.5 62t116.5 60.5t125.5 56t124.5 48.5q4 94 22.5 160t43 107.5t52.5 60t52 18.5zM428 250q51 0 102 4t101 12q0 78 1 159t1 165q-79 -31 -156 -65.5t-137.5 -68.5t-97.5 -66t-37 -58q0 -45 56 -63.5
t167 -18.5zM455 700q43 0 88 7t90 18v256q-74 -26 -145 -56t-127 -60t-90.5 -59.5t-34.5 -55.5q0 -16 18.5 -26t49 -15t70 -7t81.5 -2z" />
    <glyph glyph-name="quotesingle" unicode="'" horiz-adv-x="549" 
d="M272 1468q21 0 47.5 -18t50.5 -55.5t40 -95.5t16 -138q0 -56 -25 -107t-61 -90t-76.5 -62t-70.5 -23q-7 0 -13 5t-10.5 12t-7 15.5t-2.5 14.5q0 12 15.5 25.5t29.5 27.5q36 34 58.5 61t34.5 53t16.5 54t4.5 65q0 31 -5 63.5t-13.5 58.5t-19 42.5t-21.5 16.5q-7 0 -14 -4
t-15.5 -8.5t-17 -8.5t-18.5 -4q-5 0 -14 5t-9 24q0 4 9 15.5t23.5 24t32 22t35.5 9.5z" />
    <glyph glyph-name="parenleft" unicode="(" horiz-adv-x="1085" 
d="M991 1458q22 0 29.5 -9t7.5 -28q0 -7 -2 -12.5t-8 -12.5t-16.5 -16t-28.5 -22q-50 -37 -123.5 -107.5t-154.5 -165t-161.5 -207.5t-145 -236t-104.5 -250t-40 -249q0 -111 25.5 -183.5t64.5 -115t85.5 -60t88.5 -17.5q87 0 158 27.5t116 64.5q15 12 23 12q7 0 11.5 -6.5
t6.5 -16t3 -21.5t1 -24q0 -29 -26 -59.5t-71 -55.5t-105 -41t-127 -16q-101 0 -173.5 41t-119 108t-68.5 151t-22 171q0 134 33.5 263.5t89.5 250t128.5 230t150.5 203t155 169t142 129t112 82.5t65 29z" />
    <glyph glyph-name="parenright" unicode=")" horiz-adv-x="1118" 
d="M203 -358q-38 0 -68 10t-51 26t-32 35.5t-11 38.5t9.5 38t23.5 34.5t30.5 25t30.5 9.5q11 0 12 -13.5t7 -29.5t25 -29.5t67 -13.5q63 0 132 25.5t136 77.5t127.5 131t106.5 185.5t73 241t27 297.5q0 141 -27.5 253.5t-74 191t-108 121t-130.5 42.5q-43 0 -73 -4.5
t-58 -15.5q-12 -5 -20 -5q-11 0 -17 9t-6 31q0 21 19.5 42t51 37.5t72.5 26.5t84 10q67 0 124 -25.5t103 -70.5t81.5 -106.5t59.5 -132.5t36 -148.5t12 -155.5q0 -177 -23.5 -322.5t-64.5 -262.5t-95.5 -207t-116 -157t-127 -113t-128 -74t-119 -40.5t-100.5 -12.5z" />
    <glyph glyph-name="asterisk" unicode="*" horiz-adv-x="918" 
d="M109 1135q-18 15 -26 28.5t-8 24.5q0 17 15.5 26.5t36.5 9.5q18 0 37 -7t33 -23q9 -10 28.5 -24.5t47 -32t61.5 -37.5t72 -41q1 26 2.5 63t4 77t6 79.5t8.5 70.5t12.5 50.5t17.5 19.5q9 0 21 -10t22.5 -27t18 -41.5t7.5 -52.5q0 -68 -1 -115t-1 -81q61 55 97.5 87.5
t60 49t39 21.5t35.5 5q17 0 28 -5t11 -15q0 -13 -15.5 -31t-36.5 -35q-6 -5 -24 -22.5t-44.5 -43.5t-59 -58t-66.5 -66q93 -54 150 -88t87.5 -57t40.5 -38.5t10 -33.5q0 -14 -6.5 -25t-16.5 -19t-23 -12.5t-25 -4.5q-8 0 -15 1.5t-12 6.5l-231 151q-2 -38 -2 -95v-144
q0 -56 -21 -79.5t-59 -23.5q-8 0 -13.5 16t-9 43.5t-5 65t-1.5 80.5q0 27 0.5 54.5t1.5 56.5q-39 -38 -70 -63t-56 -39t-44.5 -19.5t-36.5 -5.5q-21 0 -34 5.5t-19.5 13t-8.5 14.5t-2 10q0 14 12.5 23t41 27t75 52t114.5 98q-43 28 -83.5 56t-75 52t-61.5 44t-42 33z" />
    <glyph glyph-name="plus" unicode="+" horiz-adv-x="1309" 
d="M109 692q12 0 21.5 -8.5t23.5 -19t37.5 -19t62.5 -8.5q11 0 35 2t56 6t68 9.5t70.5 12.5t64 14.5t48.5 16.5q2 0 3 1t3 1q-8 137 -13 222.5t-9 136.5t-5.5 76t-1.5 43q0 32 6 45.5t23 13.5q7 0 22.5 -13t31.5 -36t28 -55t12 -70q0 -25 3 -80t8 -123l8 -125q40 10 86 21
t92.5 22t90.5 20.5t80.5 16.5t61.5 11.5t33 4.5q20 0 36.5 -7.5t28.5 -19t18.5 -25t6.5 -25.5q0 -14 -5 -25.5t-12 -20t-15.5 -13.5t-14.5 -5q-13 0 -20.5 5t-26.5 5q-5 0 -21 -3.5t-41.5 -10t-58 -14.5t-69.5 -17l-244 -59l2.5 -70t3.5 -89.5t4 -97t3.5 -92.5t3.5 -76.5
t3 -49.5q1 -12 2 -22.5t1 -20.5q0 -40 -12 -63t-38 -23q-28 0 -45.5 40.5t-17.5 102.5q0 12 -2 53t-5 100t-7 131.5t-9 149.5q-52 -11 -102.5 -21t-96.5 -17t-85 -11t-68 -4q-47 0 -81.5 18t-57.5 41.5t-34 45t-11 28.5q0 22 6 32.5t31 10.5z" />
    <glyph glyph-name="comma" unicode="," horiz-adv-x="772" 
d="M422 344q78 0 119 -51t41 -148q0 -39 -20.5 -86.5t-53.5 -97t-74.5 -96t-82.5 -82.5t-77.5 -58t-60.5 -22q-23 0 -34 16t-11 37q0 9 1.5 15.5t6.5 13t14 14.5t23 19q45 34 91 76t83.5 89t61.5 98t24 105q0 19 -6 31.5t-14.5 20t-18 10t-16.5 2.5q-17 0 -30 -4.5t-24 -10
t-22 -10t-23 -4.5q-32 0 -32 31q0 15 9.5 31t26.5 29.5t42 22.5t57 9z" />
    <glyph glyph-name="hyphen" unicode="-" horiz-adv-x="950" 
d="M125 483q5 0 9.5 -3t14 -7t28 -7t52.5 -3q13 0 46.5 3t73 7t76.5 8.5t58 7.5q64 9 114 17t91 14.5t76 10.5t70 4q17 0 22.5 -8t5.5 -19q0 -19 -15 -40.5t-61 -37.5q-24 -8 -76 -23t-125.5 -30t-165 -26t-196.5 -11q-117 0 -117 66q0 8 1 21t3 25.5t6 21.5t9 9z" />
    <glyph glyph-name="period" unicode="." horiz-adv-x="805" 
d="M469 248q22 0 41.5 -19t19.5 -65q0 -22 -13.5 -46t-34.5 -46.5t-46.5 -42.5t-50.5 -35t-46 -24t-32 -9q-18 0 -27.5 19t-9.5 51q0 16 3 37.5t9.5 44t16.5 44t25 38.5q8 9 13 12.5t9 3.5q7 0 11.5 -5.5t12.5 -5.5q7 0 17 7.5t22.5 16.5t27.5 16.5t32 7.5z" />
    <glyph glyph-name="slash" unicode="/" horiz-adv-x="846" 
d="M-47 -211q0 45 29.5 129.5t78.5 194t112.5 236.5t132.5 256.5t138 254t128 230t104 184t65 115.5q19 35 33.5 68t27 59t25 41.5t29.5 15.5q18 0 33 -16t15 -43q0 -24 -26.5 -82t-72 -143.5t-107 -194.5t-131.5 -236t-145 -268.5t-148 -290.5q-34 -69 -62.5 -126
t-52.5 -109.5t-44 -103t-35 -107.5q-11 -41 -19 -67.5t-16 -42t-17.5 -22t-23.5 -6.5q-32 0 -41.5 17t-9.5 57z" />
    <glyph glyph-name="zero" unicode="0" horiz-adv-x="1290" 
d="M1079 1241q29 0 45 -14t27 -32.5t20 -38.5t25 -32q14 -11 21.5 -35.5t11 -52.5t4 -53.5t0.5 -38.5q0 -97 -30 -188.5t-81.5 -176t-120.5 -160t-147 -139t-161 -115t-162.5 -87.5t-151 -55t-127.5 -19q-34 0 -68.5 19t-62.5 53.5t-46 84t-18 109.5q0 78 35.5 161.5
t95 166.5t138 163t164.5 151.5t174 131.5t167 104t144 68.5t104 24.5zM1098 1055q-16 0 -45.5 -10t-65.5 -27t-76 -40.5t-77 -51.5q-17 -12 -32.5 -14t-32.5 -3t-36.5 -5t-44.5 -21q-43 -29 -99 -72.5t-116 -97t-118 -115t-103.5 -128t-73.5 -135.5t-28 -136q0 -14 7 -24.5
t17.5 -18t22 -11.5t20.5 -4q51 0 117.5 19t141 53.5t152.5 83.5t152 108.5t139 128.5t114 144.5t77.5 155.5t28.5 161q0 35 -11.5 47.5t-29.5 12.5z" />
    <glyph glyph-name="one" unicode="1" horiz-adv-x="635" 
d="M430 1329q18 0 21 -24q0 -4 -4 -34t-10.5 -74.5t-14 -98t-14.5 -105.5t-13.5 -96.5t-9.5 -71.5q-5 -40 -9.5 -103.5t-7.5 -140t-4.5 -160t-1.5 -163.5q0 -48 6 -88t15 -61q21 10 33 10t12 -12q0 -11 -9 -28t-18 -30q-15 -20 -26 -39t-22 -34t-25 -24t-35 -9
q-18 0 -29.5 5.5t-18.5 29.5t-9.5 73t-2.5 135q0 269 22 525.5t60 492.5q2 15 19 36t37 41t37.5 34t21.5 14z" />
    <glyph glyph-name="two" unicode="2" horiz-adv-x="1303" 
d="M909 1262q59 0 100 -16.5t66 -43.5t36 -61.5t11 -69.5q0 -60 -34 -129t-93.5 -141t-139.5 -144.5t-171 -140.5q-25 -18 -62.5 -45.5t-81.5 -61t-90.5 -70.5t-89 -74t-76.5 -72.5t-53 -65.5q31 7 89 20t131 29t156 34l166 36t160 34.5t137.5 30t100 21.5t46.5 10
q15 3 27 3q15 0 22.5 -7.5t7.5 -26.5q0 -13 -4.5 -31.5t-13.5 -36.5t-23.5 -33t-34.5 -22q-10 -3 -59 -15.5t-123.5 -30t-166 -39t-186.5 -43t-185.5 -42t-163 -36.5t-119 -25.5t-52.5 -9.5q-12 0 -27 9.5t-28 25t-22 35t-9 38.5q0 31 23 69.5t61.5 82t89 89.5t106.5 92
t114 89.5t110 81.5q127 92 212.5 169t137.5 139t74.5 110t22.5 82q0 23 -21.5 43t-56.5 20q-58 0 -124 -15t-131.5 -38.5t-126 -52.5t-107 -56.5t-74.5 -50.5t-28 -35q0 -3 2 -6.5t2 -6.5q0 -9 -10 -15.5t-23.5 -11t-26 -7t-17.5 -2.5t-15 9t-20 23.5t-17 31.5t-7 33
t28.5 47.5t78.5 69.5t118 77.5t146 72t162.5 53t168.5 20.5z" />
    <glyph glyph-name="three" unicode="3" horiz-adv-x="1354" 
d="M1255 1241q41 0 41 -29q0 -22 -31 -54.5t-82 -71t-116.5 -80t-133.5 -82.5t-134 -78t-117 -66q22 2 42 2h40q132 0 218 -26t135.5 -69t69 -98.5t19.5 -113.5q0 -86 -44 -176t-130 -164t-213.5 -121t-294.5 -47q-87 0 -170.5 14t-149.5 34.5t-106.5 43t-40.5 39.5
q0 13 13 31t34 34.5t46 28t49 11.5q23 0 50.5 -14t68 -30.5t99.5 -30.5t145 -14q125 0 226.5 28t173 74.5t110 107.5t38.5 127q0 43 -19.5 75t-51.5 54.5t-74.5 37t-87.5 23t-90.5 11.5t-84.5 3q-38 0 -86 -6t-96.5 -17t-92.5 -26t-75 -33q-26 -15 -53.5 -27.5t-48.5 -12.5
q-14 0 -25.5 8t-11.5 22q0 11 9 21.5t20 17.5q4 2 38 22.5t88 52t122 72t139.5 83t141 84t126 76t94.5 58.5t47 31q-67 -18 -141.5 -32.5t-149 -24.5t-143 -15t-123.5 -5q-111 0 -177.5 6.5t-101 17t-45 24t-10.5 27.5t12.5 32t32 33.5t44.5 26.5t51 11q38 0 77.5 -11
t65.5 -28q30 -5 57 -7.5t54 -4t56 -1.5h62q60 0 127.5 8t130 20t114.5 25.5t81 24.5q41 15 82 24t61 9z" />
    <glyph glyph-name="four" unicode="4" horiz-adv-x="1489" 
d="M915 1272q11 0 26 -11.5t29 -29t24 -39t10 -41.5q0 -14 -6.5 -30.5t-14.5 -30.5q-5 -9 -11.5 -47t-14 -91.5t-15 -115.5t-14.5 -119q83 14 160.5 26t144 20.5t118 13.5t83.5 5q17 0 33.5 -12t30 -28.5t22 -33.5t8.5 -28t-8.5 -18t-21 -11t-27.5 -5.5t-27 -2.5
q-38 -3 -94 -9.5t-125.5 -15.5t-150 -21t-165.5 -26q-6 -50 -10.5 -117.5t-9 -137t-10.5 -133.5t-15 -107q-8 -38 -24 -66t-33.5 -47t-32.5 -28t-22 -9q-14 0 -14 27q0 2 2 27t9 91t20 182t36 300q-84 -14 -168.5 -29t-162.5 -31t-147.5 -31.5t-123.5 -29.5
q-29 -8 -48 -15.5t-32 -13.5t-22.5 -10t-20.5 -4t-19.5 13.5t-14 32.5t-8.5 39.5t-3 33.5q0 26 12.5 42.5t46.5 24.5q20 5 55.5 29t79.5 60.5t95 83.5t102.5 97.5t101 101t92 95.5t74.5 81t49 57q23 29 40 52t28 23q4 0 14 -8t21 -19.5t20.5 -24.5t12.5 -23q8 38 16 65
t20 27zM346 604q99 22 222 46.5t251 47.5q9 75 17 143.5t14.5 123.5t11 92t6.5 49l6 47q-8 -15 -24.5 -38t-37 -49t-42.5 -52.5t-41 -48.5q-16 -18 -44 -47t-63 -63t-74 -71t-76 -71t-70 -63t-56 -46z" />
    <glyph glyph-name="five" unicode="5" horiz-adv-x="1466" 
d="M1249 1202q39 0 80.5 -2.5t77.5 -5.5t63.5 -7t38.5 -7q18 -5 33.5 -14.5t27 -20.5t18.5 -22.5t7 -20.5q0 -11 -33.5 -13.5t-96.5 -2.5t-150 -1t-193 -6q-50 -3 -106.5 -7.5t-112 -10t-107.5 -11.5t-94.5 -11t-72.5 -8t-41 -3q-6 0 -11.5 1t-11.5 3q-15 -36 -33.5 -74.5
t-37.5 -74.5t-38 -66.5t-36 -50.5q11 7 45.5 22.5t88.5 32t124 29t151 12.5q95 0 158 -20.5t100.5 -55.5t52.5 -81.5t15 -98.5q0 -73 -28.5 -143t-80.5 -133t-125.5 -116t-163 -91.5t-193 -60t-216.5 -21.5q-102 0 -178.5 13.5t-127 36t-76 52.5t-25.5 62q0 10 3 23.5
t7.5 25.5t10.5 20.5t11 8.5q11 0 16 -17t15 -37q5 -11 27.5 -22t58 -20t82 -15t100.5 -6q180 0 324 36t245.5 94t155.5 132t54 150q0 33 -13.5 60t-44.5 46.5t-81.5 30t-123.5 10.5q-61 0 -125.5 -12t-124.5 -30.5t-111 -40.5t-85 -42q-19 -11 -34.5 -25.5t-28 -28t-22 -23
t-15.5 -9.5t-12 11.5t-10 28t-6.5 35t-2.5 32.5q0 27 11.5 42t37.5 37q9 7 27.5 34t42 66.5t49.5 86.5t49.5 94t42 90t27.5 74q14 49 21.5 71.5t17.5 22.5q4 0 16 -5.5t25 -15t22.5 -23.5t9.5 -32q0 -3 -1 -7t-1 -9q51 10 120 20t152 17.5t176.5 12.5t192.5 5z" />
    <glyph glyph-name="six" unicode="6" horiz-adv-x="1417" 
d="M379 109q34 78 91 151t128 136.5t152.5 116t165.5 90t165 58.5t152 21t101 -21.5t30 -70.5q0 -53 -33 -112.5t-89.5 -119.5t-132.5 -117.5t-162.5 -106t-179.5 -85.5t-183 -55q0 -10 -10 -18.5t-25.5 -15t-36 -10t-41.5 -3.5q-31 0 -56.5 8t-37.5 25q-94 4 -155.5 24
t-98 52t-51.5 75.5t-15 95.5q0 64 27.5 143.5t74 165.5t107.5 174t128 170.5t135 154.5t128.5 125.5t109.5 84.5t77 31q21 0 29 -9t8 -28q0 -7 -2 -13t-8 -12.5t-17 -15.5t-29 -22q-43 -32 -105 -92.5t-130.5 -139t-136 -170t-121.5 -185.5t-87.5 -185t-33.5 -168
q0 -35 15 -59t37.5 -39t50 -22t53.5 -7h12zM1126 567q-30 0 -82 -16.5t-113.5 -46.5t-125.5 -71t-119.5 -91t-95.5 -106t-53 -115q97 14 184 40.5t161 60t133.5 72t101.5 78t64.5 77t22.5 69.5q0 20 -16.5 34.5t-61.5 14.5z" />
    <glyph glyph-name="seven" unicode="7" horiz-adv-x="1303" 
d="M109 772q-32 0 -42 18.5t-10 43.5q0 12 14.5 43t33.5 68t37.5 72t27.5 56q26 63 67.5 94t88.5 31q22 0 58.5 -8.5t95 -19t142.5 -19t201 -8.5q94 0 165 16.5t121 36.5t79.5 36.5t40.5 16.5q9 0 12.5 -12t3.5 -29q0 -12 -7.5 -26t-18.5 -30t-25 -34t-27 -37
q-40 -58 -85.5 -130.5t-92 -152.5t-93 -162.5t-88 -160t-76 -145t-58.5 -117.5q-21 -43 -42 -85.5t-43 -76t-45 -54t-48 -20.5q-41 0 -62.5 14t-21.5 40q0 15 20.5 53t59.5 98q22 34 58 98.5t80 145t93.5 171t99.5 177t97.5 163t87.5 128.5q-28 -6 -68.5 -11.5t-85 -9
t-88 -6t-76.5 -2.5t-85.5 3t-108 8t-105.5 10t-78 10q-9 -20 -31 -66t-59 -108q-18 -31 -32.5 -53.5t-27 -37.5t-25.5 -22.5t-29 -7.5z" />
    <glyph glyph-name="eight" unicode="8" horiz-adv-x="1319" 
d="M186 195q0 43 14 85t38 82t56 77t68 71q-26 -5 -50.5 -6.5t-47.5 -1.5q-49 0 -82 13t-52.5 33.5t-27.5 46.5t-8 52q0 37 16.5 75.5t44.5 77t65.5 75.5t80 71.5t87 65t87.5 55.5q52 31 118.5 64t132 60.5t121 45.5t85.5 18q25 0 44 -12t30 -29q26 11 56.5 18t61.5 7
q53 0 85 -26t32 -85q0 -37 -28 -83.5t-76 -98t-113.5 -104.5t-140.5 -103q49 -9 92 -34.5t75.5 -64.5t51 -90t18.5 -112q0 -65 -23.5 -127.5t-64.5 -118t-97 -101.5t-121.5 -79.5t-138 -52t-145.5 -18.5q-69 0 -131.5 13.5t-109.5 44t-75 79t-28 117.5zM803 688
q-37 -22 -88 -53t-105 -68.5t-107 -81t-94.5 -92t-67.5 -100t-26 -105.5q0 -41 17.5 -68t45 -43t62 -22t68.5 -6q38 0 87.5 13t102.5 37.5t104 60.5t91.5 81.5t65 100t24.5 117.5q0 72 -31 120t-94 78q-26 12 -39 17t-16 14zM707 747q88 50 157.5 97.5t118 90.5t74.5 79
t26 63q0 20 -14 26t-34 6q-17 0 -37 -2.5t-37 -2.5t-28.5 5t-12.5 19q-54 -13 -125 -41.5t-146.5 -67t-149 -84t-131 -91.5t-93 -89t-35.5 -77q0 -28 14 -47t57 -19q34 0 80 10t98.5 27.5t108.5 42.5t109 55z" />
    <glyph glyph-name="nine" unicode="9" horiz-adv-x="1313" 
d="M57 756q0 39 44 87.5t117 98.5t168 98t197 85.5t203.5 60t188.5 22.5q22 0 40 -2.5t34 -7.5q26 16 42 21.5t33 5.5q28 0 41 -10t13 -25q0 -16 -15 -64t-41 -116q-9 -22 -17 -75.5t-15.5 -123t-14 -147.5t-11 -149t-7 -128.5t-2.5 -85.5q0 -66 5.5 -101t12.5 -53
t12.5 -26.5t5.5 -22.5q0 -8 -2 -17.5t-6 -23.5q-6 -20 -12.5 -40.5t-16 -37.5t-24.5 -27.5t-37 -10.5q-25 0 -39 18t-20.5 47t-8 65.5t-1.5 73.5q0 18 2.5 61t7 101.5t11 127t15 138t17.5 135t20 117.5q-24 -16 -71 -35.5t-108.5 -39.5t-133.5 -38.5t-145.5 -33t-144.5 -23
t-130 -8.5q-96 0 -151.5 28t-55.5 81zM965 942q26 20 34 50t8 64q0 7 -0.5 14t-0.5 15q-19 2 -40.5 4.5t-47.5 2.5q-52 0 -124 -14.5t-149 -37.5t-152.5 -52.5t-135.5 -59.5t-97 -58.5t-37 -48.5q0 -10 13.5 -15.5t36.5 -8.5t53 -3.5t63 -0.5q44 0 97.5 7t111 18.5t114 26.5
t106 31.5t88 33.5t59.5 32z" />
    <glyph glyph-name="colon" unicode=":" horiz-adv-x="942" 
d="M559 967q22 0 42 -19t20 -65q0 -34 -21.5 -68.5t-52 -62.5t-63.5 -46t-56 -18q-68 0 -68 62q0 46 19.5 88t69.5 84q25 21 56 33t54 12zM559 248q22 0 42 -19t20 -65q0 -32 -20.5 -67t-49.5 -65t-62.5 -49.5t-58.5 -19.5q-29 0 -52.5 21t-23.5 53q0 16 2.5 34.5t9.5 37.5
t18 36.5t28 32.5q15 13 22.5 16.5t14 4.5t15 3t23.5 13q17 12 33 22.5t39 10.5z" />
    <glyph glyph-name="semicolon" unicode=";" horiz-adv-x="918" 
d="M483 344q22 0 49.5 -8.5t51.5 -30.5t40.5 -60.5t16.5 -97.5q0 -40 -24 -93.5t-63 -110t-87.5 -112t-97 -99t-92.5 -70.5t-74 -27q-23 0 -34 16t-11 38t11 33.5t34 27.5q15 10 45 36.5t67 63t76 80.5t71 89t52.5 88t20.5 79q0 39 -16 57.5t-30 18.5q-8 0 -21.5 -6.5
t-28.5 -14t-30.5 -14t-27.5 -6.5q-33 0 -33 31q0 15 9.5 31t26.5 29.5t42 22.5t57 9zM551 967q22 0 41.5 -19t19.5 -65q0 -34 -21.5 -68.5t-51.5 -62.5t-63 -46t-56 -18q-68 0 -68 62q0 45 19 87.5t69 84.5q26 21 57 33t54 12z" />
    <glyph glyph-name="less" unicode="&#x3c;" horiz-adv-x="1227" 
d="M1145 1180q11 0 17.5 -8t6.5 -23q0 -11 -7 -24.5t-18.5 -28t-26.5 -28.5t-32 -26q-137 -93 -250 -162.5t-214 -126.5t-196.5 -108.5t-197.5 -109.5q14 -14 61 -47t116 -75.5t153.5 -88t174 -83.5t177.5 -62.5t164 -24.5q17 0 31.5 3t25.5 3q15 0 15 -13
q0 -17 -16.5 -35.5t-38 -33.5t-43.5 -25t-33 -10q-98 0 -180.5 16.5t-155.5 45t-140 66.5t-134 81.5t-137.5 90t-151.5 91.5q-34 19 -46 39t-12 45q0 31 17.5 48.5t48.5 37.5q110 70 223.5 132.5t229 124t230.5 124t228 131.5q27 16 44.5 28t29.5 20t20.5 12t16.5 4z" />
    <glyph glyph-name="equal" unicode="=" horiz-adv-x="1262" 
d="M821 436q-40 -12 -95 -24.5t-116 -25t-124.5 -24t-119.5 -20t-100.5 -13.5t-68.5 -5q-21 0 -42 3t-37.5 11.5t-26.5 23t-10 37.5q0 19 15 32.5t56 25.5q21 6 69 13t111.5 14.5t137 16.5t145.5 19t136.5 22t110.5 25l150 43q6 2 12.5 3t12.5 1q10 0 18.5 -5.5t8.5 -19.5
q0 -18 -21.5 -39.5t-56 -42.5t-78 -40t-87.5 -31zM1101 928q-13 0 -44 -5.5t-71 -13.5t-85 -18t-87 -19.5t-76.5 -17.5t-53.5 -12t-55 -12t-80 -17.5t-92 -19.5t-91 -18.5t-76 -13.5t-48 -5q-23 0 -36.5 6t-20 16t-8 21t-1.5 22t0.5 20t4.5 15.5t12.5 10t23.5 3.5t54 9.5
t94.5 24t124 31.5t143.5 32q145 28 250 39.5t180 11.5q37 0 61 -4.5t38 -13.5t19 -21.5t5 -28.5t-6 -27.5t-13.5 -19t-15 -11t-10.5 -3.5q-6 0 -13.5 3.5t-7.5 18.5q0 11 -4 14t-15 3z" />
    <glyph glyph-name="greater" unicode="&#x3e;" horiz-adv-x="1206" 
d="M178 94q-8 -3 -27 -5.5t-39 -2.5q-29 0 -53 8t-24 31q0 15 11.5 32t28.5 31t36 23.5t33 9.5q21 0 24 -20q96 25 202.5 75t214.5 114.5t212.5 139t197.5 148.5q-10 10 -41.5 31.5t-77.5 50t-102.5 61.5t-117.5 66t-123 64t-118.5 54.5t-103.5 37.5t-78 14
q-17 0 -31.5 -3.5t-25.5 -3.5q-14 0 -14 13q0 24 11 43.5t30.5 33.5t46 21.5t57.5 7.5q66 0 151 -34t185.5 -89t213.5 -123t235 -135q34 -19 45.5 -38.5t11.5 -44.5q0 -30 -14 -58t-43 -51q-104 -82 -212.5 -156.5t-223 -138.5t-234 -116.5t-244.5 -90.5z" />
    <glyph glyph-name="question" unicode="?" horiz-adv-x="1028" 
d="M780 1329q37 0 68.5 -14.5t54 -38.5t35 -56t12.5 -67q0 -60 -31.5 -128.5t-87.5 -140t-133.5 -143t-169.5 -137.5q-19 -14 -39.5 -30t-37 -32.5t-27.5 -33t-12 -31.5q24 0 64.5 5.5t83.5 13t79 14.5t51 10q16 3 27 3q16 0 23.5 -7.5t7.5 -26.5q0 -26 -20 -51t-60 -39
q-20 -7 -61.5 -13.5t-87 -12t-86 -8.5t-58.5 -3q-12 0 -30 3t-34 11.5t-27.5 23t-11.5 38.5q0 19 3.5 44t23.5 58t64 76t124 97q83 56 151.5 115.5t117 115t75.5 104t27 82.5q0 12 -3 23.5t-10 20.5t-18.5 14.5t-29.5 5.5q-58 0 -125.5 -15.5t-135.5 -39.5t-131 -53.5
t-111.5 -57.5t-77.5 -51.5t-29 -34.5q0 -4 2 -7t2 -7q0 -9 -10 -15.5t-23.5 -11t-26 -6.5t-16.5 -2q-6 0 -12.5 9t-12 23t-9 31t-3.5 33t28.5 48t78.5 69.5t118 77t146 72t162.5 53t168.5 20.5zM561 221q22 0 42 -19t20 -65q0 -34 -21.5 -68.5t-52 -62.5t-63.5 -45.5
t-56 -17.5q-34 0 -51 14.5t-17 46.5q0 47 19.5 88.5t69.5 83.5q26 22 56.5 33.5t53.5 11.5z" />
    <glyph glyph-name="at" unicode="@" horiz-adv-x="1741" 
d="M1313 1384q112 0 184 -35t113 -92t57 -130.5t16 -151.5q0 -72 -14 -155.5t-39 -167.5t-60.5 -161.5t-79.5 -137.5t-94.5 -96t-105.5 -36q-32 0 -55 16t-37 44.5t-20.5 68.5t-6.5 88q0 10 0.5 25.5t2.5 34.5q-32 -34 -76 -72t-96.5 -75.5t-111 -71.5t-118.5 -60
t-119.5 -41.5t-113.5 -15.5q-55 0 -94 13t-64 35.5t-37 51t-12 60.5q0 47 40 107t108 123.5t157.5 128t188.5 121t202 102t197 71.5q6 32 12 52t12 20q12 0 22 -7.5t17.5 -20t12 -29t4.5 -34.5q0 -9 -2.5 -36t-6.5 -67t-8.5 -89t-8.5 -101t-6.5 -103.5t-2.5 -95.5
q0 -53 4.5 -90.5t15.5 -51.5q34 19 69.5 55t69 85t63.5 109t52.5 127t35.5 139.5t13 145.5q0 130 -68.5 201t-215.5 71q-63 0 -145 -24t-173 -68t-187 -106.5t-186.5 -139.5t-171 -166.5t-140.5 -188t-95 -204.5t-35 -215q0 -131 74.5 -193.5t210.5 -62.5q59 0 119 11.5
t117 31t109 45.5t95.5 54.5t76.5 57.5t52 56q12 16 20 16q14 0 14 -31q0 -22 -11.5 -53t-40.5 -57q-32 -28 -88 -67.5t-128.5 -75.5t-157.5 -61t-173 -25q-97 0 -172.5 22t-128 69.5t-80 122.5t-27.5 181q0 109 36.5 219t100 215t149.5 202.5t184 182.5t203.5 155
t208.5 120.5t199 78t175 27.5zM563 272q52 0 110.5 16t118.5 42.5t118.5 61.5t110 72.5t93.5 75t68 70.5q5 54 10.5 112t11.5 112q-63 -19 -140 -53t-156.5 -77.5t-154 -93.5t-133 -101t-93.5 -99t-35 -88q0 -29 15.5 -39.5t55.5 -10.5z" />
    <glyph glyph-name="A" unicode="A" horiz-adv-x="1321" 
d="M758 1456q7 0 23 -2t32.5 -8.5t29.5 -19t13 -33.5q0 -9 -8.5 -23t-18 -33t-18 -41t-8.5 -47q0 -50 12.5 -107.5t26.5 -111.5q23 -93 51.5 -202t60.5 -224q57 14 102.5 26t87 23t82 22.5t87.5 24.5q9 3 15 3q18 0 18 -13q0 -11 -32.5 -34t-84.5 -50.5t-117 -55t-129 -46.5
q23 -78 47 -153.5t49 -143.5t50 -126t51 -101q11 -21 24.5 -35t25 -24.5t19.5 -18t8 -15.5q0 -15 -15 -24.5t-38 -9.5q-34 0 -65.5 6.5t-51.5 29.5q-16 18 -35 57.5t-38.5 91t-39.5 110.5t-38 117.5t-34 111.5t-28 92q-56 -18 -109.5 -32.5t-112.5 -28.5t-128 -28t-155 -30
q-24 -60 -49.5 -130.5l-59.5 -164.5q-14 -38 -22 -65t-14 -45t-12.5 -26.5t-16.5 -8.5q-11 0 -25.5 13.5t-27.5 34t-22 44.5t-9 45q0 41 11.5 78.5t33.5 91.5q5 12 17.5 40t31.5 69q-22 -2 -37 -3t-25 -1q-24 0 -43.5 9.5t-34 23.5t-22.5 30t-8 29q0 20 14 28.5t60 10.5
q45 2 84.5 8t78.5 12q31 64 64.5 132.5t65 133t59.5 120t47 93.5q10 20 29 65t43 101t50 116t50.5 109t45 81t32.5 32zM842 578q-20 73 -39.5 148.5t-37 148t-32.5 139.5t-26 123q-31 -66 -69 -151.5t-77 -173.5t-74.5 -170.5t-60.5 -143.5q43 7 99 17t114 21t111.5 22
t91.5 20z" />
    <glyph glyph-name="B" unicode="B" horiz-adv-x="1653" 
d="M1061 1286q71 0 120 -7.5t79 -23.5t43.5 -40t13.5 -58q0 -35 -16.5 -69.5t-45.5 -67.5t-68.5 -64.5t-84.5 -62.5q62 14 123.5 19.5t113.5 5.5q69 0 118 -17.5t79.5 -46.5t44.5 -67.5t14 -81.5q0 -77 -39.5 -160t-108.5 -162.5t-163.5 -151.5t-203.5 -126.5t-228.5 -86.5
t-239.5 -32q-58 0 -124.5 6.5t-125.5 23.5v-14q0 -32 -14.5 -52.5t-32.5 -32.5t-35.5 -16.5t-23.5 -4.5q-10 0 -17.5 7t-7.5 28q0 16 3.5 58.5t3.5 94.5q-27 29 -27 68q0 23 7 37.5t20 23.5q1 34 2 85t2.5 111t3.5 126t4.5 130t5.5 121t6 101v10.5t2 11.5q-15 6 -32.5 16
t-32.5 21.5t-25 23.5t-10 21q0 12 4.5 22t17.5 21t36 24.5t61 33.5q7 48 16 91t17.5 75t16.5 50.5t15 18.5q11 0 25.5 -12t27.5 -30.5t22 -42t9 -46.5q0 -11 -1 -20.5t-1 -18.5q78 31 159 55t162 40.5t159.5 25t150.5 8.5zM352 586q0 -29 0.5 -73.5t1.5 -97t2 -108.5t2 -108
q15 -12 36.5 -24t53.5 -22.5t77.5 -17t109.5 -6.5q107 0 213.5 29t203 77t179 109.5t143 126.5t95 128t34.5 114q0 52 -56.5 81t-158.5 29q-41 0 -98.5 -5t-122.5 -14.5t-132 -23t-126 -30.5q-54 -15 -98 -30.5t-80 -28t-63 -20t-46 -7.5q-38 0 -51.5 16.5t-13.5 48.5
q0 31 8 47t43 25q69 18 146 44.5t152.5 57t144 63t121 63t83.5 55.5t31 42q0 10 -15 16t-37 9t-45.5 3.5t-41.5 0.5q-38 0 -103.5 -8.5t-141.5 -24t-154 -37.5t-142 -49q-50 -21 -82 -39.5t-55 -33.5q-5 -44 -8 -92.5t-5 -98t-3 -97t-1 -89.5z" />
    <glyph glyph-name="C" unicode="C" horiz-adv-x="1354" 
d="M1096 1300q15 0 32.5 -12t32.5 -29t25 -35t10 -30q0 -13 -15.5 -33t-39 -38.5t-51 -32t-50.5 -13.5q-18 0 -43.5 2.5t-50.5 12.5q-16 -8 -58.5 -38t-101 -77t-128 -107t-140 -128t-136 -140.5t-116.5 -145t-81.5 -141t-30.5 -127.5q0 -27 5.5 -49.5t19.5 -38t38 -24
t62 -8.5q59 0 141.5 19t177 52.5t197.5 79t202.5 97.5t192 108.5t166.5 112.5q22 16 36 16q12 0 12 -12q-1 -8 -8.5 -23t-25.5 -33q-71 -71 -157.5 -138t-182 -126.5t-196 -109t-198 -85t-189 -55.5t-168.5 -20q-68 0 -111 16t-68 46t-34 72t-9 93q0 84 30 174.5t88.5 185.5
t144.5 193.5t198 198.5q108 96 199.5 166t165 115t127.5 67t86 22z" />
    <glyph glyph-name="D" unicode="D" horiz-adv-x="1491" 
d="M207 975q-10 0 -19 4t-15.5 15.5t-10.5 31t-4 51.5q0 34 35 60q-4 40 -5 72.5t-1 70.5q0 37 4 64.5t18 27.5q11 0 25.5 -8t28.5 -22.5t24.5 -35t13.5 -46.5l8 -72q40 10 83 16t83 10t73 5.5t54 1.5q109 0 213.5 -18t197 -51.5t170 -81t133.5 -105.5t87 -125t31 -140
q0 -54 -38 -116t-103 -127t-151 -130t-183.5 -124t-199.5 -110.5t-198.5 -89.5t-181.5 -59.5t-148 -21.5q-21 0 -38.5 13.5t-30 31.5t-20 37t-7.5 31q0 22 6.5 29.5t23.5 9t45.5 2t72.5 8.5q-4 34 -6.5 70.5t-4.5 71.5t-3.5 66t-2.5 52q-5 79 -12.5 163t-15.5 166.5
t-16 159.5t-15 142zM326 1040q7 -72 15.5 -154.5t16 -169t14.5 -172.5t12.5 -165t8.5 -147.5t4 -118.5q99 29 207 77t213 107t200 124t167 128t114.5 119t42.5 98q0 47 -45.5 104t-131 107t-208.5 83.5t-278 33.5q-67 0 -121 -4.5t-97 -12t-76 -17.5t-58 -20z" />
    <glyph glyph-name="E" unicode="E" horiz-adv-x="1470" 
d="M936 1272q48 0 97 -6.5t88.5 -18t65 -27.5t25.5 -34q0 -19 -14 -24t-31 -5h-155q-41 0 -96 -5t-116 -13t-125 -18t-123.5 -19.5t-112 -17.5t-89.5 -13q3 -32 5 -64t3.5 -61.5t2.5 -55t1 -44.5q0 -14 -0.5 -52t-0.5 -87t-1 -104.5t-1 -105.5t-0.5 -89t-0.5 -56v-202
q0 -36 14 -46t46 -10q120 0 257.5 20.5t277 57t274 86t250.5 107.5q13 6 22 6q11 0 15.5 -6t4.5 -14q0 -18 -16 -29q-113 -83 -248.5 -148t-283 -109t-304 -67t-311.5 -23q-75 0 -108 32.5t-33 98.5q0 16 4 36.5t8.5 43t8.5 45.5t4 45q0 15 0.5 44t1 66t1.5 79.5t1.5 83
t1 77t0.5 62.5q0 31 -1 75.5t-2.5 96.5t-4 108t-5.5 109q-12 6 -17 18t-5 29q0 23 16 39q-2 19 -3.5 46.5t-1.5 44.5q0 53 8 75.5t18 22.5q6 0 16.5 -9t21.5 -22.5t21 -30t15 -30.5q3 -10 5.5 -22t4.5 -26l28 7q52 9 128.5 18.5t158.5 17t159 12.5t130 5zM1314 883
q-13 0 -44 -5.5t-71 -13.5t-85 -18t-87 -19.5t-76.5 -17.5t-53.5 -12t-55 -12t-80 -17.5t-92 -19.5t-91 -18.5t-76 -13.5t-48 -5q-23 0 -36.5 6t-20 16t-8 21t-1.5 22t0.5 20t4.5 15.5t12.5 10t23.5 3.5t54 10t94.5 24.5t124 31.5t143.5 31q144 28 249.5 39.5t180.5 11.5
q37 0 61 -4.5t38 -13.5t19 -21.5t5 -28.5t-6 -27.5t-13.5 -19t-15 -11t-10.5 -3.5q-6 0 -13.5 3.5t-7.5 18.5q0 11 -4 14t-15 3z" />
    <glyph glyph-name="F" unicode="F" horiz-adv-x="1253" 
d="M1270 868q12 0 20 -3.5t8 -12.5q0 -14 -29.5 -31.5t-74.5 -38.5q-139 -66 -285.5 -108.5t-294.5 -42.5q-33 0 -71 0.5t-74 3.5t-66 9t-47 18q-1 -42 -1.5 -74.5t-0.5 -64.5v-68v-84q0 -79 1.5 -137.5t4.5 -102t5.5 -74t5.5 -53.5t4.5 -41t1.5 -35q0 -26 -7.5 -45
t-17.5 -32t-20.5 -19t-16.5 -6q-9 0 -17 4.5t-16 20.5t-14.5 46t-11 81t-7.5 126t-3 181v223.5t1.5 218t3.5 219t7 225.5q1 22 3 48t6.5 48.5t11.5 37t18 14.5q7 0 16.5 -7t19 -18t18 -25t14.5 -28q34 8 82 16t102 15.5t109 14t102 11.5t81.5 8t47.5 3q46 0 83 -15
t63.5 -37.5t40.5 -49t14 -50.5q0 -25 -10 -35t-25 -10q-8 0 -8 10.5t-2 22.5t-10.5 22.5t-33.5 10.5q-84 0 -171.5 -7t-170.5 -17.5t-157 -23t-131 -22.5q-5 -111 -8 -208t-5 -191q17 10 48 18.5t69.5 16.5t81.5 14.5t84 12.5t77 11t62 9q30 5 75.5 12.5t97 16t104.5 17
t97.5 15.5t76 11.5t39.5 4.5z" />
    <glyph glyph-name="G" unicode="G" horiz-adv-x="1511" 
d="M1171 143q4 44 8.5 94t10.5 103q-53 -53 -121.5 -102.5t-146 -93t-160 -79.5t-162.5 -61.5t-155 -40t-136 -14.5q-48 0 -93 8.5t-80.5 30.5t-57 60t-21.5 97q0 48 23.5 111.5t65.5 136t99.5 151.5t124.5 159t142 158t151.5 148t152 130t145 103.5t129.5 68t106 24.5
q22 0 44 -7t39.5 -21.5t28.5 -37t11 -52.5q0 -14 -4 -30t-17 -16q-12 0 -17.5 4.5t-12 10t-17 10t-32.5 4.5q-46 0 -116 -35t-153 -94.5t-174.5 -138.5t-179.5 -167t-168 -179t-140.5 -175.5t-96 -157t-35.5 -122.5q0 -32 10.5 -49.5t29.5 -26t45 -10.5t58 -2
q59 0 129.5 14.5t145.5 39.5t151.5 58.5t147 72.5t132 81.5t107.5 84.5t72 81.5t26 73.5q-20 -22 -52 -48.5t-70 -53t-80.5 -51.5t-84 -44.5t-79 -31t-66.5 -11.5q-45 0 -45 47q0 21 27 54.5t70.5 72t97.5 77t108.5 70t104 51t82.5 19.5q48 0 73 -22.5t25 -73.5
q0 -23 -6.5 -72t-15 -127t-15 -185.5t-6.5 -246.5q0 -84 1.5 -138t3.5 -91.5t3.5 -63.5t1.5 -53q0 -16 -8 -34t-20 -33t-26.5 -25t-27.5 -10t-22 25t-14.5 67.5t-8 98.5t-2.5 118q0 79 3.5 159.5t8.5 149.5z" />
    <glyph glyph-name="H" unicode="H" horiz-adv-x="1360" 
d="M270 725q18 165 31.5 277.5t25 181t21.5 98t21 29.5q7 0 20.5 -8.5t27 -22t23 -30t9.5 -33.5q0 -24 -6.5 -68.5t-16.5 -104t-20.5 -131.5t-18.5 -153q52 14 114 29t127.5 29t132 27.5t128.5 24.5l86 15v164q0 38 2.5 81t7.5 82t11.5 71t15.5 48q12 22 25 37t25 23.5
t22.5 12t17.5 3.5q6 0 12.5 -9.5t12 -22.5t9 -27t3.5 -23q0 -19 -12 -27t-33 -14q-3 -14 -3 -43q0 -38 2.5 -93t2.5 -120v-127q51 6 85.5 9.5t57 5.5t35 2.5t20.5 0.5q47 0 63.5 -4t16.5 -18t-24 -25.5t-63 -22t-89 -20t-102 -18.5v-592q0 -31 -4.5 -58t-13.5 -47.5
t-23.5 -32t-34.5 -11.5q-52 0 -77 13.5t-25 31.5q0 28 47 49q2 10 3.5 36.5t3 63t2.5 79t1.5 85t1 80.5t0.5 65q0 47 -1 103t-1 115q-101 -20 -177.5 -37.5t-143.5 -35.5t-132.5 -37t-144.5 -42q-6 -80 -9.5 -163t-6 -164t-3.5 -157t-2 -143q20 0 27.5 -14t7.5 -37
q0 -31 -11.5 -71.5t-29 -77t-38 -61.5t-38.5 -25q-11 0 -18.5 14t-12.5 35t-7.5 44.5t-2.5 41.5q0 12 1 58.5t2.5 111t3.5 139t4 143t3.5 122.5t2.5 79q1 20 3 42t5 44l-68 -22q-25 -35 -46 -57.5t-35 -22.5q-12 0 -18.5 18.5t-6.5 61.5q0 27 14 48.5t38.5 39t58.5 32
t75 27.5z" />
    <glyph glyph-name="I" unicode="I" horiz-adv-x="604" 
d="M362 193q25 0 36 -27t11 -65q0 -34 -7.5 -70t-20.5 -62q-7 -15 -18 -29.5t-24 -26t-26 -19t-24 -7.5q-14 0 -23 11t-13.5 39t-6 76t-1.5 122q0 338 6 574.5t16.5 385.5t24 217t27.5 68q48 0 71 -38.5t23 -113.5q0 -35 -6.5 -82.5t-29.5 -107.5q-5 -65 -8.5 -143
t-5.5 -160.5t-3 -165t-1 -155.5q0 -69 0.5 -126t2.5 -95z" />
    <glyph glyph-name="J" unicode="J" horiz-adv-x="1061" 
d="M696 1382q11 0 24.5 -12.5t27 -33t24.5 -46.5t16 -53q3 -15 5.5 -56.5t5 -101.5t5 -133t4.5 -150t3.5 -153t3 -142.5t2 -118t0.5 -79.5q0 -98 -15.5 -179.5t-50 -141t-91 -92.5t-138.5 -33q-79 0 -152 19.5t-137.5 51t-117.5 71.5t-90.5 81.5t-58.5 79.5t-21 67t16 47.5
t33 18.5q16 0 37 -12t39 -33q105 -122 213 -188t239 -66q44 0 77.5 15.5t56.5 51t34.5 93.5t11.5 143q0 95 -2 198t-5 203t-7 192.5t-7 167t-5 126t-2 69.5q0 17 -0.5 32t-0.5 28q0 32 4 50.5t19 18.5z" />
    <glyph glyph-name="K" unicode="K" horiz-adv-x="1450" 
d="M1341 1300q25 0 25 -30q0 -11 -5 -26.5t-15 -32t-23.5 -33t-30.5 -29.5q-69 -52 -158.5 -102.5t-186.5 -97t-195 -88t-185 -77.5q-24 -10 -55.5 -24t-62.5 -28.5t-56.5 -27.5t-36.5 -22q10 -10 48.5 -29.5t96.5 -44.5t131.5 -54t155 -58t167 -55t166.5 -46.5t154 -32.5
t130 -12q17 0 32 3.5t25 3.5q15 0 15 -13q0 -17 -20 -39t-46.5 -42t-52 -34t-37.5 -14q-26 0 -63.5 4.5t-81.5 12t-91.5 17.5t-94 21t-89.5 22.5t-76 22.5q-31 10 -85 30t-119 46.5t-135 55.5t-132 57v-8q0 -90 0.5 -161.5t0.5 -128t0.5 -99t0.5 -74.5t-2.5 -59.5t-9 -47.5
t-19 -31.5t-32.5 -11.5q-11 0 -18.5 18t-13 47.5t-8.5 68.5t-4.5 81.5t-2 85t-0.5 80.5v86v78.5t-2 124.5l-60 31q-34 17 -45.5 38t-11.5 46q0 35 29.5 60t85.5 52q-1 70 -1.5 137t-1 123.5t-1 97t-0.5 56.5q0 32 2.5 53.5t8.5 34t16.5 18t25.5 5.5t27 -11t21.5 -29.5
t18 -43t17.5 -52.5q8 -23 11 -44.5t3 -38.5q0 -49 -27 -72q-3 -14 -5.5 -65.5t-2.5 -119.5q91 36 189.5 74t207 85.5t228 108t252.5 140.5q27 16 44.5 28t29.5 19.5t20 11.5t16 4z" />
    <glyph glyph-name="L" unicode="L" horiz-adv-x="1159" 
d="M166 84q0 30 7.5 53t18 39t23 25.5t21.5 11.5q2 47 4 111.5t4.5 138.5t5 153t4.5 156.5t4 148.5t3 129t2 97.5t1 54.5q0 69 12.5 110.5t36.5 41.5q12 0 21.5 -8t18.5 -22.5t18.5 -34.5t21.5 -44q28 -54 28 -111q0 -74 -44 -139q-3 -27 -7 -91t-8 -148t-7.5 -180.5
t-7 -189.5t-6 -174.5t-3.5 -135.5q15 -5 31 -6.5t30 -1.5q51 0 114 8t133 22.5t143.5 35t144.5 45t136.5 52.5t119.5 58q19 10 32 10q16 0 16 -14q0 -18 -24 -43q-61 -65 -150.5 -123t-200 -101.5t-239 -69.5t-268.5 -26q-60 0 -97.5 13t-58 35.5t-27.5 52t-7 61.5z" />
    <glyph glyph-name="M" unicode="M" horiz-adv-x="1618" 
d="M1317 1423q8 19 16.5 32t22.5 13q6 0 14 -16t15.5 -38t12.5 -45t5 -36q0 -28 -12.5 -67.5t-32.5 -73.5q0 -19 1 -73t3 -126.5t4 -154.5t4 -157.5t3 -135.5t1 -88t-0.5 -73t-2 -97.5t-2.5 -108t-2.5 -104.5t-2 -87t-0.5 -55q0 -26 -14.5 -47.5t-34 -37.5t-38.5 -24.5
t-28 -8.5q-17 0 -24.5 20t-7.5 51q0 15 2.5 56.5t5.5 91.5t7 98t7 76q3 33 5.5 75t4 89t2 98t0.5 104q0 63 -1 126t-2 120.5t-2 107.5t-1 87v59q-41 -63 -86.5 -127.5t-83.5 -116.5q-29 -41 -62.5 -77t-67 -63.5t-63.5 -43.5t-51 -16q-37 0 -72.5 12t-60.5 23
q-27 12 -61 33.5t-69 49t-68.5 58.5t-61.5 63q-17 19 -35 47t-38 60q-2 -70 -4 -151t-3.5 -156.5t-2.5 -137.5t-1 -94v-444q0 -23 -3.5 -38t-9.5 -23.5t-15 -11.5t-21 -3t-28.5 13.5t-31.5 38.5t-25.5 59.5t-10.5 76.5q0 12 4.5 71.5t12 148t17 196.5t18.5 216.5t17.5 208.5
t14.5 173q-20 45 -31.5 82t-11.5 55q0 24 6 47.5t16.5 42t23.5 30t28 11.5q26 0 38.5 -29.5t26.5 -88.5q5 -22 21 -58t38.5 -77t49 -84t53.5 -78t59 -64t63.5 -50t58.5 -32.5t44 -11.5q33 0 69.5 18.5t71.5 46t66.5 58.5t54.5 55q17 19 47 56t64.5 81.5t69.5 89.5t61 80
q11 48 21.5 81t15.5 44z" />
    <glyph glyph-name="N" unicode="N" horiz-adv-x="1468" 
d="M1227 1456q7 0 18.5 -9t21.5 -22.5t17.5 -29t7.5 -27.5q0 -8 -2.5 -32t-7 -57t-10 -72l-11 -78t-10.5 -75t-8 -63q-3 -23 -6.5 -70.5t-7.5 -110.5t-8.5 -137.5t-9 -150.5t-9 -149.5t-8 -135.5t-7 -108.5t-5.5 -67.5q15 -9 26 -22.5t11 -30.5q0 -12 -7 -27.5t-18 -29
t-26 -22.5t-31 -9q-19 0 -31 22.5t-19 59t-9.5 83t-2.5 95.5q0 53 1 91t3.5 76t6.5 83t10 113q-22 -23 -50 -40.5t-71 -17.5q-35 0 -79 25t-90 64.5t-92 87.5t-85 93.5t-69 83t-44 56.5q-21 26 -41.5 50t-39 42t-33 28.5t-21.5 10.5q-16 0 -21.5 -23.5t-5.5 -58.5v-1026
q0 -22 -5.5 -30.5t-26.5 -8.5q-23 0 -41.5 17t-28.5 67q-14 60 -19 132.5t-5 157.5q0 95 5 202t11 222.5t11 238t5 247.5q-14 34 -23 62t-14 52.5t-7 46.5t-2 44q0 12 1 23.5t4.5 20.5t10.5 14.5t18 5.5q15 0 29.5 -11.5t28 -32.5t26.5 -49t24 -61q11 -34 33 -76t60.5 -94.5
t97 -117.5t143.5 -144q84 -78 139.5 -122t93.5 -65t63 -25.5t48 -4.5q28 0 45 16.5t29 44.5q8 90 16.5 161t16 127.5t14.5 103t13 88t11 81t9 84.5q5 56 13.5 88.5t25.5 32.5z" />
    <glyph glyph-name="O" unicode="O" horiz-adv-x="1366" 
d="M1038 1274q54 0 88.5 -18t34.5 -60q0 -11 -4 -20t-4 -17t10 -12q26 -10 52.5 -29t47.5 -50t34.5 -75.5t13.5 -105.5q0 -95 -41 -198.5t-112 -203t-166.5 -189t-203 -157t-222 -107.5t-224.5 -40q-55 0 -106.5 14t-91 46.5t-63.5 86t-24 133.5q0 139 96.5 311.5
t297.5 360.5q81 75 169 136t168.5 104t146.5 66.5t103 23.5zM1024 1085q-21 0 -60.5 -8t-83 -23.5t-84 -39t-65.5 -53.5q-22 -26 -49 -46.5t-48 -20.5q-5 0 -10.5 1.5t-10.5 1.5q-19 0 -39.5 -14.5t-49.5 -38.5q-82 -68 -149 -144.5t-114 -153.5t-73 -151.5t-26 -138.5
q0 -84 31 -128t112 -44q80 0 178 37.5t198.5 101.5t195 147.5t168.5 176t118.5 187.5t44.5 181q0 77 -44.5 123.5t-139.5 46.5z" />
    <glyph glyph-name="P" unicode="P" horiz-adv-x="1380" 
d="M129 1249q125 0 237.5 7.5t214 17t193 17t174.5 7.5q108 0 180 -7.5t115.5 -24.5t61.5 -44.5t18 -68.5q0 -68 -36.5 -135.5t-100 -129.5t-148 -115.5t-181 -93.5t-199.5 -62.5t-203 -22.5h-41.5t-42.5 2q2 -96 4 -191.5t3.5 -176t2 -139.5t0.5 -81q0 -42 -8.5 -75
t-22 -55.5t-30.5 -34t-33 -11.5q-10 0 -17 6.5t-12 25.5t-7.5 54.5t-4 94.5t-2 144t-0.5 204v280q-23 25 -23 64q0 49 23 57v356q-31 3 -60.5 14t-53 25t-38 28.5t-14.5 24.5q0 22 13 30.5t38 8.5zM350 1081q2 -15 4 -45.5t4 -74t4 -96.5t5 -113q18 -2 38.5 -3t45.5 -1
q91 0 183.5 20t177.5 52.5t159 74.5t128.5 86t86 87t31.5 77q0 22 -55.5 34.5t-174.5 12.5q-80 0 -160 -9.5t-161 -21.5l-162 -24t-162 -17z" />
    <glyph glyph-name="Q" unicode="Q" horiz-adv-x="1626" 
d="M1423 1251q22 0 47.5 -13t47.5 -37.5t36.5 -60.5t14.5 -81q0 -60 -23 -126.5t-64.5 -135t-99.5 -138t-127 -136.5t-147.5 -130t-161.5 -119q45 -62 91.5 -118t87.5 -102t74 -80.5t52 -53.5q28 -28 55.5 -50t49.5 -39t35.5 -29t13.5 -19q0 -14 -9.5 -27t-24.5 -23.5
t-33.5 -17t-37.5 -6.5q-16 0 -47.5 25.5t-72 67t-86.5 94.5t-91 108.5t-86 109t-71 95.5q-76 -45 -152.5 -82t-150 -63t-142 -40t-129.5 -14q-60 0 -101 13t-66.5 38t-36.5 61t-11 81q0 91 41.5 188.5t112 194.5t164 191t197.5 177.5t213 154.5t210.5 122.5t189.5 80.5
t150 29q28 0 51 -9t23 -29q0 -11 -5.5 -21.5t-5.5 -18.5q0 -5 5.5 -8.5t19.5 -3.5zM778 475q11 0 23.5 -8.5t25 -21.5t24.5 -29.5t23 -32.5q78 53 153 111.5t142 119.5t123.5 122t97.5 118.5t64 109t23 93.5q0 40 -32 59t-91 19q-29 0 -72.5 -11.5t-88.5 -28t-85.5 -34.5
t-63.5 -31q-46 -26 -76 -46.5t-50 -20.5q-19 0 -26.5 9.5t-10 20.5t-4 20.5t-8.5 9.5q-6 0 -38.5 -21.5t-82.5 -59.5t-111.5 -89.5t-125 -111t-124 -124t-107.5 -128.5t-75.5 -125.5t-28.5 -113.5q0 -66 28 -91.5t91 -25.5q46 0 101.5 13.5t117.5 38t128 59t134 75.5
q-14 25 -26.5 52t-12.5 41q0 9 1 20t5.5 20.5t12.5 16t22 6.5z" />
    <glyph glyph-name="R" unicode="R" horiz-adv-x="1249" 
d="M246 670q0 23 0.5 47t0.5 48q0 85 -1.5 170t-4 156.5t-4 122t-1.5 66.5q0 42 5 57t23 15q19 0 30.5 -29t20.5 -80q27 16 71.5 34t100 33.5t118.5 25.5t128 10q79 0 151.5 -17t127.5 -50t88 -81.5t33 -112.5q0 -13 -4.5 -30t-17 -36t-33.5 -39.5t-54 -41.5
q-44 -28 -98.5 -57.5t-114.5 -59.5t-122.5 -59.5t-122 -56t-113 -50t-95.5 -41.5q2 -27 2 -51.5v-44.5v-12q49 -44 101 -74.5t113 -49.5t136 -27.5t171 -8.5q80 0 150 15t123.5 33.5t87.5 33.5t42 15q23 0 23 -25q0 -17 -12.5 -32.5t-34.5 -33.5q-24 -20 -69.5 -43
t-104.5 -43t-128 -33.5t-139 -13.5q-133 0 -249 32t-205 91q2 -63 5.5 -132.5t6.5 -130t5.5 -105t2.5 -56.5q0 -18 -8 -38t-20.5 -36.5t-27.5 -27.5t-28 -11t-22.5 30t-16.5 74t-11 93.5t-5 87.5q-2 55 -4 145t-2 193q-66 60 -93.5 97.5t-27.5 64.5q0 12 14 23.5t33.5 22.5
t41.5 19.5t38 14.5zM338 1077q2 -32 4.5 -74.5t5 -90t4.5 -97.5t4 -98q168 72 296.5 133.5t215.5 110.5t131.5 85t44.5 56q0 24 -27.5 43t-68.5 32.5t-89 21t-89 7.5q-64 0 -128 -8t-121 -24t-104.5 -40.5t-78.5 -56.5z" />
    <glyph glyph-name="S" unicode="S" horiz-adv-x="1503" 
d="M1237 1350q21 0 43 -9t41 -22t31 -26.5t12 -22.5q0 -5 -8.5 -17.5t-23 -25.5t-35 -23t-44.5 -10q-15 0 -24.5 7t-9.5 24q-30 -2 -85 -19.5t-126 -46.5t-153 -68t-163.5 -83t-159 -90.5t-140 -92t-105 -87t-54.5 -74.5q119 27 245 49.5t242.5 38t214 24t159.5 8.5
q96 0 159.5 -22.5t102 -60t54 -87.5t15.5 -104q0 -63 -45.5 -128t-122.5 -126t-177.5 -114t-211.5 -93t-224.5 -63t-215.5 -23q-73 0 -137 17t-111 48.5t-74.5 76t-27.5 98.5q0 20 12.5 36t27.5 16q14 0 26 -20t12 -71q0 -10 15 -25t47.5 -28.5t84 -23t123.5 -9.5
q101 0 208 25.5t209.5 67t193.5 94.5t160 108t109 107.5t40 92.5q0 23 -18.5 44.5t-51.5 37.5t-78.5 25.5t-99.5 9.5q-66 0 -152.5 -10t-179.5 -25t-185.5 -32.5t-170 -32.5t-133.5 -25t-76 -10q-16 0 -30 7t-24 24.5t-16 45.5t-6 70q0 19 19.5 49t54.5 67.5t84 80t107.5 86
t125.5 85.5t139 79q118 61 218 100t175.5 61.5t124.5 31t64 8.5z" />
    <glyph glyph-name="T" unicode="T" horiz-adv-x="1202" 
d="M657 1376q15 0 24.5 -15t15 -39t8 -53.5t2.5 -57.5q0 -16 -0.5 -30.5t-1.5 -27.5q42 10 85.5 20.5t84 20.5t76 19t61.5 16q54 14 94.5 26t69.5 21t48.5 14.5t30.5 5.5q23 0 31 -6.5t8 -23.5q0 -19 -35 -45.5t-90 -56t-123.5 -59t-136 -54t-127 -42t-96.5 -22.5
q-5 -61 -8 -130t-4.5 -134t-2.5 -119.5t-1 -85.5q0 -115 11 -214.5t24.5 -176.5t24.5 -127.5t11 -67.5q0 -27 -8 -48t-33 -21q-24 0 -52 40t-53 120t-41.5 198.5t-16.5 276.5q0 48 2 103.5t5 114.5t8 119.5t11 118.5q-103 -26 -195 -40.5t-163 -14.5q-45 0 -82.5 12.5
t-65.5 29.5t-43.5 36t-15.5 31q0 24 16 34.5t45 10.5q46 0 104.5 5.5t126 15t142 23t152.5 29.5q7 54 16 100t18.5 79t19 52t19.5 19z" />
    <glyph glyph-name="U" unicode="U" horiz-adv-x="1446" 
d="M336 1294q34 0 52 -37.5t18 -128.5q0 -13 -3.5 -51.5t-9 -94t-13 -124t-15 -140t-14.5 -143t-12.5 -133.5t-9 -110t-3.5 -74q0 -37 8.5 -63.5t30 -44t57.5 -25.5t90 -8q45 0 95.5 5.5t101.5 15t101 21.5t93 25.5t77.5 26.5t55.5 25q32 18 49.5 42.5t25.5 55t9.5 65
t1.5 72.5q0 29 -5.5 77t-14.5 106.5t-20 122t-21.5 124t-20 112.5t-14.5 87q-8 50 -14 102t-6 97q0 48 11 79t42 31q22 0 38.5 -25.5t27.5 -65t16.5 -86.5t5.5 -89q0 -26 -1.5 -49t-6.5 -39q5 -29 14 -80.5t19.5 -117t21 -141.5t18.5 -153.5t13.5 -153t5.5 -139.5
t-36.5 -114.5t-97.5 -88t-140.5 -63.5t-165.5 -42t-172.5 -23t-161.5 -7q-80 0 -127.5 24t-72.5 66t-32.5 99.5t-7.5 124.5q0 25 3 74.5t7.5 115t10.5 141.5t12.5 153t12.5 151t10.5 134.5t8 103t3.5 57.5q1 30 2.5 52t7 36.5t15 22t26.5 7.5z" />
    <glyph glyph-name="V" unicode="V" horiz-adv-x="1237" 
d="M82 1278q21 0 45.5 -25.5t49 -65.5t47.5 -88t40 -93q8 -23 22 -65t31.5 -97t37.5 -119.5t41 -132.5t41.5 -136t39.5 -130t35 -114.5t27 -88.5q3 22 17 64.5t34 95.5t43.5 112.5t46.5 115t43 103t33 76.5q25 57 58.5 137t70.5 166t74.5 171.5t70 152.5t57 109t35.5 42
q12 0 23 -10t18.5 -27t12 -40t4.5 -48q0 -13 -10.5 -45.5t-28.5 -78t-42 -101.5t-50 -115t-53 -119t-51 -114l-44 -99t-33 -75q-19 -44 -41.5 -96t-46.5 -107.5t-46.5 -110.5t-40 -105t-28 -92.5t-10.5 -70.5q0 -54 -4.5 -87.5t-15 -52t-29.5 -25.5t-47 -7q-29 0 -43.5 14.5
t-23.5 39.5t-15.5 58.5t-17.5 70.5q-6 18 -22 69t-39 122.5t-50.5 157.5t-56.5 174t-56.5 172t-51 152t-40 114t-22.5 58q-12 24 -24.5 47t-22 43t-15.5 35.5t-6 24.5t0.5 23t3 27.5t8.5 23.5t17 10z" />
    <glyph glyph-name="W" unicode="W" horiz-adv-x="1989" 
d="M100 1329q15 0 24 -5.5t16.5 -18.5t15 -33t18.5 -49q5 -15 22 -57t40.5 -103t51.5 -136t57 -155t56 -160t48.5 -151t35 -128.5t15.5 -92.5q4 26 26 77.5t55 118t73.5 143.5t83 154t83.5 150t74.5 132t56.5 98.5t29 49.5q19 33 33.5 66.5t27 59.5t25 42.5t29.5 16.5
q10 0 21 -8t20 -21.5t14.5 -31.5t5.5 -38q0 -30 -17.5 -78t-46.5 -108t-67 -129t-80 -141q9 -66 34.5 -144t72.5 -168q21 -40 41 -76t39 -71.5t36.5 -72t32.5 -77.5q0 41 23.5 105t62 141t88.5 163t104 171.5t107 166t98 146.5t77.5 113.5l45.5 66.5q25 39 41.5 67.5t28 48
t21.5 29t22 9.5q20 0 29.5 -13t9.5 -44q0 -28 -13.5 -65t-32.5 -74.5t-39 -70.5t-32 -52q-30 -47 -68 -106t-80 -125.5t-86 -138t-85 -143t-77 -140.5t-63 -130q-26 -60 -42.5 -117t-26.5 -104.5t-13.5 -83t-3.5 -51.5q0 -31 -25 -45t-67 -14q-16 0 -26 9t-17 24t-13 35
t-13 42q-9 28 -24 68.5t-34 87t-41 96.5t-45 96q-15 28 -32 62.5t-35 72.5t-35 77.5t-31 78.5q-26 -46 -51 -90t-47 -84q-37 -68 -67 -122.5t-55 -104.5t-44.5 -99t-34.5 -106q-37 -137 -104 -137q-32 0 -41.5 16.5t-9.5 56.5v140q0 32 -13.5 93.5t-36.5 140.5t-52 170.5
t-59.5 183t-60.5 178t-54.5 155.5t-41 115.5t-20.5 58.5q-10 30 -10 57q0 29 11 46.5t31 17.5z" />
    <glyph glyph-name="X" unicode="X" horiz-adv-x="1180" 
d="M182 1313q7 0 19 -14.5t28 -39.5t35.5 -58.5t40.5 -72.5q11 -20 33 -56.5t52.5 -85t68.5 -107.5t80 -123q62 81 123 160t117 154t105.5 146t88.5 136q21 37 35 64t25.5 45t22 27t25.5 9q39 0 39 -78q0 -50 -8.5 -90.5t-34.5 -87.5q-30 -53 -77.5 -120t-106 -146.5
t-126.5 -169t-138 -187.5q41 -61 83.5 -122t85 -119.5t84 -113t79.5 -101.5q28 -35 56 -69t50.5 -63.5t36.5 -51.5t14 -33q0 -8 -4 -17.5t-11 -17.5t-16.5 -13.5t-21.5 -5.5q-17 0 -43 24t-55.5 59t-60.5 75.5t-56 73.5q-83 106 -152 204t-135 201q-81 -115 -158 -237
t-143 -250q-45 -85 -67.5 -142.5t-35.5 -93t-23.5 -50.5t-31.5 -15q-14 0 -29.5 32t-15.5 92q0 51 16 119t58 154q66 134 155.5 269t186.5 266q-44 72 -90 152t-98 173q-29 50 -53 99t-41 89t-27 67.5t-10 33.5q0 27 26 27z" />
    <glyph glyph-name="Y" unicode="Y" horiz-adv-x="1384" 
d="M610 707q-61 14 -127.5 49.5t-131 84t-123 106t-103 115t-70.5 111t-26 95.5q0 24 11 33.5t34 9.5q14 0 24.5 -3.5t20 -11.5t19 -20.5t22.5 -30.5q45 -63 89 -116t92.5 -99t104 -86t123.5 -76q23 -12 43.5 -17t39.5 -5q34 0 63 13t65 38q61 42 114.5 88.5t98 90.5t81 83
t65.5 66q34 32 61.5 60.5t49.5 50t39.5 34t31.5 12.5q12 0 23.5 -8t11.5 -39q0 -10 -19.5 -37t-50 -62.5t-68 -76.5t-74 -80t-68.5 -71.5t-50 -51.5q-19 -20 -52.5 -53.5t-73.5 -69.5t-83 -68t-82 -50q0 -20 -1 -74.5t-2 -126.5t-3 -154.5t-3 -160t-2 -141.5t-1 -99
q0 -54 -12.5 -97t-30.5 -73t-37.5 -45.5t-34.5 -15.5q-36 0 -36 64q0 38 14 102q4 20 7.5 60.5t5.5 94.5t4 117t3 128.5t2 130t1.5 119.5t0.5 97.5v65.5z" />
    <glyph glyph-name="Z" unicode="Z" horiz-adv-x="1722" 
d="M199 664q13 0 47 -5t87.5 -12t126 -14.5t161.5 -11.5q63 74 113.5 135t78.5 96q45 56 103 110.5t108 96.5q-62 -13 -127.5 -21t-124.5 -8q-45 0 -104.5 1.5t-119.5 5.5t-113 10.5t-85 15.5t-52.5 18t-32.5 19.5t-16.5 23t-4.5 29.5q0 32 24.5 56t67.5 24q14 0 28.5 -4.5
t36 -11.5t54.5 -15t85 -15t126.5 -11.5t179.5 -4.5q67 0 142.5 12t149.5 29.5t143 38.5t124 38.5t92 29.5t47 12q15 0 29.5 -9.5t25 -23.5t17 -29.5t6.5 -27.5q0 -38 -38.5 -56.5t-104.5 -29.5q-89 -14 -163.5 -45t-135.5 -69t-109.5 -79t-85.5 -75q-15 -14 -40 -40.5
t-56.5 -62.5t-68 -79t-75.5 -89h78q193 0 325 15t216.5 32.5t127.5 32.5t58 15q29 0 39 -12t10 -46q0 -11 -29 -27.5t-81 -34.5t-123.5 -35.5t-156 -31.5t-179 -23t-192.5 -9q-50 0 -98 0.5t-95 3.5q-63 -76 -119 -143.5t-94 -110.5q59 0 136.5 -23t165.5 -51t182.5 -51
t189.5 -23q92 0 168 5t138 15.5t113 27t93 40.5q27 15 42 15q18 0 18 -16q0 -12 -11.5 -30.5t-36.5 -39.5q-55 -47 -117.5 -76.5t-126 -46t-123 -22t-108.5 -5.5q-58 0 -128 11t-143.5 28t-147.5 36t-139.5 36t-119.5 28t-88 11q-33 0 -62 -20t-55.5 -50t-51 -64.5
t-49 -64.5t-50 -50t-53.5 -20q-26 0 -42 16.5t-16 59.5q0 34 25.5 69t61 69t73 64t61.5 54q12 12 41 44t68.5 77t86.5 99.5t95 111.5q-86 8 -159 19t-126.5 23t-83.5 24.5t-30 23.5q0 29 21 48.5t55 19.5z" />
    <glyph glyph-name="bracketleft" unicode="[" horiz-adv-x="1249" 
d="M219 -250q0 13 1 24.5t3 20.5q2 27 4.5 101.5t5 179t5.5 230.5t5.5 255t5 252.5t4 223.5t2.5 167t1 84q0 69 12 110.5t37 41.5q22 7 67.5 16t103.5 17.5t121 16.5t118 14.5t96.5 10t56.5 3.5q46 0 83 -15t63.5 -37.5t40.5 -49t14 -50.5q0 -25 -9.5 -35t-25.5 -10
q-8 0 -7.5 10t-1.5 22.5t-10.5 22.5t-33.5 10q-78 0 -159 -5.5t-159 -14.5t-149 -20t-129 -21q1 -20 2 -34.5t1 -32.5q0 -16 -1.5 -38.5t-5.5 -58.5q-2 -20 -5 -74.5t-6.5 -134t-7.5 -177.5t-8 -204.5t-7.5 -215t-7 -208.5t-6 -186t-3.5 -147q4 -17 18.5 -28.5t33 -18.5
t37.5 -10t34 -3q99 0 173 4t138 13t125.5 24t134.5 37q5 2 15 2q14 0 21 -9.5t7 -23.5q0 -16 -9 -33t-28 -26q-54 -26 -120.5 -53.5t-145 -50t-167.5 -36.5t-187 -14q-61 0 -98.5 13t-58 35.5t-27.5 52t-7 61.5z" />
    <glyph glyph-name="backslash" unicode="\" horiz-adv-x="1055" 
d="M35 1370q6 0 18 -14.5t28.5 -39.5t36 -58.5t40.5 -71.5q12 -21 41.5 -69.5t72 -116.5t95 -150.5t110.5 -171.5t119.5 -180.5t120.5 -177t114 -161t101 -132.5q28 -36 56.5 -70t51 -63t36.5 -51t14 -33q0 -8 -4 -17.5t-11.5 -17.5t-17 -13.5t-21.5 -5.5q-16 0 -42 24
t-56 59t-61 75.5t-56 73.5q-81 106 -168.5 233.5t-175 266t-173.5 283t-165 284.5q-29 50 -53 99t-41 89t-27 67t-10 33q0 27 27 27z" />
    <glyph glyph-name="bracketright" unicode="]" horiz-adv-x="1219" 
d="M239 1270q-15 0 -22.5 22t-7.5 48q0 20 4.5 37t13.5 20q22 7 67.5 16t103.5 17.5t121 16.5t118.5 14.5t97 10t56.5 3.5q50 0 87.5 -17t62.5 -40t37.5 -48t12.5 -41v-6q-5 -131 -8 -249t-5.5 -232t-3.5 -228t-1 -237q0 -64 -2 -135t-6 -144t-10.5 -143.5t-14.5 -132.5
q-10 -75 -28.5 -117t-48.5 -62.5t-73 -25t-102 -4.5q-48 0 -105.5 2.5t-113 6.5t-103.5 8.5t-77 9.5q-37 6 -60.5 13t-37 15t-18.5 17t-5 18q0 14 3.5 32t12 34.5t23.5 27.5t39 11q21 0 56.5 -2.5t79.5 -5.5t92.5 -7.5t95.5 -7.5t89.5 -5.5t73.5 -2.5q13 0 23 0.5t18 1.5
q27 4 44.5 41.5t27.5 104t14 159t4 207.5v241q0 94 0.5 200.5t1.5 213.5t3 209t5 188q-60 0 -129 -5.5t-138 -13.5t-133.5 -17.5t-115 -17.5t-82.5 -13.5t-37 -5.5z" />
    <glyph glyph-name="asciicircum" unicode="^" horiz-adv-x="860" 
d="M797 475q-25 0 -41 23t-31 86q-5 19 -24.5 59.5t-48 92.5t-62 109.5t-65 110t-57.5 94t-40 62.5q-14 20 -23.5 29t-17.5 9q-13 0 -21 -18.5t-18 -41.5q-5 -12 -18 -48.5t-30.5 -86t-37 -107t-38 -111.5t-34.5 -99.5t-26 -70.5q-29 -75 -58.5 -113t-66.5 -38
q-13 0 -22.5 14.5t-9.5 40.5q0 18 6 40.5t20 49.5q10 19 24.5 57t31 86t34.5 101.5t35 104.5t32.5 94.5t26.5 72.5q11 28 26 66t29 77t23.5 75.5t9.5 62.5q0 25 14 53t33 52t38.5 39.5t29.5 15.5q19 0 24 -31t5 -74q0 -21 3.5 -41t10.5 -40t17 -42.5t22 -48.5
q8 -17 30.5 -57t52.5 -92t64 -111t65 -114.5t56.5 -102t38.5 -74.5t19 -60.5t6 -62.5q0 -38 -9.5 -65t-27.5 -27z" />
    <glyph glyph-name="underscore" unicode="_" horiz-adv-x="1202" 
d="M102 -125q8 0 22.5 -0.5t32 -1.5t36 -1.5t35.5 -0.5q95 0 201 7t218 18t226.5 25.5t226.5 29.5q5 1 10 1.5t9 0.5q18 0 25.5 -7t7.5 -17q0 -14 -10 -28.5t-24 -21.5q-52 -25 -124 -45.5t-154 -36t-169 -26.5t-169.5 -18t-155 -10t-125.5 -3q-39 0 -72.5 10.5t-58 26
t-38.5 34t-14 34.5q0 14 12.5 22t38.5 8h13z" />
    <glyph glyph-name="grave" unicode="`" 
d="M198 1505q0 19 8.5 35t22.5 16q10 0 22 -9t28.5 -23.5t37.5 -33.5t48 -38q11 -8 47.5 -30.5t85 -52t103.5 -63t104.5 -63.5t86.5 -53.5t50 -32.5q30 -23 43.5 -47.5t13.5 -42.5q0 -23 -19 -23q-14 0 -31.5 9.5t-35.5 23.5q-8 6 -43 25t-84.5 46t-108 59t-114.5 63.5
t-103.5 60.5t-74.5 49q-26 19 -43 37t-27 34t-13.5 29.5t-3.5 24.5z" />
    <glyph glyph-name="a" unicode="a" horiz-adv-x="1311" 
d="M1012 1028q40 0 59 -14.5t19 -52.5q0 -10 -1.5 -17.5t-3.5 -13.5q7 2 14 2h15q37 0 55.5 -16t18.5 -42q0 -52 -30 -117.5t-83 -140.5q-1 -7 -1 -14v-15q0 -15 0.5 -30t0.5 -29q0 -28 4 -66.5t11 -82t16 -90t18.5 -89.5t18.5 -79.5t16 -61.5q5 -14 6.5 -28t1.5 -27
q0 -35 -13.5 -58.5t-39.5 -23.5q-13 0 -28.5 26.5t-32 71t-33 102t-30 118.5t-23 121.5t-13.5 111.5q-81 -87 -179 -168t-200 -143.5t-202 -100.5t-185 -38q-35 0 -60 12t-42 33t-25 48.5t-8 59.5q0 57 29 124t78.5 137.5t116.5 142t142.5 137t156.5 122.5t159 99t149.5 66
t127.5 24zM954 612q3 85 17.5 157t48.5 116q-6 1 -12 1.5t-12 0.5q-12 0 -24 -1.5t-26 -6.5q-79 -25 -167 -76t-174 -116t-164 -139t-137.5 -145t-94.5 -133.5t-35 -105.5q0 -37 39 -37q31 0 82 16t115 46.5t136 73.5t144 97t140 117.5t124 134.5z" />
    <glyph glyph-name="b" unicode="b" horiz-adv-x="1260" 
d="M236 1595q19 0 32.5 -20.5t22 -53.5t13 -73.5t7.5 -79.5q1 -24 2.5 -80t3 -133t3 -169t2.5 -189q73 36 161.5 71t183 63t189 45t178.5 17q56 0 94 -10t61.5 -31t33.5 -53.5t10 -77.5q0 -43 -25 -91t-67.5 -99.5t-100 -104.5t-122 -105.5t-133 -103t-134.5 -96.5
t-125.5 -86.5t-105.5 -73.5q-41 -29 -71 -56t-53.5 -47t-43 -32t-39.5 -12q-23 0 -31.5 21.5t-8.5 56.5q0 27 2.5 60.5t6.5 68.5q12 125 20 240.5t11 222.5l-47 -33q-2 -2 -7 -2q-8 0 -17 10t-16.5 24t-12.5 29t-5 26q0 34 111 103q1 40 1 78v74q0 96 -1.5 175t-4 140
t-4 101.5t-1.5 58.5q0 22 -1 44.5t-1 45.5q0 27 1.5 52t4.5 43.5t8.5 30t14.5 11.5zM303 137q66 43 154 103.5t182 128.5t185 139t163 135t116 116.5t44 84.5q0 20 -22 29.5t-54 9.5q-101 0 -204 -22t-201 -56t-186 -75.5t-158 -80.5q-1 -74 -2.5 -146.5t-3.5 -139.5
t-5 -125t-8 -101z" />
    <glyph glyph-name="c" unicode="c" horiz-adv-x="1090" 
d="M858 1026q44 14 70 14q25 0 40 -12.5t15 -35.5q0 -25 -20.5 -50t-53 -49.5t-73.5 -47.5t-82 -42t-78 -33t-62 -22q-40 -25 -86.5 -65.5t-94 -90t-91.5 -105t-77.5 -111t-54 -109t-20.5 -97.5q0 -15 5 -29.5t16.5 -26t29 -18t42.5 -6.5q64 0 132.5 17.5t137.5 48t137 71.5
t131 87t119.5 95.5t103.5 96.5q21 22 35 22q11 0 11 -16q0 -14 -10 -37t-31 -49q-40 -50 -91 -103t-111 -103.5t-128 -95.5t-143 -79t-156 -54t-166 -20q-102 0 -151.5 47.5t-49.5 147.5q0 86 38.5 177t102 178.5t146.5 168.5t172.5 147.5t179 115.5t166.5 73z" />
    <glyph glyph-name="d" unicode="d" horiz-adv-x="1378" 
d="M893 907q71 0 115.5 -11t70.5 -28q3 96 5 186t4 166.5t3 135.5t1 92q0 39 -2 64.5t-2 44.5q0 32 7.5 41.5t28.5 9.5q15 0 28.5 -14.5t24 -41t17 -64.5t6.5 -85q0 -26 -2 -74.5t-5 -113.5t-6.5 -144t-6.5 -166.5t-5 -180.5t-2 -185q0 -140 6 -268.5t21 -231.5q3 -18 3 -34
q0 -33 -9.5 -57.5t-24 -41t-31 -25t-30.5 -8.5q-17 0 -25.5 14t-13 43.5t-5 75t-0.5 108.5q0 43 0.5 107.5t2.5 140.5q-29 -25 -75.5 -63t-105.5 -81t-127.5 -86t-141.5 -77.5t-147 -56t-144 -21.5q-81 0 -134 17t-84 46.5t-43 69.5t-12 85q0 80 46.5 164t121 163t167.5 149
t186.5 122.5t177.5 83t141 30.5zM332 86q57 0 119 16t127 43.5t130 63.5t128 75.5t122 80t111 77.5q2 78 3.5 154.5t4.5 163.5q-21 11 -54 21t-81 10q-41 0 -95 -18t-114 -49.5t-123 -73t-122.5 -88t-112 -96.5t-91.5 -97t-62 -89.5t-23 -74.5q0 -56 29.5 -87.5t103.5 -31.5
z" />
    <glyph glyph-name="e" unicode="e" 
d="M889 958q52 0 89 -10.5t60 -29t34 -43.5t11 -54q0 -49 -44 -102t-115 -103t-159 -94.5t-176.5 -78t-167.5 -53t-132 -19.5q-29 0 -48.5 18t-25.5 41q-31 -70 -31 -135q0 -35 11.5 -66.5t37.5 -55t68.5 -37t104.5 -13.5q89 0 180 24t177.5 64t166 93t145.5 112
q25 22 37 22q10 0 10 -13q0 -11 -7.5 -29.5t-22.5 -37.5q-30 -38 -73 -81.5t-95 -86.5t-112.5 -82.5t-125.5 -70t-134 -48.5t-138 -18q-62 0 -126.5 15t-116.5 48.5t-85 88t-33 133.5q0 93 42 181t110.5 166t157 143t181.5 112.5t183 73.5t162 26zM252 494q90 19 179.5 46
t171 57.5t151.5 63t121.5 62.5t80.5 56.5t29 45.5q0 17 -20.5 32t-55.5 15q-44 0 -99.5 -13t-116.5 -37t-124 -58t-121.5 -76t-109 -91t-86.5 -103z" />
    <glyph glyph-name="f" unicode="f" horiz-adv-x="805" 
d="M90 831q15 1 31.5 2t42.5 2t64 2t96 3q5 157 22.5 279t44.5 213t61 153t71 100t75.5 55t75.5 17q34 0 63.5 -16.5t52 -40.5t35.5 -52t13 -51q0 -24 -5 -58t-16.5 -65.5t-29.5 -53.5t-44 -22q-16 0 -28 10.5t-12 29.5q0 11 4 22q8 23 13.5 55.5t5.5 62.5q0 32 -7.5 54
t-26.5 22q-28 0 -55.5 -12t-53.5 -42.5t-48.5 -82.5t-40.5 -131t-30 -188t-15 -254q73 3 122.5 7t82.5 8t53.5 6.5t36.5 2.5q59 0 59 -61q0 -23 -19 -40.5t-61 -30.5t-109.5 -21t-164.5 -13q0 -100 2 -197t4 -181.5t4 -152.5t2 -110q0 -26 -2.5 -49.5t-10.5 -41t-23.5 -28
t-41.5 -10.5q-21 0 -32.5 48.5t-17.5 129.5t-7.5 185t-1.5 215v188q-32 -2 -60.5 -3t-52.5 -1q-53 0 -89 4.5t-58 13.5t-31.5 23t-9.5 33q0 31 18 46t49 17z" />
    <glyph glyph-name="g" unicode="g" horiz-adv-x="1102" 
d="M682 979q25 0 43 -7.5t28.5 -19t15.5 -26t5 -29.5q13 0 23 -5.5t18 -18t15.5 -32.5t15.5 -48q7 -25 21 -69.5t28 -113.5t24.5 -165.5t10.5 -223.5q0 -90 -15.5 -192.5t-44.5 -203t-71 -192.5t-95 -162.5t-116.5 -112.5t-134.5 -42q-69 0 -130 22.5t-111 55t-87 69.5
t-57 66q-31 43 -31 81q0 18 10 30t27 12t33.5 -12.5t29.5 -32.5q18 -28 56.5 -59t85.5 -57.5t97 -44t91 -17.5q58 0 116.5 56.5t105 154t75.5 228t29 279.5q0 52 -3.5 110t-9 116.5t-12.5 115t-14 107.5q-24 -52 -62.5 -106.5t-85.5 -105.5t-99.5 -96t-105.5 -78.5
t-103.5 -53t-92.5 -19.5q-44 0 -73 13.5t-46.5 35.5t-25 50.5t-7.5 58.5q0 94 38.5 181t99 163t134 138.5t143.5 107.5t127.5 69.5t86.5 24.5zM223 240q37 0 88.5 25.5t107.5 68t111.5 99.5t99 119.5t70.5 127t27 123.5v45q-12 -4 -27.5 -8.5t-33.5 -10.5q-57 -19 -117 -52
t-116.5 -75t-107 -90.5t-88 -98.5t-59.5 -98t-22 -89q0 -47 16 -66.5t51 -19.5z" />
    <glyph glyph-name="h" unicode="h" horiz-adv-x="1188" 
d="M797 991q43 0 77 -14t58 -51t36.5 -100.5t12.5 -163.5v-147.5t-1.5 -150t-4 -139.5t-7 -116t-11.5 -79.5t-17 -29.5q-11 0 -23 3t-22.5 12t-17.5 26t-7 45q0 65 7.5 208.5t7.5 367.5q0 81 -29 115t-86 34q-51 0 -112 -20t-123 -53.5t-119.5 -76.5t-100.5 -88
q0 -69 0.5 -134.5t1 -123.5t1 -106.5t0.5 -84.5q0 -30 -0.5 -50.5t-0.5 -28.5q-3 -66 -25 -102t-43 -36q-20 0 -36.5 15t-16.5 56q0 10 2 30.5t4 65.5t4 123t2 204q0 105 -0.5 224t-1.5 237t-2.5 227.5t-2.5 195.5t-1.5 141t-0.5 65q0 43 9.5 69.5t39.5 26.5q31 0 44 -35.5
t13 -91.5q0 -9 0.5 -42.5t1 -85.5t1 -120t1.5 -145.5t2 -162t2 -169.5q44 48 101 94t121 82t131 58t131 22z" />
    <glyph glyph-name="i" unicode="i" horiz-adv-x="539" 
d="M256 950q13 0 29.5 -10.5t31.5 -26.5t25 -35.5t10 -37.5q0 -11 -4 -57.5t-9.5 -113.5t-9.5 -145.5t-4 -153.5q0 -97 1.5 -157.5t3 -96.5t3 -53.5t1.5 -26.5q0 -12 -2.5 -22t-10 -17t-22 -11t-37.5 -4q-21 0 -33.5 17t-20 47.5t-10 73.5t-2.5 94q0 163 2.5 298.5t9 233
t18.5 151t30 53.5zM293 1440q45 0 67.5 -29.5t22.5 -73.5q0 -57 -34.5 -90t-88.5 -33q-46 0 -70 27.5t-24 75.5q0 23 9 45t26 39.5t40 28t52 10.5z" />
    <glyph glyph-name="j" unicode="j" horiz-adv-x="588" 
d="M274 971q28 0 47 -43.5t31.5 -112.5t19.5 -154.5t10.5 -170.5t4 -160.5t0.5 -123.5q0 -65 -2 -138t-6 -148.5t-10 -149t-15 -137.5q-8 -62 -21 -101.5t-33 -62.5t-47.5 -31.5t-64.5 -8.5q-74 0 -140 13.5t-140 35.5q-37 10 -60.5 20.5t-37 20.5t-18.5 19.5t-5 19.5
q0 9 2.5 25t9.5 32t18 27.5t29 11.5q12 0 35.5 -4.5t54 -12t65 -15.5t68.5 -15.5t65 -12t54 -4.5q22 0 37.5 29t25.5 75.5t15.5 106t8.5 120t3.5 117t0.5 98.5q0 34 -3 89t-7 119.5t-9.5 133t-9.5 129t-7 107t-3 68.5q0 20 -0.5 41.5t-0.5 42.5t1 40.5t5 33.5t11 22.5
t18 8.5zM307 1440q45 0 67.5 -29.5t22.5 -73.5q0 -57 -34.5 -90t-88.5 -33q-46 0 -70 27.5t-24 75.5q0 23 9 45t26 39.5t40 28t52 10.5z" />
    <glyph glyph-name="k" unicode="k" horiz-adv-x="1001" 
d="M995 981q11 0 20 -7.5t9 -27.5q0 -21 -19 -45.5t-65 -56.5q-30 -21 -94.5 -50t-142 -62.5t-156.5 -69.5t-139 -70q11 -15 32 -43.5t51.5 -62t71.5 -68.5t90.5 -63.5t108.5 -47t127 -18.5q43 0 73 5t47 5q19 0 19 -14q0 -12 -13.5 -30.5t-37.5 -36.5t-57.5 -31t-73.5 -13
q-92 0 -164.5 23t-132.5 62.5t-111 91.5t-100 110q-8 9 -17 15t-18 11q4 -124 8.5 -210.5t8 -142.5t5.5 -85.5t2 -39.5q0 -61 -19.5 -88t-45.5 -27q-29 0 -38 28t-13 88q-1 14 -2 61t-2.5 119t-3 164t-2.5 195q-17 2 -27 7.5t-10 25.5q0 14 10 27t27 26q-2 103 -2.5 208
t-0.5 208q0 125 1.5 236t3.5 196q1 46 3 75.5t7 46.5t14 24t23 7q31 0 42.5 -36.5t11.5 -94.5q0 -114 -4.5 -234.5t-4.5 -243.5q0 -88 1 -173.5t3 -167.5q46 22 105.5 47.5t122.5 52t125 52t113 46.5t86.5 36t45.5 20q21 11 35.5 18.5t25 12.5t19 7.5t18.5 2.5z" />
    <glyph glyph-name="l" unicode="l" horiz-adv-x="543" 
d="M252 1642q19 0 30.5 -11t17.5 -28.5t8 -40t2 -45.5q0 -17 -0.5 -34t-0.5 -31q0 -11 1 -55.5t2.5 -113t3.5 -156.5t4.5 -186t5 -200.5t5 -200.5t4.5 -186.5t3.5 -157.5t2.5 -114t1 -57q0 -29 -12.5 -54.5t-29.5 -44.5t-34 -30t-26 -11t-15 10t-9 25.5t-4 35t-1 38.5
q0 13 -0.5 39.5t-1 62t-1.5 76.5t-1.5 82t-1 79.5t-0.5 69.5v80.5v135.5t0.5 171t0.5 187.5t0.5 184t0.5 160.5v117.5v55.5q0 18 0.5 43t5 48t13.5 39.5t26 16.5z" />
    <glyph glyph-name="m" unicode="m" horiz-adv-x="1692" 
d="M1276 969q23 0 55 -24.5t62 -70.5t53 -112t29 -148q3 -34 5.5 -95t5 -131.5t4 -141t1.5 -121.5t-3.5 -85.5t-11 -55.5t-19 -30t-27.5 -9q-17 0 -26.5 7.5t-14 21.5t-6 33.5t-1.5 43.5q0 16 -0.5 57t-0.5 94t-1 113.5t-1 115.5t-0.5 98.5t-0.5 64.5q0 57 -11.5 97
t-29.5 65.5t-39.5 37t-40.5 11.5q-17 0 -55 -19.5t-85 -53t-96 -79.5t-87 -100q2 -31 3 -49.5t1 -36.5q0 -133 -9 -235.5t-22.5 -172.5t-29.5 -106.5t-29 -36.5q-26 0 -36.5 28t-10.5 79q0 17 1 56.5t3 92.5t4 114.5t4 121t3 112.5t1 90q0 55 -11.5 97t-30.5 70.5t-45 42.5
t-54 14q-12 0 -37 -16t-57.5 -45t-69.5 -68.5t-73 -87t-68 -100.5t-54 -109q4 -51 5.5 -93t1.5 -65q0 -42 -5.5 -82.5t-15 -72.5t-23.5 -52t-32 -20q-13 0 -21 9.5t-12 26t-5.5 39.5t-1.5 49q0 17 0.5 35.5t0.5 38.5q0 25 -0.5 75t-2 112.5t-3.5 131.5t-5.5 132.5t-8.5 116
t-11 81.5q-13 64 -13 110q0 36 8 55.5t24 19.5q20 0 36.5 -18.5t29.5 -62.5t23 -117t17 -183q32 61 77.5 119.5t92 103.5t87.5 72.5t65 27.5q45 0 85.5 -19t75 -53.5t62.5 -82t47 -105.5q51 52 109 95t111.5 73.5t96.5 47t64 16.5z" />
    <glyph glyph-name="n" unicode="n" horiz-adv-x="1225" 
d="M289 995q12 0 22.5 -12.5t17.5 -34t11 -49t4 -57.5q0 -20 -1 -54t-1 -79q27 27 63 58t77.5 61.5t86 59t87.5 50t83 34.5t72 13q38 0 75 -22.5t66 -58.5t46.5 -82t17.5 -93v-111.5t0.5 -134.5t0.5 -139.5t0.5 -126.5t0.5 -96v-47q0 -60 -6.5 -94.5t-32.5 -34.5
q-18 0 -32.5 5t-25 21t-16.5 46t-6 79v82.5t-0.5 107t-0.5 118.5t-0.5 116.5t-0.5 101v72.5q0 82 -13 116t-44 34q-15 0 -51.5 -17t-84 -45t-102 -65.5t-105.5 -79t-94 -84t-67 -80.5q-2 -62 -2 -124.5v-121.5q0 -87 -5 -141t-15.5 -83.5t-26.5 -39.5t-39 -10q-27 0 -35 29
t-8 72q0 10 0.5 49t1 97.5t1.5 130.5t1.5 148t1 151t0.5 140q0 45 4.5 86t13.5 72t24 49t36 18z" />
    <glyph glyph-name="o" unicode="o" horiz-adv-x="1196" 
d="M897 965q60 0 106.5 -18.5t78.5 -50.5t48.5 -75t16.5 -92q0 -108 -44 -206.5t-116 -183t-163 -152.5t-185 -116t-183.5 -74t-156.5 -26q-62 0 -108.5 13t-77 41.5t-45.5 73t-15 108.5q0 95 37.5 188t101 177t148 156t178 124.5t191 82.5t188.5 30zM907 838
q-38 0 -74 -13.5t-69.5 -34.5t-64 -47.5t-58.5 -52.5q-20 -18 -42 -25t-46 -12t-48.5 -12t-49.5 -25q-59 -42 -110.5 -94.5t-89.5 -110t-59.5 -117t-21.5 -116.5t33 -89t90 -32q58 0 136 26.5t161 72t164.5 107.5t145.5 133t103.5 147.5t39.5 152.5q0 39 -11.5 66.5t-31 44
t-44.5 24t-53 7.5z" />
    <glyph glyph-name="p" unicode="p" horiz-adv-x="1464" 
d="M211 819q0 71 3 111t9 59.5t14.5 24t19.5 4.5q27 0 44.5 -14.5t27 -40.5t13.5 -62t4 -78q0 -39 -2 -77t-2 -87v-20q35 35 92.5 71t129.5 70t153.5 64.5t163.5 53t160 35.5t143 13q62 0 107 -14t74.5 -39.5t43.5 -62t14 -82.5q0 -56 -31.5 -115.5t-86 -119.5t-127 -118
t-154.5 -110t-168.5 -96t-169.5 -76t-157.5 -50t-131.5 -18q-14 0 -26 0.5t-23 3.5q1 -67 3.5 -117.5t4.5 -91t4 -73.5t2 -66q0 -54 -5 -106t-16 -93.5t-28 -66.5t-41 -25q-17 0 -27.5 10t-16.5 28t-8.5 43.5t-2.5 55.5q0 37 1.5 80t3 83t3 72.5t1.5 47.5q0 9 -3.5 53.5
t-7.5 113t-7.5 154t-3.5 177.5q0 60 1 124.5t2.5 128t2.5 124t1 114.5zM346 154q52 0 121 16.5t146.5 44.5t159 66t159 82t146 91.5t120 94.5t81.5 91.5t30 82.5q0 23 -10 40t-27 28.5t-39.5 17.5t-48.5 6q-45 0 -99 -8t-112.5 -22.5t-119 -33.5t-117.5 -41.5t-108.5 -47
t-92.5 -48.5q-23 -14 -36 -24t-19 -19t-7.5 -19.5t-1.5 -24.5q0 -18 -3.5 -32t-15 -23t-33 -14t-57.5 -5h-20z" />
    <glyph glyph-name="q" unicode="q" horiz-adv-x="1409" 
d="M1200 1032q25 0 38 -22t13 -88q0 -26 -7.5 -82t-17 -150t-17 -231.5t-7.5 -327.5q0 -98 4 -195t8.5 -180t8.5 -145.5t4 -90.5q0 -30 -11.5 -51.5t-28 -35.5t-34 -20.5t-29.5 -6.5q-11 0 -19 3.5t-13.5 18t-9 42t-5 76t-2 120.5t-0.5 174q0 103 1.5 225.5t10.5 256.5
q-42 -42 -98.5 -87t-123 -88.5t-140 -83t-148.5 -69t-149 -47t-141 -17.5q-70 0 -117.5 12t-76 34.5t-40.5 54t-12 71.5q0 46 28 100.5t78.5 114.5t120 122t151.5 123t173.5 118.5t187 107t191.5 89t186 65.5q9 42 20 66t23 24zM317 45q63 0 135.5 19t146.5 51t147 74.5
t138.5 89t120 94t91.5 90.5q6 85 14.5 166.5t17.5 152.5q-61 -19 -132.5 -49.5t-146.5 -69.5t-151 -84.5t-145.5 -94.5t-129.5 -99.5t-104.5 -99t-70 -93.5t-25.5 -83t21 -51t73 -13z" />
    <glyph glyph-name="r" unicode="r" horiz-adv-x="1237" 
d="M258 981q17 0 31 -25t24 -69.5t15.5 -106t5.5 -135.5q0 -18 -1 -33.5t-3 -29.5q30 44 77 91t104 92t121 85.5t129.5 70.5t128.5 48t118 18q49 0 87 -23.5t63.5 -64t38.5 -94.5t13 -115q0 -48 -7.5 -90.5t-21.5 -74.5t-33.5 -51t-43.5 -19q-17 0 -26 14.5t-9 36.5
q0 13 7 27t15.5 36t15.5 55.5t7 86.5q0 68 -30 106.5t-78 38.5q-44 0 -103.5 -18t-128 -54.5t-142.5 -92t-147 -130.5q-44 -45 -74.5 -89.5t-50.5 -94.5t-29 -108t-9 -130q0 -52 -9.5 -87.5t-25 -57t-36 -30.5t-42.5 -9q-18 0 -18 52q0 3 2 47.5t4.5 114.5t5.5 157t5.5 175
t4.5 169.5t2 140.5q0 48 1 81t5.5 52.5t13 28t23.5 8.5z" />
    <glyph glyph-name="s" unicode="s" horiz-adv-x="1108" 
d="M756 1008q18 0 32.5 -7.5t24.5 -18t15.5 -23t5.5 -21.5q0 -21 -10.5 -33t-45.5 -18q-50 -9 -109 -28.5t-119 -45t-117.5 -56.5t-105.5 -64.5t-82.5 -67t-47.5 -64.5q34 9 100 25t148.5 31.5t172 26.5t170.5 11q128 0 188 -44t60 -134q0 -60 -30 -114t-80.5 -102
t-116.5 -89.5t-138 -75.5t-145.5 -60t-138.5 -44t-116.5 -27.5t-80.5 -9.5q-24 0 -39 12t-23 28.5t-10.5 34.5t-2.5 31q0 26 16 31.5t47 5.5q64 0 146 17t166.5 46t165.5 68t144 83t101.5 90t38.5 90q0 41 -34.5 59t-123.5 18q-105 0 -204.5 -15.5t-184 -34.5t-150.5 -34.5
t-104 -15.5q-14 0 -26 4.5t-21 15t-14.5 28.5t-5.5 46q0 33 23 70t61.5 74.5t90 74.5t108 70.5t115.5 62t112.5 49t98.5 32.5t75 12z" />
    <glyph glyph-name="t" unicode="t" horiz-adv-x="791" 
d="M2 784q0 16 8 23.5t33 7.5t59.5 -4t77.5 -4q8 0 25 1.5t39.5 3t48 3.5t51.5 4q1 45 1.5 95.5t1 96.5t1 83.5t0.5 56.5q0 42 4 89.5t10.5 87t15 65.5t17.5 26t21.5 -10t23 -27t18 -41.5t7.5 -52.5q0 -29 -1.5 -86.5t-3.5 -124t-3.5 -131t-1.5 -106.5v-11q68 6 106.5 9
t60 5t32.5 2.5t24 0.5q49 0 76.5 -22.5t27.5 -47.5q0 -23 -18 -30.5t-64 -14.5q-9 -2 -31 -5t-54.5 -7.5t-73.5 -9.5t-88 -11q-2 -58 -4.5 -127.5t-5 -141t-5 -140.5t-4.5 -126t-3 -97.5t-1 -55.5q0 -55 -21 -78.5t-59 -23.5q-9 0 -15.5 15.5t-10.5 42.5t-5.5 63t-1.5 78
q0 84 3.5 154.5t8.5 137.5t9 136.5t6 150.5q-23 -2 -48.5 -5t-50 -5.5t-47 -4t-40.5 -1.5q-52 0 -82.5 15t-47 34.5t-21.5 38t-5 26.5z" />
    <glyph glyph-name="u" unicode="u" horiz-adv-x="1147" 
d="M252 924q29 0 51.5 -32t22.5 -95q0 -21 -1.5 -60.5t-4.5 -89t-5.5 -104t-5.5 -106t-4.5 -95.5t-1.5 -72q0 -41 7 -67.5t20.5 -41.5t33 -20.5t44.5 -5.5q29 0 68 3.5t80.5 10.5t83.5 17.5t78 23.5t64 29.5t41 36.5q7 10 11.5 35.5t7 61.5t3.5 80t1 92q0 54 -1 108.5
t-2 102.5t-2 86t-1 59q0 78 17 109.5t40 31.5q12 0 21 -10.5t15 -26.5t9.5 -35.5t3.5 -38.5q0 -12 -0.5 -53t-0.5 -99t-1 -127.5t-1 -140t-0.5 -136.5t-0.5 -115q0 -50 -33.5 -89.5t-86.5 -70t-119 -52.5t-130.5 -36t-121.5 -20.5t-91 -6.5q-51 0 -82 18.5t-47 47.5t-21 63
t-5 66v63.5t0.5 96t0.5 112.5t0.5 114t0.5 100.5v70.5q0 37 1.5 74.5t6.5 66.5t13.5 47.5t23.5 18.5z" />
    <glyph glyph-name="v" unicode="v" horiz-adv-x="883" 
d="M66 963q24 0 39.5 -23t31.5 -86q4 -19 24 -60t48.5 -92.5t62 -109t65 -110t57.5 -94.5t40 -62q14 -21 23.5 -29.5t17.5 -8.5q14 0 21.5 18.5t17.5 41.5q5 12 18 48t30 86t37 107.5t38.5 111.5t34.5 99t26 70q29 76 58.5 114t66.5 38q13 0 22.5 -14.5t9.5 -40.5
q0 -18 -6 -41t-20 -49q-10 -20 -24.5 -57.5t-31.5 -85.5t-34.5 -101.5t-34.5 -104.5t-32.5 -95t-26.5 -73q-11 -28 -26 -66t-29 -77t-23.5 -75.5t-9.5 -61.5q0 -26 -14 -54t-33 -51.5t-38.5 -39t-29.5 -15.5t-15.5 8t-8.5 22.5t-3.5 33.5t-0.5 41q0 21 -4 41t-11 40
t-17 42.5t-22 48.5q-8 17 -30.5 57t-52 92t-63.5 111t-65.5 114.5t-57 102t-38.5 74.5q-13 27 -19 59t-6 62q0 38 10 66t28 28z" />
    <glyph glyph-name="w" unicode="w" horiz-adv-x="1493" 
d="M80 952q14 0 24 -10.5t17.5 -27t14 -36.5t14.5 -40q5 -14 24 -54.5t44.5 -95t54 -115.5t54 -114.5t43.5 -92.5t23 -49q5 -12 9.5 -26.5t9 -28t8.5 -22.5t9 -9q6 0 13 21q5 15 19 48t33 76.5t41 93.5t44 98t41.5 90.5t34.5 70.5q21 42 36.5 73.5t31.5 52t34.5 30.5
t47.5 10q23 0 31.5 -10.5t8.5 -28.5q0 -27 -14 -67t-26 -82q-3 -12 -3 -25q0 -38 20.5 -87.5t48 -98.5t54.5 -90.5t40 -63.5q9 -17 17 -32.5t14.5 -28.5t12 -20.5t10.5 -7.5q9 0 19 28q6 16 25.5 58.5t47 98.5t59 121t61 126t54.5 112.5t38 81.5q29 66 57 90t48 24
q38 0 38 -49q0 -22 -8.5 -51.5t-27.5 -61.5q-8 -13 -24.5 -45t-38.5 -76.5t-48 -98t-52.5 -109.5t-52.5 -111t-47 -102.5t-36 -83.5t-21 -55q-12 -38 -15 -69.5t-9 -54.5t-20 -36t-46 -13t-48 12.5t-22.5 33.5t-8 48t-5.5 56q-4 28 -29 81t-59.5 116t-71 130t-63.5 124
q-8 -14 -24.5 -47t-37 -75.5t-42.5 -91.5t-42 -95t-34.5 -85.5t-20.5 -62.5q-9 -35 -18 -67t-22.5 -56t-33.5 -38.5t-51 -14.5t-45 23.5t-20 59.5t-8.5 79t-10.5 81q-6 26 -24.5 72t-44 102t-54.5 117t-56 117t-48 102t-31 72q-9 24 -13 46t-4 41q0 44 16 69.5t36 25.5z" />
    <glyph glyph-name="x" unicode="x" horiz-adv-x="920" 
d="M811 1010q7 5 13 5q15 0 28 -21.5t13 -50.5q0 -15 -5 -30t-16 -28q-26 -28 -61.5 -68t-78 -89.5t-90.5 -107t-98 -118.5q44 -54 87 -107t80.5 -100t67 -86.5t46.5 -65.5q12 -19 17 -36.5t5 -33.5q0 -21 -7 -38t-18 -30t-24.5 -20t-25.5 -7q-21 0 -31 18q-10 16 -37 55.5
t-65 94t-83.5 120t-93.5 133.5q-45 -57 -88.5 -115.5t-84 -114.5t-76.5 -109t-64 -101q-20 -33 -36 -33t-24.5 28.5t-8.5 66.5q0 27 4.5 54t13.5 50q6 15 31.5 51t65 86t90 111.5t105.5 126.5q-62 87 -108 151.5t-77 108.5t-46.5 70t-15.5 37q0 17 12.5 26t30.5 9
q20 0 42 -11.5t36 -34.5q7 -12 25.5 -37t45.5 -59.5t61 -77t72 -88.5q64 75 125.5 145.5t112 127t86 95t47.5 48.5z" />
    <glyph glyph-name="y" unicode="y" horiz-adv-x="995" 
d="M463 82q-14 13 -38 46t-55 79.5t-66.5 101.5t-71 112.5t-69 113t-60 101.5t-45 79t-23.5 45q-10 23 -10 44q0 33 18 54t37 21q12 0 26.5 -9.5t29.5 -26t29 -37.5t25 -44q28 -57 74 -130.5t96 -147.5t96.5 -140t75.5 -108q34 77 68 153.5t65 147.5t58.5 133t49 110
t36 79.5t20.5 41.5q31 57 57 74.5t46 17.5q36 0 36 -31q0 -20 -14 -53t-39 -78q-10 -17 -36 -71t-63 -132.5t-82 -174.5t-92 -197t-92.5 -201t-84 -185t-67.5 -149.5t-42 -95.5q-26 -62 -53.5 -99t-55 -57.5t-55 -27t-53.5 -6.5q-52 0 -110.5 36t-112.5 101q-24 28 -24 50
q0 20 18 29.5t41 9.5q14 0 29 -3t26 -10q48 -27 86.5 -49.5t72.5 -22.5q17 0 32 8t32 29t37.5 57.5t48 92.5t63.5 134.5t85 184.5z" />
    <glyph glyph-name="z" unicode="z" horiz-adv-x="1161" 
d="M119 494q17 0 32 -3.5t34 -7t46 -7t68 -3.5q19 0 58 0.5t85 3.5q48 51 94.5 101t88.5 94.5t77 81.5t60 61q-39 -9 -96 -19t-117.5 -18.5t-117 -14t-95.5 -5.5q-49 0 -79.5 8.5t-47.5 21.5t-23 28.5t-6 29.5q0 28 21.5 41.5t50.5 13.5q15 0 28 -4.5t26 -10t27.5 -10
t31.5 -4.5q64 0 131 9t131 22t123 28.5t108 28.5t85 22t54 9q25 0 38.5 -12t13.5 -43q0 -17 -24 -38.5t-59 -46t-74 -50t-69 -49.5q-15 -12 -41.5 -38t-61 -62t-75.5 -79.5t-84 -89.5q5 0 8.5 1t8.5 1q83 6 148 11t118 8t98.5 4.5t89.5 1.5q23 0 31 -6.5t8 -14.5
q0 -7 -7.5 -13t-17 -10.5t-19.5 -8t-15 -4.5q-14 -4 -48 -12.5t-96.5 -18t-158 -18.5t-232.5 -13q-42 -45 -80.5 -88t-70 -79t-54 -63t-32.5 -40q16 4 40 6t52 3t56.5 1h53.5t67.5 -2t94.5 -5t109 -5t112 -2q69 0 114 19t73.5 42.5t44 42.5t24.5 19t14.5 -6.5t8.5 -17
t3.5 -22.5t0.5 -24q0 -34 -24 -65t-71.5 -55t-118.5 -38t-165 -14q-38 0 -83 6.5t-91 15t-91 15t-83 6.5q-48 0 -91 -12t-78.5 -26t-64 -26t-47.5 -12q-38 0 -55.5 17t-17.5 38q0 22 20 43t55 52q7 6 30.5 30.5t58.5 61.5t79 84t92 98h-116q-38 0 -66 6.5t-47 17t-28 23.5
t-9 25t5 22.5t18 10.5z" />
    <glyph glyph-name="braceleft" unicode="{" horiz-adv-x="1094" 
d="M862 1565q34 9 72 9q41 0 70.5 -9.5t29.5 -21.5q0 -15 -41 -25q-36 -9 -82.5 -27t-95 -43t-94.5 -55t-82 -64t-58 -70.5t-22 -72.5q0 -32 20.5 -62.5t45 -64.5t45 -75.5t20.5 -95.5q0 -47 -21.5 -89t-61.5 -80.5t-97 -74.5t-127 -71q10 1 19.5 1.5t19.5 0.5
q43 0 83.5 -10.5t71 -30t49 -47.5t18.5 -62q0 -28 -14 -60t-46 -66q-39 -42 -83.5 -96t-82 -112.5t-62 -118t-24.5 -112.5q0 -32 11.5 -59.5t38 -48t69.5 -32.5t105 -12q78 0 172 26t194 90q25 16 46 16q12 0 19.5 -6t7.5 -17q0 -17 -20.5 -44.5t-71.5 -65.5
q-37 -27 -84 -49.5t-99.5 -38.5t-108.5 -25t-110 -9q-62 0 -120 13.5t-102.5 42t-71 72.5t-26.5 105q0 59 26 122.5t66.5 127t91 126t100.5 119.5q36 40 36 73t-40.5 51.5t-120.5 18.5q-29 0 -58.5 -2t-49.5 -5q-21 -3 -27.5 -3.5t-10.5 -0.5q-31 0 -48 15t-17 38
q0 26 25 55t79 51q86 34 145.5 64.5t97 59t54 56t16.5 56.5q0 42 -22.5 76.5t-50 70.5t-50 77.5t-22.5 97.5q0 63 33.5 123t94 112.5t145.5 95.5t188 72z" />
    <glyph glyph-name="bar" unicode="|" horiz-adv-x="530" 
d="M268 1636q31 0 43 -37t12 -95q0 -106 -4.5 -231.5t-4.5 -262.5q0 -140 2 -284.5t5 -281t6.5 -259.5t6.5 -219.5t6 -160.5t4 -84q1 -8 1 -15v-15q0 -61 -19 -88t-45 -27q-29 0 -38.5 28.5t-13.5 88.5q-1 15 -2.5 82.5t-2.5 171t-2.5 235.5t-2.5 276t-1.5 291.5t-0.5 283.5
q0 139 2 255.5t2 194.5q0 34 0.5 62.5t5 48.5t14 31t27.5 11z" />
    <glyph glyph-name="braceright" unicode="}" horiz-adv-x="1118" 
d="M248 1411q75 29 144.5 43t130.5 14q60 0 109.5 -13t85.5 -37t55.5 -59.5t19.5 -80.5q0 -46 -22.5 -101t-70.5 -118q-24 -32 -38.5 -57t-14.5 -46q0 -18 14.5 -33t47 -26.5t85.5 -20t130 -14.5q49 -4 71 -19t22 -35q0 -23 -26 -47.5t-71 -37.5q-73 -21 -131 -42t-98 -43.5
t-61.5 -47.5t-21.5 -55q0 -62 94 -144q77 -68 120.5 -147t43.5 -170q0 -70 -22 -132t-60 -114.5t-89 -93.5t-110 -70t-123 -44.5t-127 -15.5q-45 0 -87.5 7t-83.5 22q-26 10 -44.5 24t-30 30t-17 33t-5.5 32q0 21 9.5 35t25.5 14q8 0 13 -2q65 -23 123 -32.5t110 -9.5
q70 0 128 15t104 40t80 57.5t56.5 67.5t33.5 70.5t11 65.5q0 39 -13 76t-34.5 70.5t-50.5 64t-61 56.5q-81 66 -116 119.5t-35 98.5q0 43 27.5 77.5t72 62t101.5 49.5t116 39q-56 5 -105 16t-86.5 29.5t-59 45.5t-21.5 65q0 35 21.5 80.5t72.5 103.5q36 42 52 77t16 64
q0 51 -46 79t-120 28q-61 0 -134.5 -20t-150.5 -62q-24 -14 -41 -14q-21 0 -21 22q0 11 7 26t20 31t32 30t44 24z" />
    <glyph glyph-name="asciitilde" unicode="~" horiz-adv-x="1253" 
d="M109 563q46 70 93.5 128t95.5 100t95 65t91 23q49 0 92.5 -31.5t78.5 -102.5t97 -71q32 0 70.5 18t83 50.5t96 78.5t108.5 103q25 25 43.5 36t30.5 11q16 0 16 -21q0 -18 -15 -50.5t-48 -74.5q-123 -155 -228.5 -231t-186.5 -76q-90 0 -142 90q-38 64 -68.5 96.5
t-62.5 32.5q-22 0 -47.5 -15t-57 -45t-71 -75t-89.5 -106q-21 -26 -41 -38t-36 -12q-14 0 -22 9t-8 26q0 14 7.5 35t24.5 47z" />
    <glyph glyph-name="uni00A0" unicode="&#xa0;" horiz-adv-x="922" 
 />
    <glyph glyph-name="exclamdown" unicode="&#xa1;" horiz-adv-x="799" 
d="M465 469q1 -12 1 -29v-37q0 -52 -1.5 -124t-4.5 -151.5t-7.5 -159t-10.5 -146.5t-13.5 -115t-16.5 -63q-8 -14 -19 -28.5t-23.5 -26.5t-25.5 -19.5t-25 -7.5q-10 0 -18 8t-14 26.5t-9 49t-3 75.5q0 49 3.5 112.5t9.5 131.5t12.5 136.5t12.5 128t10.5 105t6.5 68.5
q5 85 16 135t27 50q37 0 63.5 -30t28.5 -89zM494 983q21 0 41 -19t20 -65q0 -32 -20.5 -67t-49.5 -65t-62 -49.5t-58 -19.5q-29 0 -52.5 21t-23.5 53q0 33 11.5 72t45.5 69q15 13 22.5 16.5t14.5 4.5t15.5 3t23.5 13q17 12 32.5 22.5t39.5 10.5z" />
    <glyph glyph-name="cent" unicode="&#xa2;" horiz-adv-x="1090" 
d="M528 1376q9 0 21.5 -10t23 -27t18 -41.5t7.5 -52.5q0 -31 -2 -83.5t-4 -112.5q45 29 92.5 55.5t92 46.5t83.5 32t68 12q24 0 39.5 -12t15.5 -35q0 -25 -20.5 -50t-53 -50t-73.5 -47.5t-82 -41.5t-78 -33.5t-62 -22.5l-24 -16v-39q0 -24 -1.5 -78.5t-4 -127t-5.5 -156
t-6 -164.5q66 30 131 70t125.5 85t115 92.5t99.5 92.5q22 22 35 22q11 0 11 -16q0 -14 -10 -37t-31 -49q-41 -51 -92.5 -104.5t-112.5 -104t-130 -95.5t-145 -79q-3 -88 -4.5 -150.5t-1.5 -81.5q0 -55 -20.5 -78.5t-59.5 -23.5q-9 0 -15.5 15t-10.5 41.5t-6 62.5t-2 78
q0 23 0.5 46.5t1.5 47.5q-48 -14 -97 -21.5t-100 -7.5q-102 0 -151.5 47t-49.5 148q0 82 35 168.5t94 170.5t136.5 162.5t162.5 145.5v139q0 42 4 89.5t10.5 87t15 65.5t17.5 26zM283 246q42 0 85.5 7t88.5 21q1 42 4.5 80t5.5 70q3 34 4.5 77.5t3 91.5t2.5 99.5t2 102.5
q-53 -51 -104.5 -112t-92.5 -123.5t-66.5 -123t-25.5 -110.5q0 -15 5 -29.5t16.5 -26t29 -18t42.5 -6.5z" />
    <glyph glyph-name="sterling" unicode="&#xa3;" horiz-adv-x="1438" 
d="M999 -49q-89 0 -170 25t-156 55t-146 55t-138 25q-33 0 -62 -20t-55.5 -50t-51 -64.5t-49 -64.5t-50 -50t-53.5 -20q-26 0 -42 16.5t-16 59.5q0 34 26 69t61.5 68.5t73 63.5t60.5 55q22 24 48 47t50 58.5t43.5 89t30.5 139.5q-61 8 -112.5 19t-88.5 23t-58 24t-21 22
q0 29 15.5 48.5t41.5 19.5q16 0 75.5 -12t156.5 -23q2 15 2 32v35q0 165 31.5 297t81 224.5t109.5 142t118 49.5q34 0 63.5 -16.5t52 -40.5t35.5 -52t13 -51t-5 -56.5t-16.5 -65t-29.5 -54t-44 -22.5q-17 0 -29 10t-12 30q0 10 3.5 26t8 35t8.5 39.5t4 40.5q0 31 -7.5 53
t-26.5 22q-44 0 -86 -36.5t-74.5 -109.5t-52.5 -182t-20 -254v-55.5t-2 -51.5q26 -2 53.5 -2h56.5q144 0 243 15t162 32.5t95 32.5t43 15q23 0 30 -12t7 -46q0 -17 -48 -44t-127.5 -53t-182 -45t-212.5 -19q-34 0 -67.5 1t-65.5 3q-14 -94 -37.5 -155.5t-52.5 -98.5
q36 -2 78.5 -14.5t89 -30.5t96.5 -37.5t102.5 -36.5t106.5 -28t109 -11q45 0 87.5 3t84 12t83 24t83.5 39q27 15 42 15q18 0 18 -17q0 -12 -11.5 -30.5t-36.5 -39.5q-58 -49 -105.5 -76.5t-91 -41.5t-84.5 -17.5t-86 -3.5z" />
    <glyph glyph-name="currency" unicode="&#xa4;" horiz-adv-x="1196" 
d="M211 954q-23 30 -23 52q0 17 12.5 26t30.5 9q20 0 42 -11.5t36 -34.5q10 -17 43 -60.5t82 -103.5q49 36 102 65.5t107.5 50.5t108 32.5t104.5 11.5q9 0 17.5 -1t17.5 -1q64 74 96.5 106t41.5 32q15 0 28 -21.5t13 -49.5q0 -14 -4.5 -30t-16.5 -29l-50 -53
q34 -28 52 -67.5t18 -85.5q0 -66 -19.5 -126.5t-53.5 -116t-79.5 -105t-97.5 -91.5q36 -44 62 -78t43.5 -60.5t25.5 -47.5t8 -40q0 -21 -7 -38t-18 -30t-24.5 -20t-25.5 -7q-9 0 -17.5 4.5t-13.5 13.5q-6 10 -20 30.5t-33.5 49t-45 64t-53.5 75.5q-48 -28 -96 -50t-94 -37
t-87 -23t-75 -8h-4q-46 -62 -84 -116.5t-65 -101.5q-19 -33 -36 -33q-16 0 -24.5 29t-8.5 68q0 26 4.5 52.5t12.5 49.5q4 10 19.5 33t40.5 55q-31 23 -46.5 62.5t-15.5 99.5q0 55 15.5 110t43 107.5t66 101.5t84.5 93q-49 71 -86.5 122.5t-52.5 71.5zM956 752q0 32 -10 54
t-28 36q-8 -13 -25 -19t-37 -6q-26 0 -44.5 9.5t-23.5 25.5q-42 -14 -80 -44.5t-71 -59.5q-12 -11 -25 -16.5t-26.5 -9t-27.5 -6.5t-28 -7v-4q0 -28 -21 -48t-52 -20q-8 0 -14.5 0.5t-12.5 3.5q-35 -33 -64.5 -70t-50.5 -75.5t-33 -77t-12 -74.5q0 -23 6.5 -40t18.5 -30
q8 13 21 21t30 8q23 0 40.5 -14.5t21.5 -36.5q54 9 120.5 38t135.5 72q0 35 17.5 57.5t43.5 22.5q8 0 16.5 -2.5t14.5 -7.5q42 34 78.5 73t63.5 80t42.5 83t15.5 84z" />
    <glyph glyph-name="yen" unicode="&#xa5;" horiz-adv-x="1384" 
d="M971 240q-42 -13 -107 -28.5t-139 -31.5q-2 -71 -2 -130v-91q0 -54 -12.5 -97t-30.5 -73t-37.5 -45.5t-34.5 -15.5q-36 0 -36 64q0 38 14 102q6 29 9.5 99.5t6.5 160.5q-108 -22 -190.5 -32t-122.5 -10q-55 0 -85 15t-30 51q0 16 5 27.5t20.5 20.5t45 16.5t77.5 15.5
t117.5 17t166.5 22q2 60 2 117.5v109.5q-34 -7 -75.5 -16.5t-85 -18.5t-86.5 -18t-79.5 -16t-64 -11t-39.5 -4q-23 0 -36 6t-19.5 16t-8 21.5t-1.5 22.5q0 22 11.5 35.5t49.5 25.5q15 5 58 15t103 23.5t131.5 28.5t143.5 30v43q-61 14 -127.5 49.5t-131 84t-123 106
t-103 115t-70.5 111t-26 95.5q0 24 11 33.5t34 9.5q29 0 47.5 -19t38.5 -47q45 -63 89 -116t92.5 -99t104 -86t123.5 -76q23 -12 43.5 -17t39.5 -5q41 0 73 17.5t55 33.5q61 42 114.5 88t98 90.5t81 83.5t65.5 66q34 32 61.5 60.5t49.5 50t39.5 34t31.5 12.5q12 0 23.5 -8
t11.5 -39q0 -10 -19.5 -37t-50 -62.5t-68 -76.5t-74 -80t-68.5 -71.5t-50 -51.5q-19 -20 -52.5 -53.5t-73.5 -69.5t-83 -68t-82 -50v-29q105 17 185.5 25t142.5 8q37 0 61 -3.5t38 -9.5t19 -15t5 -19q0 -14 -12.5 -21.5t-29.5 -11.5t-34.5 -6t-28.5 -4q-105 -17 -195.5 -39
t-152.5 -37l-6 -238q85 13 160 27.5t125 28.5l149 43q7 2 13 3t12 1q10 0 18.5 -6t8.5 -21q0 -18 -21.5 -39t-56 -42t-78 -39.5t-86.5 -30.5z" />
    <glyph glyph-name="brokenbar" unicode="&#xa6;" horiz-adv-x="530" 
d="M268 549q18 0 28.5 -12.5t16 -35t7.5 -53t2 -65.5q0 -32 1 -86.5t3 -119.5t4.5 -134.5t5 -132.5t4.5 -113t4 -76q1 -8 1 -15v-15q0 -61 -19 -88t-45 -27q-29 0 -38.5 28.5t-13.5 88.5q-1 20 -2 69t-2 114t-2 140t-1.5 146t-0.5 132.5v100.5q0 34 0.5 62.5t5 49t14 31.5
t27.5 11zM274 1657q13 0 25.5 -10.5t22 -26.5t15 -36t5.5 -38q0 -9 -4 -43.5t-9.5 -86.5t-9.5 -117.5t-4 -137.5q0 -39 1 -90t2.5 -98t2.5 -84t1 -47q0 -44 -8 -73.5t-33 -29.5q-21 0 -34 24t-20.5 63t-10 88t-2.5 99q0 151 3.5 270.5t10.5 202.5t18.5 127t27.5 44z" />
    <glyph glyph-name="section" unicode="&#xa7;" horiz-adv-x="979" 
d="M733 1315q18 0 32.5 -7.5t24.5 -18t15.5 -23t5.5 -21.5q0 -20 -10 -32.5t-45 -18.5q-75 -14 -152 -43.5t-143 -68.5t-115.5 -85t-69.5 -92q34 9 80 17t96.5 14t101 9t93.5 3q128 0 188 -44t60 -134q0 -42 -22.5 -85.5t-53.5 -78.5q38 -21 57 -57.5t19 -85.5
q0 -80 -37 -154t-95.5 -139t-129.5 -118t-139.5 -91t-125.5 -59t-87 -21q-25 0 -40 11.5t-23 26.5t-10.5 29.5t-2.5 20.5q0 28 16 38.5t47 17.5q68 15 133.5 42.5t124.5 63t109 78t86.5 87.5t57 91t20.5 90q0 25 -12.5 41.5t-41.5 24.5q-28 -17 -51 -17q-18 0 -28.5 8.5
t-12.5 20.5h-12q-72 0 -149 -13.5t-147.5 -29.5t-130.5 -29.5t-97 -13.5q-28 0 -39.5 18.5t-11.5 55.5q0 36 26 75t67.5 76.5t93.5 71.5t105 61q-40 -6 -75.5 -10t-63.5 -4t-47.5 19.5t-19.5 74.5q0 44 32 92t83.5 93t116 85.5t129 71t122.5 48.5t98 18zM621 862q2 -4 2 -10
q0 -20 -10.5 -33t-45.5 -18q-69 -11 -133.5 -37.5t-117 -60.5t-90 -71.5t-52.5 -70.5q34 9 95.5 23t131 26.5t136 21.5t110.5 9q42 0 80 -6q42 34 57 65t15 60q0 30 -8 49.5t-26.5 31.5t-48.5 16.5t-75 4.5h-20z" />
    <glyph glyph-name="dieresis" unicode="&#xa8;" 
d="M344 1358q31 0 46.5 -20.5t15.5 -49.5q0 -38 -23.5 -61t-60.5 -23q-31 0 -47.5 19t-16.5 51q0 16 6.5 31t17.5 27t27 19t35 7zM768 1427q31 0 46 -20t15 -49q0 -38 -23 -61t-61 -23q-30 0 -46.5 18.5t-16.5 50.5q0 16 6.5 31t17.5 27t27 19t35 7z" />
    <glyph glyph-name="copyright" unicode="&#xa9;" horiz-adv-x="1526" 
d="M1176 1346q37 0 63.5 -8.5t26.5 -37.5q0 -13 -5.5 -24t-5.5 -19q0 -10 13 -14q30 -12 67.5 -36.5t71 -63.5t56 -93t22.5 -124q0 -109 -47.5 -227.5t-129 -232.5t-190.5 -217t-232.5 -180.5t-255 -123t-257.5 -45.5q-64 0 -123 16t-104.5 53t-73 98.5t-27.5 153.5
q0 79 25 169t79 188t139.5 202.5t207.5 212.5q105 94 208 160.5t193.5 109.5t163 63t115.5 20zM1128 1200q-25 0 -70.5 -9t-95 -26.5t-96.5 -44t-75 -61.5q-12 -15 -26 -28.5t-29 -24t-29.5 -17t-26.5 -6.5q-6 0 -12 2t-12 2q-22 -1 -46.5 -16t-56.5 -45
q-97 -94 -173.5 -187.5t-129.5 -183t-81 -173t-28 -157.5q0 -111 53 -173t164 -62q73 0 156 22.5t169.5 63t172 97.5t164 125t146 145.5t117 160t78 167.5t28.5 169q0 54 -16 101.5t-48.5 83t-81.5 55.5t-115 20zM942 1008q17 5 34 7.5t31 2.5q29 0 45 -9t16 -29
q0 -19 -16.5 -39t-42.5 -39.5t-58.5 -38t-65.5 -34t-63 -27t-50 -18.5q-32 -20 -70 -52.5t-76 -72.5t-73.5 -84.5t-62.5 -89t-43.5 -87.5t-16.5 -79q0 -24 18 -43.5t56 -19.5q78 0 162 31t165.5 79t155 107.5t129.5 116.5q17 17 28 17q9 0 9 -13q0 -11 -8 -29.5t-25 -40.5
q-32 -40 -73.5 -83.5t-91 -86t-105.5 -80.5t-117.5 -67.5t-127.5 -46.5t-134 -17q-82 0 -124 48t-42 128q0 70 30 142.5t80.5 142.5t116 134.5t136 118t141.5 92.5t133 59z" />
    <glyph glyph-name="ordfeminine" unicode="&#xaa;" horiz-adv-x="909" 
d="M686 1274q31 0 46.5 -11.5t15.5 -45.5v-7h4q59 0 59 -49q0 -37 -20 -79.5t-52 -90.5v-51q0 -32 9 -83.5t20.5 -103.5t20.5 -94t9 -54q0 -28 -11.5 -48t-34.5 -20q-14 0 -31.5 33.5t-34 83.5t-30 109.5t-19.5 110.5q-52 -54 -113.5 -103.5t-125 -87t-126 -59.5t-116.5 -22
q-51 0 -75 33t-24 78q0 50 33 111.5t86 124t121 121t137.5 104t135.5 73t116 27.5zM84 432q5 0 9.5 -3t14 -7t28 -7t52.5 -3q13 0 46.5 3t73 7t76.5 8.5t58 7.5q64 9 114 17t91 14t76 10t70 4q17 0 22.5 -7.5t5.5 -18.5q0 -20 -15 -41t-61 -37q-25 -8 -76.5 -23t-125 -30
t-165 -26t-196.5 -11q-116 0 -116 65q0 9 1 22t3 25.5t5.5 21.5t8.5 9zM172 694q28 0 84.5 22.5t123 62.5t134.5 95.5t121 122.5q2 47 8.5 88t22.5 70l-19 -4q-50 -16 -105.5 -48t-110 -72.5t-103.5 -86.5t-86.5 -90.5t-59.5 -83.5t-22 -65q0 -11 12 -11z" />
    <glyph glyph-name="guillemotleft" unicode="&#xab;" horiz-adv-x="1221" 
d="M702 911q25 -2 25 -30q0 -11 -7.5 -24t-19.5 -27t-27 -28.5t-30 -27.5q-107 -93 -214 -167t-216 -136q14 -15 40 -39.5t59.5 -53t71.5 -59t75.5 -58t71.5 -50t59 -35.5q12 -6 26 -10.5t26.5 -9t21 -10.5t8.5 -15q0 -12 -11.5 -21.5t-27.5 -16.5t-33 -11t-29 -4
q-33 0 -61 7t-56 22.5t-59 39.5t-70.5 57.5t-90.5 77t-119 97.5q-31 25 -44.5 42t-13.5 42q0 31 17.5 49t48.5 37q66 40 124.5 76.5t114.5 72.5t112 73t118 77q27 18 44.5 30t29.5 19.5t20 10.5t16 3zM1137 895q11 0 17.5 -7.5t6.5 -23.5q0 -11 -7.5 -23.5t-19.5 -26.5
t-27 -28.5t-30 -27.5q-53 -46 -103.5 -81t-101 -65t-101.5 -57.5t-105 -58.5q14 -14 41.5 -35t63 -45t76 -48.5t81 -44t77 -32t64.5 -12.5q17 0 31.5 3t25.5 3q15 0 15 -13q0 -17 -12.5 -35.5t-31.5 -33.5t-42.5 -25t-44.5 -10q-50 0 -92.5 16.5t-92 46t-114 71.5t-158.5 93
q-34 18 -45.5 38.5t-11.5 45.5q0 31 17 49t48 37q66 40 124.5 72.5t114 63t111 61.5t115.5 69q27 17 44.5 29.5t29.5 20t20.5 11t16.5 3.5z" />
    <glyph glyph-name="logicalnot" unicode="&#xac;" horiz-adv-x="1262" 
d="M1022 754q-12 4 -41 4q-30 0 -71.5 -4.5t-84 -10.5t-80.5 -12.5t-61 -11.5q-19 -4 -55 -12t-80 -17.5t-92 -19.5t-91 -18.5t-76 -13.5t-48 -5q-23 0 -36.5 6t-20 16t-8 21t-1.5 22t0.5 20t4.5 16t12.5 10.5t23.5 3.5t54 9.5t94.5 24t124 31t143.5 31.5q72 14 124.5 22
t94 11.5t76.5 4.5t73 1t62 -4.5t37.5 -13.5t18.5 -21.5t5 -28.5v-114t-1.5 -128t-4 -126t-7 -108.5t-11.5 -76.5t-17 -29q-11 0 -23 3t-22 12.5t-17 26.5t-7 44q0 33 1 63t2.5 75.5t3 115.5t1.5 181z" />
    <glyph glyph-name="uni00AD" unicode="&#xad;" horiz-adv-x="950" 
d="M125 483q5 0 9.5 -3t14 -7t28 -7t52.5 -3q13 0 46.5 3t73 7t76.5 8.5t58 7.5q64 9 114 17t91 14.5t76 10.5t70 4q17 0 22.5 -8t5.5 -19q0 -19 -15 -40.5t-61 -37.5q-24 -8 -76 -23t-125.5 -30t-165 -26t-196.5 -11q-117 0 -117 66q0 8 1 21t3 25.5t6 21.5t9 9z" />
    <glyph glyph-name="registered" unicode="&#xae;" horiz-adv-x="1526" 
d="M1176 1346q37 0 63.5 -8.5t26.5 -37.5q0 -13 -5.5 -24t-5.5 -19q0 -9 13 -14q30 -12 68 -36.5t71 -63.5t55.5 -93t22.5 -124q0 -61 -15 -124.5t-43 -128t-67.5 -129t-87.5 -126.5q15 4 31 11t32 13t29.5 10.5t23.5 4.5q19 0 19 -17q0 -21 -19 -40t-52 -37t-76 -34
t-91 -30q-83 -85 -179.5 -158t-199.5 -126.5t-209 -84t-208 -30.5q-64 0 -123 16t-104.5 53t-73 98.5t-27.5 153.5q0 79 25 169t79 188t139.5 202.5t207.5 212.5q105 94 208 160.5t193.5 109.5t163 63t115.5 20zM836 930q56 0 107.5 -12t90.5 -35.5t62.5 -58.5t23.5 -81
q0 -14 -3.5 -26.5t-12.5 -24.5t-24 -25t-38 -28q-27 -18 -80 -39t-117.5 -42.5t-133 -41.5t-125.5 -35q2 -14 2 -27.5v-27.5q58 -34 144.5 -56t215.5 -22q35 0 70.5 4.5t73.5 12.5q64 64 118.5 134t94.5 143.5t62 148.5t22 149q0 54 -16 101.5t-48.5 83t-81.5 55.5t-115 20
q-25 0 -70.5 -9t-95 -26.5t-96.5 -44t-75 -61.5q-12 -15 -26 -28.5t-29 -24t-29.5 -17t-26.5 -6.5q-6 0 -12 2t-12 2q-23 0 -56.5 -21t-69.5 -63q4 -8 8 -18t7 -23q21 11 52.5 23t70 22t81.5 16.5t87 6.5zM481 389q-41 43 -56 65.5t-15 39.5q0 7 7.5 14.5t18.5 14t23 11.5
t20 7v309q-80 -84 -142.5 -167.5t-106 -163t-66.5 -154t-23 -140.5q0 -111 53 -173t164 -62q68 0 144.5 19.5t156.5 55t160.5 85t155.5 110.5q-19 -3 -37 -3.5t-35 -0.5q-88 0 -167.5 13.5t-145.5 45.5v-165q0 -13 -7 -28t-17.5 -27.5t-23 -20.5t-22.5 -8q-9 0 -16 21.5
t-12.5 52.5t-8 66t-2.5 62v121zM565 737q6 -46 10 -87.5t7 -80.5q35 10 76 21t80 22t73.5 20.5t56.5 16.5q48 15 80 28.5t51 26t27 23.5t8 21q0 17 -16 29.5t-41.5 21t-56.5 12.5t-60 4q-41 0 -83 -4.5t-81 -14t-72.5 -24.5t-58.5 -35z" />
    <glyph glyph-name="macron" unicode="&#xaf;" 
d="M170 1233q5 0 9.5 -3.5t14 -7t28 -7t52.5 -3.5q13 0 46.5 3t73 7.5t76.5 9t58 7.5q64 9 114 17t91 14t76 10t70 4q17 0 22.5 -8t5.5 -19q0 -19 -15 -40t-61 -37q-25 -8 -76.5 -23t-125 -30t-165 -26t-196.5 -11q-116 0 -116 65q0 9 1 22t3 25.5t5.5 21.5t8.5 9z" />
    <glyph glyph-name="degree" unicode="&#xb0;" horiz-adv-x="1055" 
d="M735 1327q21 0 37 -14q6 17 24 30t60 13q27 0 52 -9.5t44.5 -27t31 -43t11.5 -57.5q0 -37 -23.5 -81.5t-64 -92.5t-95.5 -97.5t-118.5 -95.5t-132.5 -86.5t-137 -70t-132.5 -47t-119.5 -17.5q-56 0 -85.5 32t-29.5 91q0 42 28.5 93t73.5 103.5t99.5 101.5t106.5 87
q42 31 96 64t106.5 60.5t98 45.5t69.5 18zM850 1161q0 29 -16 43.5t-33 25.5q-8 -19 -31 -20q-36 -2 -94 -26.5t-124 -63t-133.5 -85.5t-122 -95.5t-88.5 -93.5t-34 -78q0 -27 35 -27q34 0 95 22.5t132 58.5t144.5 81.5t133.5 92t98 90t38 75.5z" />
    <glyph glyph-name="plusminus" unicode="&#xb1;" horiz-adv-x="1309" 
d="M602 1237q7 0 22.5 -12t31.5 -34.5t28 -55t12 -72.5q0 -12 1 -35t3 -61.5t5.5 -96.5t9.5 -141q40 10 86.5 21.5l93 23t90.5 22t80 18.5t61 12.5t33 4.5q20 0 36.5 -7.5t28.5 -19t18.5 -25t6.5 -25.5t-8.5 -21t-22 -15.5t-30 -10.5t-33.5 -7q-11 -2 -49.5 -11.5t-97 -24
t-132.5 -32.5t-155 -36q5 -126 10.5 -251t11.5 -253q60 8 114.5 20t94.5 23l150 43q6 2 12.5 3t12.5 1q10 0 18.5 -5.5t8.5 -19.5q0 -18 -21.5 -39.5t-56 -42.5t-78 -40t-87.5 -31q-40 -12 -95 -24.5t-116.5 -25t-125 -24t-119.5 -20t-100 -13.5t-68 -5q-21 0 -42 3
t-37.5 11.5t-26.5 23t-10 37.5q0 24 23.5 38t77.5 24.5t143 20.5t220 28q-1 6 -2 31t-3.5 81t-7.5 148t-14 233q-63 -14 -127 -25.5t-125 -20.5t-118 -14t-105 -5q-31 0 -48 10t-17 29q0 34 18.5 52.5t46.5 27.5t60.5 10.5t60.5 1.5q11 0 35 3t55 8t67 11.5t70.5 13t64.5 13
t50 12.5q2 0 3 1t3 1q-8 137 -13 222.5t-9 136.5t-5.5 76t-1.5 43q0 32 6 45.5t23 13.5z" />
    <glyph glyph-name="twosuperior" unicode="&#xb2;" horiz-adv-x="905" 
d="M442 748q-23 -17 -52.5 -38.5t-59.5 -45t-58.5 -47.5t-50.5 -46l578 123q18 5 29 5q16 0 24 -10t8 -34q0 -9 -3.5 -23t-11 -28t-19.5 -26.5t-29 -18.5q-6 -2 -37.5 -10t-79.5 -19t-107.5 -25t-121 -28t-120.5 -27.5t-106 -23.5t-76.5 -16.5t-33.5 -6.5q-12 0 -25 8
t-24.5 21t-19 29t-7.5 31q0 32 32.5 75t82 89t108 91.5t109.5 83.5q73 53 125.5 100t86.5 86.5t50 69.5t16 50q0 8 -8.5 15t-22.5 7q-34 0 -74 -8t-80 -20.5t-77.5 -28t-66.5 -30.5t-46.5 -27.5t-17.5 -18.5q4 -8 4 -12q0 -10 -8.5 -18.5t-20 -15t-22.5 -10t-16 -3.5
t-14.5 8t-19.5 20t-17 26.5t-7 27.5q0 11 19.5 33t53 48.5t79 54t97.5 50t109 37t113 14.5q43 0 73 -12.5t48.5 -32.5t26.5 -45t8 -51q0 -42 -24 -90t-66.5 -99t-101 -104t-128.5 -104z" />
    <glyph glyph-name="threesuperior" unicode="&#xb3;" horiz-adv-x="926" 
d="M846 1245q45 0 45 -37q0 -22 -34.5 -54.5t-85.5 -68t-110 -70.5t-108 -63q84 -3 138 -22.5t86 -49.5t44.5 -68t12.5 -77q0 -59 -29.5 -120.5t-87 -111.5t-143 -82t-197.5 -32q-59 0 -116.5 11.5t-102.5 28t-73 34.5t-28 31q0 10 10 25t26 28.5t36 23t39 9.5q17 0 35.5 -9
t45 -19.5t63 -19t89.5 -8.5q76 0 137.5 16t104.5 43t66.5 62t23.5 74q0 35 -24.5 57t-61.5 34t-79 16.5t-76 4.5q-24 0 -53.5 -4t-60 -11t-58 -16.5t-46.5 -19.5q-18 -10 -36.5 -19.5t-36.5 -9.5q-16 0 -31 12t-15 29q0 11 8.5 23t20.5 19q6 3 36.5 20.5t74 43t93.5 54.5
t94 55t76 45.5t40 26.5q-69 -12 -133 -18t-115 -6q-79 0 -125.5 5.5t-71 15t-31.5 21.5t-7 25q0 12 9.5 26.5t25 28t35 22.5t38.5 9q28 0 53.5 -7t45.5 -19q37 -5 76 -5.5t65 -0.5q38 0 80 4.5t81 12t71 16t50 16.5q29 9 58 14.5t43 5.5z" />
    <glyph glyph-name="acute" unicode="&#xb4;" 
d="M877 1538q5 -12 8.5 -23.5t3.5 -24.5q0 -18 -8.5 -40t-28.5 -51q-22 -31 -58 -70t-79 -81.5t-89.5 -84.5t-88 -78.5t-75 -65t-50.5 -42.5t-36 -20.5t-34 -6.5q-30 0 -30 22q0 28 53 75q58 51 122 114.5t123.5 129t110.5 128.5t84 113q10 14 20 23t21 9q18 0 31 -26z" />
    <glyph glyph-name="mu" unicode="&#xb5;" horiz-adv-x="1311" 
d="M211 819q0 71 3.5 111t10.5 59.5t18.5 24t28.5 4.5q19 0 33 -14.5t23 -40t13.5 -60.5t4.5 -77q0 -35 -2 -68.5t-2 -81.5q0 -104 21 -196t54.5 -161t76 -109t84.5 -40q33 0 76.5 26.5t93 77t101.5 122t103 161.5q1 72 8 140t25 120t49 83.5t80 31.5q37 0 55.5 -16
t18.5 -42q0 -69 -31 -162.5t-82 -193.5q1 -29 5 -67.5t11 -81.5t16 -88t18 -86.5t18 -76.5t16 -59q5 -14 6.5 -28t1.5 -27q0 -35 -13.5 -58.5t-39.5 -23.5q-15 0 -35.5 39t-40.5 100.5t-38.5 136.5t-30.5 148q-46 -67 -98 -125.5t-105 -102.5t-106.5 -69.5t-102.5 -25.5
q-38 0 -70.5 16t-60 43.5t-51 64.5t-41.5 78q3 -77 7.5 -153.5t9 -146t8 -127.5t3.5 -97q0 -54 -5 -106t-15.5 -93.5t-27 -66.5t-40.5 -25q-35 0 -46 38t-11 99q0 37 1.5 80t3 83t3 72.5t1.5 47.5q0 9 -3.5 53.5t-7.5 113t-7.5 154t-3.5 177.5q0 60 1 124.5t2.5 128t2.5 124
t1 114.5z" />
    <glyph glyph-name="mu" unicode="&#x3bc;" horiz-adv-x="1311" 
d="M211 819q0 71 3.5 111t10.5 59.5t18.5 24t28.5 4.5q19 0 33 -14.5t23 -40t13.5 -60.5t4.5 -77q0 -35 -2 -68.5t-2 -81.5q0 -104 21 -196t54.5 -161t76 -109t84.5 -40q33 0 76.5 26.5t93 77t101.5 122t103 161.5q1 72 8 140t25 120t49 83.5t80 31.5q37 0 55.5 -16
t18.5 -42q0 -69 -31 -162.5t-82 -193.5q1 -29 5 -67.5t11 -81.5t16 -88t18 -86.5t18 -76.5t16 -59q5 -14 6.5 -28t1.5 -27q0 -35 -13.5 -58.5t-39.5 -23.5q-15 0 -35.5 39t-40.5 100.5t-38.5 136.5t-30.5 148q-46 -67 -98 -125.5t-105 -102.5t-106.5 -69.5t-102.5 -25.5
q-38 0 -70.5 16t-60 43.5t-51 64.5t-41.5 78q3 -77 7.5 -153.5t9 -146t8 -127.5t3.5 -97q0 -54 -5 -106t-15.5 -93.5t-27 -66.5t-40.5 -25q-35 0 -46 38t-11 99q0 37 1.5 80t3 83t3 72.5t1.5 47.5q0 9 -3.5 53.5t-7.5 113t-7.5 154t-3.5 177.5q0 60 1 124.5t2.5 128t2.5 124
t1 114.5z" />
    <glyph glyph-name="paragraph" unicode="&#xb6;" horiz-adv-x="1243" 
d="M930 25q-17 0 -23 39t-6 101q0 39 1.5 84.5t3.5 92.5t3.5 94.5t1.5 91.5v197q-57 -51 -122 -98.5t-138 -85.5q2 -42 2 -77v-56q0 -116 6.5 -215.5t14 -177t14 -128t6.5 -67.5q0 -28 -8 -49t-33 -21q-24 0 -47.5 40.5t-42.5 120.5t-31 199t-12 277v96q-59 -20 -120 -31.5
t-124 -11.5q-102 0 -151 47.5t-49 147.5q0 86 38 177t102 178.5t147 168.5t172.5 147.5t179 115.5t166.5 73q44 14 69 14t40.5 -13t15.5 -36q0 -17 -13.5 -38.5t-50.5 -49.5q-41 -31 -76.5 -48.5t-71 -32t-71.5 -29.5t-78 -41q6 -23 8 -53t2 -60q0 -47 -1 -79t-1.5 -62
t-1.5 -63.5t-1 -81.5v-79.5t1 -80.5q68 35 133 79.5t125 92.5v170q0 38 2.5 81t7.5 82t12 71t15 48q12 22 25 37t25.5 23.5t23 12t16.5 3.5t13 -9.5t12 -22.5t8.5 -27t3.5 -23q0 -19 -11.5 -27t-33.5 -14q-2 -7 -2 -17.5v-24.5q0 -37 2 -93t2 -121v-45l37 37q22 22 35 22
q11 0 11 -16q0 -22 -21 -55t-62 -80v-672q0 -31 -8.5 -58t-22.5 -47.5t-32 -32t-37 -11.5zM524 604q2 78 6.5 158.5t10.5 155t13.5 139t16.5 112.5q-39 -32 -81 -72.5t-81.5 -86.5t-75 -95t-62.5 -97.5t-42.5 -94t-15.5 -84.5q0 -31 21.5 -55.5t70.5 -24.5q53 0 107.5 11.5
t111.5 33.5z" />
    <glyph glyph-name="periodcentered" unicode="&#xb7;" horiz-adv-x="942" 
d="M559 672q22 0 42 -19t20 -65q0 -34 -21.5 -68.5t-52 -62.5t-63.5 -46t-56 -18q-68 0 -68 62q0 46 19.5 88t69.5 84q25 21 56 33t54 12z" />
    <glyph glyph-name="cedilla" unicode="&#xb8;" horiz-adv-x="1090" 
d="M672 145q-13 10 -13 26q0 13 8 22.5t21 9.5q17 0 33 -15q37 -32 55.5 -80.5t18.5 -107.5q0 -101 -39 -186.5t-103.5 -147.5t-149 -96.5t-175.5 -34.5q-56 0 -99 14t-72 36.5t-44 51.5t-15 58q0 45 21 45q9 0 17 -13.5t24 -29.5t45 -29.5t80 -13.5q98 0 177 33.5
t134.5 87.5t85 123t29.5 141q0 34 -9 61t-30 45z" />
    <glyph glyph-name="onesuperior" unicode="&#xb9;" horiz-adv-x="539" 
d="M315 1305q14 0 23 -7.5t12 -25.5q0 -1 -1.5 -12t-3.5 -28.5t-5 -40t-6 -46.5l-27 -189q-4 -25 -6.5 -65t-4 -88.5t-2.5 -101t-1 -103.5q0 -42 6 -70q23 10 35 10q14 0 14 -14t-12 -35.5t-23 -35.5q-6 -14 -14 -28t-18 -25t-23 -18t-31 -7q-15 0 -26 2.5t-18 19t-10 52.5
t-3 102q0 84 4.5 169.5t11.5 169.5t16.5 164.5t20.5 153.5q3 12 16.5 28.5t29 31.5t29 26t17.5 11z" />
    <glyph glyph-name="ordmasculine" unicode="&#xba;" horiz-adv-x="858" 
d="M621 1227q41 0 73 -12.5t54 -34.5t33.5 -51.5t11.5 -63.5q0 -72 -29 -137t-76 -120.5t-107 -100.5t-121.5 -76.5t-120.5 -48.5t-103 -17q-87 0 -128.5 37t-41.5 125q0 62 24.5 123.5t66 117t97 103t117 82.5t126 54.5t124.5 19.5zM627 1120q-23 0 -45 -8t-42.5 -21
t-39 -29t-35.5 -32q-16 -15 -31.5 -20t-32.5 -9q-48 -11 -90 -44.5t-73.5 -76t-49.5 -88t-18 -81.5q0 -31 17.5 -48.5t48.5 -17.5q36 0 84.5 16.5t100 45t102 66.5t90.5 82.5t64.5 92t24.5 94.5q0 44 -22 61t-53 17zM709 498q12 0 26 -2t25.5 -7t19.5 -12.5t8 -17.5
t-5.5 -19.5t-14 -16.5t-19.5 -11t-22 -4q-62 0 -135 -17t-149.5 -37.5t-153 -37.5t-144.5 -17q-23 0 -36 6t-19.5 16t-8 21.5t-1.5 22.5q0 21 11 33.5t30 15.5q12 2 53.5 9t99 16.5t124 19.5t128 19t111 14.5t72.5 5.5z" />
    <glyph glyph-name="guillemotright" unicode="&#xbb;" horiz-adv-x="1298" 
d="M217 209q-9 -2 -28.5 -4.5t-40.5 -2.5q-28 0 -51 7.5t-23 30.5q0 20 11 31t30 18t42.5 12.5t49.5 13.5q48 15 89.5 31.5t85.5 39.5t94.5 56t115.5 82q-14 14 -42.5 32t-66 38.5t-80 41.5t-83.5 39.5t-77 33.5t-61 24q-13 4 -29 10.5t-29.5 14t-22.5 16t-9 17.5
q0 14 10 24.5t26 17t36 10t41 3.5q38 0 73 -7.5t85.5 -30.5t127 -64.5t197.5 -108.5q34 -19 45.5 -39t11.5 -45q0 -61 -57 -109q-70 -58 -135.5 -98.5t-125 -67.5t-112.5 -43t-98 -24zM657 135q-6 -2 -17.5 -5.5t-25.5 -7t-28.5 -6t-25.5 -2.5q-17 0 -27.5 5.5t-10.5 21.5
q0 20 10.5 34t27.5 25t40 20.5t47 21.5q48 22 93 51.5t93.5 65.5t102.5 79t119 92q-14 13 -41 35t-61.5 48t-75.5 54.5t-83 55.5t-83 50t-76 38q-26 11 -47 26.5t-21 34.5q0 29 24 40.5t66 11.5q32 0 74 -18.5t100 -55t136.5 -90.5t183.5 -125q32 -22 44.5 -40.5t12.5 -43.5
q0 -61 -57 -109q-70 -58 -137.5 -108t-130.5 -89.5t-120.5 -67.5t-105.5 -42z" />
    <glyph glyph-name="onequarter" unicode="&#xbc;" horiz-adv-x="1663" 
d="M1270 823q10 0 22.5 -9t23 -22.5t18 -29.5t7.5 -30q0 -13 -4.5 -24t-11.5 -22q-3 -4 -6 -25t-7 -52t-8.5 -67.5t-9.5 -70.5q50 9 97 16t87.5 12t73 8t52.5 3q13 0 26.5 -9.5t23.5 -22t16.5 -26t6.5 -22.5q0 -11 -7 -18t-16.5 -11t-21 -5.5t-20.5 -2.5q-24 -2 -59 -5.5
t-78.5 -9t-93 -13.5t-103.5 -17q-3 -32 -5.5 -74t-5.5 -85.5t-6.5 -83t-9.5 -64.5q-6 -27 -18 -47t-25 -33.5t-25 -20t-18 -6.5q-12 0 -16.5 8.5t-4.5 24.5q0 1 1.5 19.5t6 61t12.5 112.5t20 174q-106 -18 -202.5 -38.5t-164.5 -37.5q-18 -5 -30 -9.5t-20.5 -8.5t-16 -6.5
t-17.5 -2.5q-9 0 -16.5 10t-13 24t-8.5 29t-3 25q0 46 49 58q17 5 50.5 30.5t74 62t84.5 79.5t83.5 83.5t70.5 74.5t45 53l16 18q12 14 20 24.5t19 10.5q5 0 16.5 -9t20.5 -20q5 17 12 28t17 11zM1169 1397q39 0 39 -78q0 -24 -21.5 -68t-56.5 -108q-33 -60 -88 -137
t-124 -168.5t-147 -196t-157.5 -218t-156.5 -234.5t-142 -246q-45 -86 -67 -143.5t-35 -92.5t-23.5 -50t-31.5 -15q-11 0 -20 20t-9 59q0 51 20 130.5t72 185.5q53 108 122.5 217t146.5 216.5t157.5 211.5t156 202.5t142 191t115.5 175.5q22 37 36 64.5t25 45.5t21.5 27
t25.5 9zM338 1305q14 0 23 -7.5t12 -25.5q0 -1 -1.5 -12t-3.5 -28.5t-5.5 -40t-6.5 -46.5l-26 -189q-3 -25 -6 -65t-5 -88.5t-3 -101t-1 -103.5q0 -43 7 -70q23 10 35 10q14 0 14 -13q0 -7 -3.5 -16.5t-8.5 -19.5t-11 -19.5t-12 -16.5q-6 -14 -14 -28t-18 -25t-23.5 -18
t-30.5 -7q-15 0 -26 2.5t-18 19t-10 52.5t-3 102q0 84 4 169.5t11.5 169.5t17 164.5t20.5 153.5q3 12 16.5 28.5t29 31.5t29 26t17.5 11zM1225 680q-20 -28 -55 -65.5t-74.5 -76.5t-77.5 -74t-64 -58q56 12 116 24t128 25z" />
    <glyph glyph-name="onehalf" unicode="&#xbd;" horiz-adv-x="1663" 
d="M1169 1397q39 0 39 -78q0 -24 -21.5 -68t-56.5 -108q-33 -60 -88 -137t-124 -168.5t-147 -196t-157.5 -218t-156.5 -234.5t-142 -246q-45 -86 -67 -143.5t-35 -92.5t-23.5 -50t-31.5 -15q-11 0 -20 20t-9 59q0 51 20 130.5t72 185.5q53 108 122.5 217t146.5 216.5
t157.5 211.5t156 202.5t142 191t115.5 175.5q22 37 36 64.5t25 45.5t21.5 27t25.5 9zM338 1305q14 0 23 -7.5t12 -25.5q0 -1 -1.5 -12t-3.5 -28.5t-5.5 -40t-6.5 -46.5l-26 -189q-3 -25 -6 -65t-5 -88.5t-3 -101t-1 -103.5q0 -43 7 -70q23 10 35 10q14 0 14 -13
q0 -7 -3.5 -16.5t-8.5 -19.5t-11 -19.5t-12 -16.5q-6 -14 -14 -28t-18 -25t-23.5 -18t-30.5 -7q-15 0 -26 2.5t-18 19t-10 52.5t-3 102q0 84 4 169.5t11.5 169.5t17 164.5t20.5 153.5q3 12 16.5 28.5t29 31.5t29 26t17.5 11zM1139 291q-23 -17 -52.5 -38.5t-59.5 -44.5
t-58.5 -47t-50.5 -46l577 123q15 4 29 4q16 0 24 -9.5t8 -33.5q0 -9 -3.5 -23t-11 -28.5t-19.5 -27t-29 -18.5q-6 -2 -38 -9.5t-80 -19t-107 -25t-120.5 -27.5t-120.5 -27.5t-105.5 -24t-76.5 -16.5t-34 -6q-12 0 -25 8t-24.5 20.5t-19 28.5t-7.5 31q0 33 32.5 76t82 89
t108 91.5t109.5 83.5q72 53 125 100.5t87 86.5t50.5 69t16.5 49q0 8 -8.5 15t-22.5 7q-34 0 -74 -8t-80 -20.5t-78 -28t-67 -30.5t-46.5 -27.5t-17.5 -18.5q4 -5 4 -12q0 -10 -8.5 -18.5t-20 -15t-22.5 -10t-16 -3.5t-14.5 8t-19 20t-17 26.5t-7.5 27.5q0 11 19.5 33
t53 48.5t79 54t98 50t109 37t113.5 14.5q43 0 72.5 -12t48 -32t26.5 -45.5t8 -51.5q0 -41 -27 -91.5t-71 -103.5t-102 -105t-119 -97z" />
    <glyph glyph-name="threequarters" unicode="&#xbe;" horiz-adv-x="1991" 
d="M1598 823q10 0 22.5 -9t23 -22.5t18 -29.5t7.5 -30q0 -13 -4.5 -24t-11.5 -22q-3 -4 -6 -25t-7 -52t-8.5 -67.5t-9.5 -70.5q50 9 97 16t87.5 12t73 8t52.5 3q13 0 26.5 -9.5t23.5 -22t16.5 -26t6.5 -22.5q0 -11 -7 -18t-16.5 -11t-21 -5.5t-20.5 -2.5q-24 -2 -59 -5.5
t-78.5 -9t-93 -13.5t-103.5 -17q-3 -32 -5.5 -74t-5.5 -85.5t-6.5 -83t-9.5 -64.5q-6 -27 -18 -47t-25 -33.5t-25 -20t-18 -6.5q-12 0 -16.5 8.5t-4.5 24.5q0 1 1.5 19.5t6 61t12.5 112.5t20 174q-106 -18 -202.5 -38.5t-164.5 -37.5q-18 -5 -30 -9.5t-20.5 -8.5t-16 -6.5
t-17.5 -2.5q-9 0 -16.5 10t-13 24t-8.5 29t-3 25q0 46 49 58q17 5 50.5 30.5t74 62t84.5 79.5t83.5 83.5t70.5 74.5t45 53l16 18q12 14 20 24.5t19 10.5q5 0 16.5 -9t20.5 -20q5 17 12 28t17 11zM1553 680q-20 -28 -55 -65.5t-74.5 -76.5t-77.5 -74t-64 -58q56 12 116 24
t128 25zM846 1245q45 0 45 -37q0 -22 -34.5 -54.5t-85.5 -68t-110 -70.5t-108 -63q84 -3 138 -22.5t86 -49.5t44.5 -68t12.5 -77q0 -59 -29.5 -120.5t-87 -111.5t-143 -82t-197.5 -32q-59 0 -116.5 11.5t-102.5 28t-73 34.5t-28 31q0 10 10 25t26 28.5t36 23t39 9.5
q17 0 35.5 -9t45 -19.5t63 -19t89.5 -8.5q76 0 137.5 16t104.5 43t66.5 62t23.5 74q0 35 -24.5 57t-61.5 34t-79 16.5t-76 4.5q-24 0 -53.5 -4t-60 -11t-58 -16.5t-46.5 -19.5q-18 -10 -36.5 -19.5t-36.5 -9.5q-16 0 -31 12t-15 29q0 11 8.5 23t20.5 19q6 3 36.5 20.5t74 43
t93.5 54.5t94 55t76 45.5t40 26.5q-69 -12 -133 -18t-115 -6q-79 0 -125.5 5.5t-71 15t-31.5 21.5t-7 25q0 12 9.5 26.5t25 28t35 22.5t38.5 9q28 0 53.5 -7t45.5 -19q37 -5 76 -5.5t65 -0.5q38 0 80 4.5t81 12t71 16t50 16.5q29 9 58 14.5t43 5.5zM1497 1397q39 0 39 -78
q0 -24 -21.5 -68t-56.5 -108q-33 -60 -88 -137t-124 -168.5t-147 -196t-157.5 -218t-156.5 -234.5t-142 -246q-45 -86 -67 -143.5t-35 -92.5t-23.5 -50t-31.5 -15q-11 0 -20 20t-9 59q0 51 20 130.5t72 185.5q53 108 122.5 217t146.5 216.5t157.5 211.5t156 202.5t142 191
t115.5 175.5q22 37 36 64.5t25 45.5t21.5 27t25.5 9z" />
    <glyph glyph-name="questiondown" unicode="&#xbf;" horiz-adv-x="1028" 
d="M248 -395q-37 0 -68 14.5t-53.5 38.5t-35.5 56t-13 67q0 60 31.5 128.5t87.5 140t133.5 143t169.5 137.5q19 14 39.5 30t37 32.5t27.5 33t12 31.5q-24 0 -64.5 -5.5t-83.5 -13t-79 -14.5t-51 -10q-8 -2 -15 -3t-13 -1q-15 0 -22 7.5t-7 26.5q0 26 19.5 51.5t59.5 39.5
q13 4 36.5 8.5t52 8.5t59.5 7.5t59 6t51 4t35 1.5t30 -3t34 -11t27.5 -22.5t11.5 -38.5q0 -19 -3.5 -44t-24 -58t-64 -76t-123.5 -97q-83 -56 -151.5 -115.5t-117.5 -115t-75.5 -104.5t-26.5 -83q0 -23 13 -43t48 -20q57 0 125 15.5t135.5 39.5t130.5 53.5t112 57.5t78 51
t29 35q0 3 -2.5 6.5t-2.5 6.5q0 9 10 15.5t23.5 11t26 7t17.5 2.5q6 0 12.5 -9t12 -23t9 -31t3.5 -33t-28.5 -48t-78.5 -69.5t-118 -77t-146 -72t-162.5 -53t-168.5 -20.5zM467 713q-11 0 -22 4.5t-19.5 14.5t-14 26t-5.5 39q0 34 21.5 68.5t51.5 62.5t63 45.5t56 17.5
q34 0 51 -14.5t17 -46.5q0 -47 -19.5 -88.5t-68.5 -83.5q-26 -22 -57 -33.5t-54 -11.5z" />
    <glyph glyph-name="Agrave" unicode="&#xc0;" horiz-adv-x="1321" 
d="M758 1456q7 0 23 -2t32.5 -8.5t29.5 -19t13 -33.5q0 -9 -8.5 -23t-18 -33t-18 -41t-8.5 -47q0 -50 12.5 -107.5t26.5 -111.5q23 -93 51.5 -202t60.5 -224q57 14 102.5 26t87 23t82 22.5t87.5 24.5q9 3 15 3q18 0 18 -13q0 -11 -32.5 -34t-84.5 -50.5t-117 -55t-129 -46.5
q23 -78 47 -153.5t49 -143.5t50 -126t51 -101q11 -21 24.5 -35t25 -24.5t19.5 -18t8 -15.5q0 -15 -15 -24.5t-38 -9.5q-34 0 -65.5 6.5t-51.5 29.5q-16 18 -35 57.5t-38.5 91t-39.5 110.5t-38 117.5t-34 111.5t-28 92q-56 -18 -109.5 -32.5t-112.5 -28.5t-128 -28t-155 -30
q-24 -60 -49.5 -130.5l-59.5 -164.5q-14 -38 -22 -65t-14 -45t-12.5 -26.5t-16.5 -8.5q-11 0 -25.5 13.5t-27.5 34t-22 44.5t-9 45q0 41 11.5 78.5t33.5 91.5q5 12 17.5 40t31.5 69q-22 -2 -37 -3t-25 -1q-24 0 -43.5 9.5t-34 23.5t-22.5 30t-8 29q0 20 14 28.5t60 10.5
q45 2 84.5 8t78.5 12q31 64 64.5 132.5t65 133t59.5 120t47 93.5q10 20 29 65t43 101t50 116t50.5 109t45 81t32.5 32zM842 578q-20 73 -39.5 148.5t-37 148t-32.5 139.5t-26 123q-31 -66 -69 -151.5t-77 -173.5t-74.5 -170.5t-60.5 -143.5q43 7 99 17t114 21t111.5 22
t91.5 20zM391 1824q0 19 8.5 35t22.5 16q10 0 22 -9t28.5 -23.5t37.5 -33.5t48 -38q11 -8 47.5 -30.5t85 -52t103.5 -63t104.5 -63.5t86.5 -53.5t50 -32.5q30 -23 43.5 -47.5t13.5 -42.5q0 -23 -19 -23q-14 0 -31.5 9.5t-35.5 23.5q-8 6 -43 25t-84.5 46t-108 59
t-114.5 63.5t-103.5 60.5t-74.5 49q-26 19 -43 37t-27 34t-13.5 29.5t-3.5 24.5z" />
    <glyph glyph-name="Aacute" unicode="&#xc1;" horiz-adv-x="1321" 
d="M758 1456q7 0 23 -2t32.5 -8.5t29.5 -19t13 -33.5q0 -9 -8.5 -23t-18 -33t-18 -41t-8.5 -47q0 -50 12.5 -107.5t26.5 -111.5q23 -93 51.5 -202t60.5 -224q57 14 102.5 26t87 23t82 22.5t87.5 24.5q9 3 15 3q18 0 18 -13q0 -11 -32.5 -34t-84.5 -50.5t-117 -55t-129 -46.5
q23 -78 47 -153.5t49 -143.5t50 -126t51 -101q11 -21 24.5 -35t25 -24.5t19.5 -18t8 -15.5q0 -15 -15 -24.5t-38 -9.5q-34 0 -65.5 6.5t-51.5 29.5q-16 18 -35 57.5t-38.5 91t-39.5 110.5t-38 117.5t-34 111.5t-28 92q-56 -18 -109.5 -32.5t-112.5 -28.5t-128 -28t-155 -30
q-24 -60 -49.5 -130.5l-59.5 -164.5q-14 -38 -22 -65t-14 -45t-12.5 -26.5t-16.5 -8.5q-11 0 -25.5 13.5t-27.5 34t-22 44.5t-9 45q0 41 11.5 78.5t33.5 91.5q5 12 17.5 40t31.5 69q-22 -2 -37 -3t-25 -1q-24 0 -43.5 9.5t-34 23.5t-22.5 30t-8 29q0 20 14 28.5t60 10.5
q45 2 84.5 8t78.5 12q31 64 64.5 132.5t65 133t59.5 120t47 93.5q10 20 29 65t43 101t50 116t50.5 109t45 81t32.5 32zM842 578q-20 73 -39.5 148.5t-37 148t-32.5 139.5t-26 123q-31 -66 -69 -151.5t-77 -173.5t-74.5 -170.5t-60.5 -143.5q43 7 99 17t114 21t111.5 22
t91.5 20zM936 1851q5 -12 8.5 -23.5t3.5 -24.5q0 -18 -8.5 -40t-28.5 -51q-22 -31 -58 -70t-79 -81.5t-89.5 -84.5t-88 -78.5t-75 -65t-50.5 -42.5t-36 -20.5t-34 -6.5q-30 0 -30 22q0 28 53 75q58 51 122 114.5t123.5 129t110.5 128.5t84 113q10 14 20 23t21 9q18 0 31 -26
z" />
    <glyph glyph-name="Acircumflex" unicode="&#xc2;" horiz-adv-x="1321" 
d="M758 1456q7 0 23 -2t32.5 -8.5t29.5 -19t13 -33.5q0 -9 -8.5 -23t-18 -33t-18 -41t-8.5 -47q0 -50 12.5 -107.5t26.5 -111.5q23 -93 51.5 -202t60.5 -224q57 14 102.5 26t87 23t82 22.5t87.5 24.5q9 3 15 3q18 0 18 -13q0 -11 -32.5 -34t-84.5 -50.5t-117 -55t-129 -46.5
q23 -78 47 -153.5t49 -143.5t50 -126t51 -101q11 -21 24.5 -35t25 -24.5t19.5 -18t8 -15.5q0 -15 -15 -24.5t-38 -9.5q-34 0 -65.5 6.5t-51.5 29.5q-16 18 -35 57.5t-38.5 91t-39.5 110.5t-38 117.5t-34 111.5t-28 92q-56 -18 -109.5 -32.5t-112.5 -28.5t-128 -28t-155 -30
q-24 -60 -49.5 -130.5l-59.5 -164.5q-14 -38 -22 -65t-14 -45t-12.5 -26.5t-16.5 -8.5q-11 0 -25.5 13.5t-27.5 34t-22 44.5t-9 45q0 41 11.5 78.5t33.5 91.5q5 12 17.5 40t31.5 69q-22 -2 -37 -3t-25 -1q-24 0 -43.5 9.5t-34 23.5t-22.5 30t-8 29q0 20 14 28.5t60 10.5
q45 2 84.5 8t78.5 12q31 64 64.5 132.5t65 133t59.5 120t47 93.5q10 20 29 65t43 101t50 116t50.5 109t45 81t32.5 32zM842 578q-20 73 -39.5 148.5t-37 148t-32.5 139.5t-26 123q-31 -66 -69 -151.5t-77 -173.5t-74.5 -170.5t-60.5 -143.5q43 7 99 17t114 21t111.5 22
t91.5 20zM733 1783q11 20 29.5 29.5t38.5 9.5q17 0 32 -7.5t21 -24.5q15 -42 36.5 -78t45.5 -65t49 -51.5t47 -37.5q20 -14 28.5 -28t8.5 -27q0 -12 -5.5 -22t-14.5 -17.5t-20.5 -12t-22.5 -4.5t-36.5 19t-57.5 54t-65.5 83t-58.5 107q-24 -47 -55.5 -94.5t-67 -94
t-74 -90.5t-75.5 -84q-22 -23 -37 -23q-14 0 -20.5 14.5t-6.5 35.5q0 23 8 48t25 44q15 16 44.5 49t65 76t72.5 92.5t66 99.5z" />
    <glyph glyph-name="Atilde" unicode="&#xc3;" horiz-adv-x="1321" 
d="M358 1421q36 55 74 101.5t76 79.5t75 51.5t72 18.5q39 0 73.5 -25.5t62.5 -81.5q28 -57 76 -57q51 0 122 54t162 144q39 38 59 38q12 0 12 -16q0 -15 -12.5 -40.5t-38.5 -59.5q-93 -119 -173.5 -179t-143.5 -65q-3 -10 -11.5 -24t-17 -31t-15.5 -37.5t-7 -42.5
q0 -50 12.5 -107.5t26.5 -111.5q23 -93 51.5 -202t60.5 -224q57 14 102.5 26t87 23t82 22.5t87.5 24.5q9 3 15 3q18 0 18 -13q0 -11 -32.5 -34t-84.5 -50.5t-117 -55t-129 -46.5q23 -78 47 -153.5t49 -143t50 -125.5t51 -102q12 -21 25.5 -35t25 -24.5t19 -18t7.5 -15.5
q0 -15 -15 -24.5t-38 -9.5q-34 0 -66.5 6.5t-50.5 29.5q-15 18 -33 57.5t-37.5 91t-40 110.5t-39 117.5t-35 111.5t-28.5 92q-56 -18 -109.5 -32.5t-112.5 -28.5t-128 -28t-155 -30q-24 -60 -49.5 -130.5l-59.5 -164.5q-14 -38 -22 -65t-14 -45t-12.5 -26.5t-16.5 -8.5
q-11 0 -25.5 13.5t-27.5 34t-22 44.5t-9 45q0 41 11.5 78.5t33.5 91.5q5 12 17.5 40t31.5 69q-22 -2 -37 -3t-25 -1q-24 0 -43.5 9.5t-34 23.5t-22.5 30t-8 29q0 20 8 27t33 10t72 6t124 16q31 64 64.5 132.5t65 133t59.5 120t47 93.5q9 18 25.5 56.5t37 87t43.5 102
t45.5 102t43 86.5t36.5 56q-3 3 -4.5 7t-3.5 7q-30 51 -54 76.5t-50 25.5q-35 0 -82.5 -47.5t-126.5 -144.5q-17 -20 -33.5 -29t-27.5 -9q-24 0 -24 27q0 12 5.5 28.5t19.5 37.5zM842 578q-20 73 -39.5 148.5t-37 148t-32.5 139.5t-26 123q-31 -66 -69 -151.5t-77 -173.5
t-74.5 -170.5t-60.5 -143.5q43 7 94.5 16t106 19.5t109.5 22t106 22.5z" />
    <glyph glyph-name="Adieresis" unicode="&#xc4;" horiz-adv-x="1321" 
d="M758 1456q7 0 23 -2t32.5 -8.5t29.5 -19t13 -33.5q0 -9 -8.5 -23t-18 -33t-18 -41t-8.5 -47q0 -50 12.5 -107.5t26.5 -111.5q23 -93 51.5 -202t60.5 -224q57 14 102.5 26t87 23t82 22.5t87.5 24.5q9 3 15 3q18 0 18 -13q0 -11 -32.5 -34t-84.5 -50.5t-117 -55t-129 -46.5
q23 -78 47 -153.5t49 -143.5t50 -126t51 -101q11 -21 24.5 -35t25 -24.5t19.5 -18t8 -15.5q0 -15 -15 -24.5t-38 -9.5q-34 0 -65.5 6.5t-51.5 29.5q-16 18 -35 57.5t-38.5 91t-39.5 110.5t-38 117.5t-34 111.5t-28 92q-56 -18 -109.5 -32.5t-112.5 -28.5t-128 -28t-155 -30
q-24 -60 -49.5 -130.5l-59.5 -164.5q-14 -38 -22 -65t-14 -45t-12.5 -26.5t-16.5 -8.5q-11 0 -25.5 13.5t-27.5 34t-22 44.5t-9 45q0 41 11.5 78.5t33.5 91.5q5 12 17.5 40t31.5 69q-22 -2 -37 -3t-25 -1q-24 0 -43.5 9.5t-34 23.5t-22.5 30t-8 29q0 20 14 28.5t60 10.5
q45 2 84.5 8t78.5 12q31 64 64.5 132.5t65 133t59.5 120t47 93.5q10 20 29 65t43 101t50 116t50.5 109t45 81t32.5 32zM842 578q-20 73 -39.5 148.5t-37 148t-32.5 139.5t-26 123q-31 -66 -69 -151.5t-77 -173.5t-74.5 -170.5t-60.5 -143.5q43 7 99 17t114 21t111.5 22
t91.5 20zM541 1620q31 0 46.5 -20.5t15.5 -49.5q0 -38 -23.5 -61t-60.5 -23q-31 0 -47.5 19t-16.5 51q0 16 6.5 31t17.5 27t27 19t35 7zM965 1689q31 0 46 -20t15 -49q0 -38 -23 -61t-61 -23q-30 0 -46.5 18.5t-16.5 50.5q0 16 6.5 31t17.5 27t27 19t35 7z" />
    <glyph glyph-name="Aring" unicode="&#xc5;" horiz-adv-x="1321" 
d="M827 1767q11 0 20.5 -2.5t18.5 -7.5q10 11 25.5 18t40.5 7q49 0 76.5 -29.5t27.5 -73.5q0 -33 -14.5 -68t-39.5 -69.5t-59 -66.5t-73 -60q6 -9 6 -22q0 -9 -8.5 -23t-18 -33t-18 -41t-8.5 -47q0 -50 12.5 -107.5t26.5 -111.5q23 -93 51.5 -202t60.5 -224q57 14 102.5 26
t87 23t82 22.5t87.5 24.5q9 3 15 3q18 0 18 -13q0 -11 -32.5 -34t-84.5 -50.5t-117 -55t-129 -46.5q23 -78 47 -153.5t49 -143t50 -125.5t51 -102q12 -21 25.5 -35t25 -24.5t19 -18t7.5 -15.5q0 -15 -15 -24.5t-38 -9.5q-34 0 -66.5 6.5t-50.5 29.5q-14 18 -32 57t-38 90.5
t-40 111t-39 118t-35.5 111.5t-28.5 92q-56 -18 -109.5 -32.5t-112.5 -28.5t-128 -28t-155 -30q-24 -60 -49.5 -130.5l-59.5 -164.5q-14 -38 -22 -65t-14 -45t-12.5 -26.5t-16.5 -8.5q-11 0 -25.5 13.5t-27.5 34t-22 44.5t-9 45q0 41 11.5 78.5t33.5 91.5q5 12 17.5 40
t31.5 69q-22 -2 -37 -3t-25 -1q-24 0 -43.5 9.5t-34 23.5t-22.5 30t-8 29q0 20 8 27t33 10t72 6t124 16q31 64 64.5 132.5t65 133t59.5 120t47 93.5q10 19 28 62t40 96t47 110.5t49 106.5q-19 -5 -38 -7.5t-36 -2.5q-83 0 -118.5 31.5t-35.5 87.5q0 42 21.5 83.5t55.5 78
t76.5 67.5t85 54t80.5 35.5t64 12.5zM940 1657q0 14 -9.5 19t-22.5 8t-26.5 6t-21.5 12q-50 -5 -106.5 -29t-104.5 -58.5t-80 -74.5t-32 -78q0 -20 11.5 -32.5t43.5 -12.5q37 0 77.5 12t79 31.5t73.5 45t61 52t41.5 52.5t15.5 47zM842 578q-20 73 -39.5 148.5t-37 148
t-32.5 139.5t-26 123q-31 -66 -69 -151.5t-77 -173.5t-74.5 -170.5t-60.5 -143.5q43 7 94.5 16t106 19.5t109.5 22t106 22.5z" />
    <glyph glyph-name="AE" unicode="&#xc6;" horiz-adv-x="2028" 
d="M969 117q-23 81 -48.5 168t-50.5 180q-44 -18 -102 -36.5t-124.5 -35t-138 -31t-143.5 -24.5l-102 -283q-14 -38 -22 -65t-14 -45t-12.5 -26.5t-16.5 -8.5q-11 0 -25.5 13.5t-27.5 34t-22 44.5t-9 45q0 41 11.5 78.5t33.5 91.5q5 12 16.5 40t30.5 67q-16 -2 -31 -2h-29
q-24 0 -43.5 9.5t-34 23.5t-22.5 30t-8 29q0 26 19.5 31.5t54.5 5.5q40 0 78.5 1t76.5 3q31 65 66 136.5t68 138.5t61.5 125t48.5 97q10 20 29 65t43 101t50 116t50.5 109t45 81t32.5 32q7 0 23 -2t32.5 -8.5t29.5 -19t13 -33.5q0 -9 -8.5 -23t-18 -33t-18 -41t-8.5 -47
q0 -15 1 -31.5t3 -33.5q25 13 55.5 21.5t55.5 13.5q34 6 80 12.5t98 12.5t107.5 11t108 9t99.5 6t82 2q48 0 97 -6.5t88.5 -18t65 -27.5t25.5 -34q0 -19 -14 -24t-31 -5h-155q-48 0 -113.5 -6.5t-138 -16.5t-145.5 -22t-136.5 -22t-111.5 -16.5t-70 -6.5h-23
q23 -94 53.5 -211t65 -239.5t73 -242t77.5 -218.5q9 -23 25 -33t34 -10q41 0 100.5 8t131 23t152 37t164 50t167 61.5t160.5 72.5q13 6 22 6q11 0 15.5 -6t4.5 -14q0 -18 -16 -29q-76 -55 -160 -101.5t-170.5 -84t-173 -65.5t-167 -47t-152 -28.5t-127.5 -9.5q-38 0 -61.5 9
t-38.5 26.5t-24 41.5t-17 54zM416 469q134 17 245.5 38t186.5 34q-38 147 -75 296t-66 300q-31 -66 -65.5 -143.5t-69 -156t-66.5 -153t-57 -135.5zM1871 883q-13 0 -44 -5.5t-71 -13.5t-85 -18t-87 -19.5t-76.5 -17.5t-53.5 -12t-55 -12t-80 -17.5t-92 -19.5t-91 -18.5
t-76 -13.5t-48 -5q-23 0 -36.5 6t-20 16t-8 21t-1.5 22t0.5 20t4.5 15.5t12.5 10t23.5 3.5t54 10t94.5 24.5t124 31.5t143.5 31q144 28 249.5 39.5t180.5 11.5q37 0 61 -4.5t38 -13.5t19 -21.5t5 -28.5t-6 -27.5t-13.5 -19t-15 -11t-10.5 -3.5q-6 0 -13.5 3.5t-7.5 18.5
q0 11 -4 14t-15 3z" />
    <glyph glyph-name="Ccedilla" unicode="&#xc7;" horiz-adv-x="1354" 
d="M901 145q-82 -44 -165.5 -80t-163.5 -61.5t-154.5 -39t-138.5 -13.5q-68 0 -111 16t-68 46t-34 72t-9 93q0 84 30 174.5t88.5 185.5t144.5 193.5t198 198.5q108 96 199.5 166t165 115t127.5 67t86 22q15 0 32.5 -12t32.5 -29t25 -35t10 -30q0 -13 -15.5 -33t-39 -38.5
t-51 -32t-50.5 -13.5q-18 0 -43.5 2.5t-50.5 12.5q-16 -8 -58.5 -38t-101 -77t-128 -107t-140 -128t-136 -140.5t-116.5 -145t-81.5 -141t-30.5 -127.5q0 -27 5.5 -49.5t19.5 -38t38 -24t62 -8.5q59 0 141.5 19t177 52.5t197.5 79t202.5 97.5t192 108.5t166.5 112.5
q22 16 36 16q12 0 12 -12q-1 -8 -8.5 -23t-25.5 -33q-85 -85 -189.5 -163t-219.5 -144q32 -32 47.5 -78t15.5 -100q0 -101 -38.5 -186.5t-103.5 -147.5t-149.5 -96.5t-175.5 -34.5q-56 0 -98.5 14t-71.5 36.5t-44 51.5t-15 58q0 45 20 45q10 0 18 -13.5t23.5 -29.5
t44.5 -29.5t80 -13.5q98 0 177 33.5t134.5 87.5t85 123t29.5 141q0 34 -8.5 61t-30.5 45z" />
    <glyph glyph-name="Egrave" unicode="&#xc8;" horiz-adv-x="1470" 
d="M936 1272q48 0 97 -6.5t88.5 -18t65 -27.5t25.5 -34q0 -19 -14 -24t-31 -5h-155q-41 0 -96 -5t-116 -13t-125 -18t-123.5 -19.5t-112 -17.5t-89.5 -13q3 -32 5 -64t3.5 -61.5t2.5 -55t1 -44.5q0 -14 -0.5 -52t-0.5 -87t-1 -104.5t-1 -105.5t-0.5 -89t-0.5 -56v-202
q0 -36 14 -46t46 -10q120 0 257.5 20.5t277 57t274 86t250.5 107.5q13 6 22 6q11 0 15.5 -6t4.5 -14q0 -18 -16 -29q-113 -83 -248.5 -148t-283 -109t-304 -67t-311.5 -23q-75 0 -108 32.5t-33 98.5q0 16 4 36.5t8.5 43t8.5 45.5t4 45q0 15 0.5 44t1 66t1.5 79.5t1.5 83
t1 77t0.5 62.5q0 31 -1 75.5t-2.5 96.5t-4 108t-5.5 109q-12 6 -17 18t-5 29q0 23 16 39q-2 19 -3.5 46.5t-1.5 44.5q0 53 8 75.5t18 22.5q6 0 16.5 -9t21.5 -22.5t21 -30t15 -30.5q3 -10 5.5 -22t4.5 -26l28 7q52 9 128.5 18.5t158.5 17t159 12.5t130 5zM1314 883
q-13 0 -44 -5.5t-71 -13.5t-85 -18t-87 -19.5t-76.5 -17.5t-53.5 -12t-55 -12t-80 -17.5t-92 -19.5t-91 -18.5t-76 -13.5t-48 -5q-23 0 -36.5 6t-20 16t-8 21t-1.5 22t0.5 20t4.5 15.5t12.5 10t23.5 3.5t54 10t94.5 24.5t124 31.5t143.5 31q144 28 249.5 39.5t180.5 11.5
q37 0 61 -4.5t38 -13.5t19 -21.5t5 -28.5t-6 -27.5t-13.5 -19t-15 -11t-10.5 -3.5q-6 0 -13.5 3.5t-7.5 18.5q0 11 -4 14t-15 3zM393 1818q0 19 8.5 35t22.5 16q10 0 22 -9t28.5 -23.5t37.5 -33.5t48 -38q11 -8 47.5 -30.5t85 -52t103.5 -63t104.5 -63.5t86.5 -53.5
t50 -32.5q30 -23 43.5 -47.5t13.5 -42.5q0 -23 -19 -23q-14 0 -31.5 9.5t-35.5 23.5q-8 6 -43 25t-84.5 46t-108 59t-114.5 63.5t-103.5 60.5t-74.5 49q-26 19 -43 37t-27 34t-13.5 29.5t-3.5 24.5z" />
    <glyph glyph-name="Eacute" unicode="&#xc9;" horiz-adv-x="1470" 
d="M936 1272q48 0 97 -6.5t88.5 -18t65 -27.5t25.5 -34q0 -19 -14 -24t-31 -5h-155q-41 0 -96 -5t-116 -13t-125 -18t-123.5 -19.5t-112 -17.5t-89.5 -13q3 -32 5 -64t3.5 -61.5t2.5 -55t1 -44.5q0 -14 -0.5 -52t-0.5 -87t-1 -104.5t-1 -105.5t-0.5 -89t-0.5 -56v-202
q0 -36 14 -46t46 -10q120 0 257.5 20.5t277 57t274 86t250.5 107.5q13 6 22 6q11 0 15.5 -6t4.5 -14q0 -18 -16 -29q-113 -83 -248.5 -148t-283 -109t-304 -67t-311.5 -23q-75 0 -108 32.5t-33 98.5q0 16 4 36.5t8.5 43t8.5 45.5t4 45q0 15 0.5 44t1 66t1.5 79.5t1.5 83
t1 77t0.5 62.5q0 31 -1 75.5t-2.5 96.5t-4 108t-5.5 109q-12 6 -17 18t-5 29q0 23 16 39q-2 19 -3.5 46.5t-1.5 44.5q0 53 8 75.5t18 22.5q6 0 16.5 -9t21.5 -22.5t21 -30t15 -30.5q3 -10 5.5 -22t4.5 -26l28 7q52 9 128.5 18.5t158.5 17t159 12.5t130 5zM1314 883
q-13 0 -44 -5.5t-71 -13.5t-85 -18t-87 -19.5t-76.5 -17.5t-53.5 -12t-55 -12t-80 -17.5t-92 -19.5t-91 -18.5t-76 -13.5t-48 -5q-23 0 -36.5 6t-20 16t-8 21t-1.5 22t0.5 20t4.5 15.5t12.5 10t23.5 3.5t54 10t94.5 24.5t124 31.5t143.5 31q144 28 249.5 39.5t180.5 11.5
q37 0 61 -4.5t38 -13.5t19 -21.5t5 -28.5t-6 -27.5t-13.5 -19t-15 -11t-10.5 -3.5q-6 0 -13.5 3.5t-7.5 18.5q0 11 -4 14t-15 3zM1010 1851q5 -12 8.5 -23.5t3.5 -24.5q0 -18 -8.5 -40t-28.5 -51q-22 -31 -58 -70t-79 -81.5t-89.5 -84.5t-88 -78.5t-75 -65t-50.5 -42.5
t-36 -20.5t-34 -6.5q-30 0 -30 22q0 28 53 75q58 51 122 114.5t123.5 129t110.5 128.5t84 113q10 14 20 23t21 9q18 0 31 -26z" />
    <glyph glyph-name="Ecircumflex" unicode="&#xca;" horiz-adv-x="1470" 
d="M936 1272q48 0 97 -6.5t88.5 -18t65 -27.5t25.5 -34q0 -19 -14 -24t-31 -5h-155q-41 0 -96 -5t-116 -13t-125 -18t-123.5 -19.5t-112 -17.5t-89.5 -13q3 -32 5 -64t3.5 -61.5t2.5 -55t1 -44.5q0 -14 -0.5 -52t-0.5 -87t-1 -104.5t-1 -105.5t-0.5 -89t-0.5 -56v-202
q0 -36 14 -46t46 -10q120 0 257.5 20.5t277 57t274 86t250.5 107.5q13 6 22 6q11 0 15.5 -6t4.5 -14q0 -18 -16 -29q-113 -83 -248.5 -148t-283 -109t-304 -67t-311.5 -23q-75 0 -108 32.5t-33 98.5q0 16 4 36.5t8.5 43t8.5 45.5t4 45q0 15 0.5 44t1 66t1.5 79.5t1.5 83
t1 77t0.5 62.5q0 31 -1 75.5t-2.5 96.5t-4 108t-5.5 109q-12 6 -17 18t-5 29q0 23 16 39q-2 19 -3.5 46.5t-1.5 44.5q0 53 8 75.5t18 22.5q6 0 16.5 -9t21.5 -22.5t21 -30t15 -30.5q3 -10 5.5 -22t4.5 -26l28 7q52 9 128.5 18.5t158.5 17t159 12.5t130 5zM1314 883
q-13 0 -44 -5.5t-71 -13.5t-85 -18t-87 -19.5t-76.5 -17.5t-53.5 -12t-55 -12t-80 -17.5t-92 -19.5t-91 -18.5t-76 -13.5t-48 -5q-23 0 -36.5 6t-20 16t-8 21t-1.5 22t0.5 20t4.5 15.5t12.5 10t23.5 3.5t54 10t94.5 24.5t124 31.5t143.5 31q144 28 249.5 39.5t180.5 11.5
q37 0 61 -4.5t38 -13.5t19 -21.5t5 -28.5t-6 -27.5t-13.5 -19t-15 -11t-10.5 -3.5q-6 0 -13.5 3.5t-7.5 18.5q0 11 -4 14t-15 3zM694 1783q11 20 29.5 29.5t38.5 9.5q17 0 32 -7.5t21 -24.5q15 -42 36.5 -78t45.5 -65t49 -51.5t47 -37.5q20 -14 28.5 -28t8.5 -27
q0 -12 -5.5 -22t-14.5 -17.5t-20.5 -12t-22.5 -4.5t-36.5 19t-57.5 54t-65.5 83t-58.5 107q-24 -47 -55.5 -94.5t-67 -94t-74 -90.5t-75.5 -84q-22 -23 -37 -23q-14 0 -20.5 14.5t-6.5 35.5q0 23 8 48t25 44q15 16 44.5 49t65 76t72.5 92.5t66 99.5z" />
    <glyph glyph-name="Edieresis" unicode="&#xcb;" horiz-adv-x="1470" 
d="M936 1272q48 0 97 -6.5t88.5 -18t65 -27.5t25.5 -34q0 -19 -14 -24t-31 -5h-155q-41 0 -96 -5t-116 -13t-125 -18t-123.5 -19.5t-112 -17.5t-89.5 -13q3 -32 5 -64t3.5 -61.5t2.5 -55t1 -44.5q0 -14 -0.5 -52t-0.5 -87t-1 -104.5t-1 -105.5t-0.5 -89t-0.5 -56v-202
q0 -36 14 -46t46 -10q120 0 257.5 20.5t277 57t274 86t250.5 107.5q13 6 22 6q11 0 15.5 -6t4.5 -14q0 -18 -16 -29q-113 -83 -248.5 -148t-283 -109t-304 -67t-311.5 -23q-75 0 -108 32.5t-33 98.5q0 16 4 36.5t8.5 43t8.5 45.5t4 45q0 15 0.5 44t1 66t1.5 79.5t1.5 83
t1 77t0.5 62.5q0 31 -1 75.5t-2.5 96.5t-4 108t-5.5 109q-12 6 -17 18t-5 29q0 23 16 39q-2 19 -3.5 46.5t-1.5 44.5q0 53 8 75.5t18 22.5q6 0 16.5 -9t21.5 -22.5t21 -30t15 -30.5q3 -10 5.5 -22t4.5 -26l28 7q52 9 128.5 18.5t158.5 17t159 12.5t130 5zM1314 883
q-13 0 -44 -5.5t-71 -13.5t-85 -18t-87 -19.5t-76.5 -17.5t-53.5 -12t-55 -12t-80 -17.5t-92 -19.5t-91 -18.5t-76 -13.5t-48 -5q-23 0 -36.5 6t-20 16t-8 21t-1.5 22t0.5 20t4.5 15.5t12.5 10t23.5 3.5t54 10t94.5 24.5t124 31.5t143.5 31q144 28 249.5 39.5t180.5 11.5
q37 0 61 -4.5t38 -13.5t19 -21.5t5 -28.5t-6 -27.5t-13.5 -19t-15 -11t-10.5 -3.5q-6 0 -13.5 3.5t-7.5 18.5q0 11 -4 14t-15 3zM534 1581q31 0 46.5 -20.5t15.5 -49.5q0 -38 -23.5 -61t-60.5 -23q-31 0 -47.5 19t-16.5 51q0 16 6.5 31t17.5 27t27 19t35 7zM958 1650
q31 0 46 -20t15 -49q0 -38 -23 -61t-61 -23q-30 0 -46.5 18.5t-16.5 50.5q0 16 6.5 31t17.5 27t27 19t35 7z" />
    <glyph glyph-name="Igrave" unicode="&#xcc;" horiz-adv-x="604" 
d="M362 193q25 0 36 -27t11 -65q0 -34 -7.5 -70t-20.5 -62q-7 -15 -18 -29.5t-24 -26t-26 -19t-24 -7.5q-14 0 -23 11t-13.5 39t-6 76t-1.5 122q0 338 6 574.5t16.5 385.5t24 217t27.5 68q48 0 71 -38.5t23 -113.5q0 -35 -6.5 -82.5t-29.5 -107.5q-5 -65 -8.5 -143
t-5.5 -160.5t-3 -165t-1 -155.5q0 -69 0.5 -126t2.5 -95zM-39 1818q0 19 8.5 35t22.5 16q10 0 22 -9t28.5 -23.5t37.5 -33.5t48 -38q11 -8 47.5 -30.5t85 -52t103.5 -63t104.5 -63.5t86.5 -53.5t50 -32.5q30 -23 43.5 -47.5t13.5 -42.5q0 -23 -19 -23q-14 0 -31.5 9.5
t-35.5 23.5q-8 6 -43 25t-84.5 46t-108 59t-114.5 63.5t-103.5 60.5t-74.5 49q-26 19 -43 37t-27 34t-13.5 29.5t-3.5 24.5z" />
    <glyph glyph-name="Iacute" unicode="&#xcd;" horiz-adv-x="604" 
d="M362 193q25 0 36 -27t11 -65q0 -34 -7.5 -70t-20.5 -62q-7 -15 -18 -29.5t-24 -26t-26 -19t-24 -7.5q-14 0 -23 11t-13.5 39t-6 76t-1.5 122q0 338 6 574.5t16.5 385.5t24 217t27.5 68q48 0 71 -38.5t23 -113.5q0 -35 -6.5 -82.5t-29.5 -107.5q-5 -65 -8.5 -143
t-5.5 -160.5t-3 -165t-1 -155.5q0 -69 0.5 -126t2.5 -95zM579 1851q5 -12 8.5 -23.5t3.5 -24.5q0 -18 -8.5 -40t-28.5 -51q-22 -31 -58 -70t-79 -81.5t-89.5 -84.5t-88 -78.5t-75 -65t-50.5 -42.5t-36 -20.5t-34 -6.5q-30 0 -30 22q0 28 53 75q58 51 122 114.5t123.5 129
t110.5 128.5t84 113q10 14 20 23t21 9q18 0 31 -26z" />
    <glyph glyph-name="Icircumflex" unicode="&#xce;" horiz-adv-x="604" 
d="M362 193q25 0 36 -27t11 -65q0 -34 -7.5 -70t-20.5 -62q-7 -15 -18 -29.5t-24 -26t-26 -19t-24 -7.5q-14 0 -23 11t-13.5 39t-6 76t-1.5 122q0 338 6 574.5t16.5 385.5t24 217t27.5 68q48 0 71 -38.5t23 -113.5q0 -35 -6.5 -82.5t-29.5 -107.5q-5 -65 -8.5 -143
t-5.5 -160.5t-3 -165t-1 -155.5q0 -69 0.5 -126t2.5 -95zM263 1783q11 20 29.5 29.5t38.5 9.5q17 0 32 -7.5t21 -24.5q15 -42 36.5 -78t45.5 -65t49 -51.5t47 -37.5q20 -14 28.5 -28t8.5 -27q0 -12 -5.5 -22t-14.5 -17.5t-20.5 -12t-22.5 -4.5t-36.5 19t-57.5 54t-65.5 83
t-58.5 107q-24 -47 -55.5 -94.5t-67 -94t-74 -90.5t-75.5 -84q-22 -23 -37 -23q-14 0 -20.5 14.5t-6.5 35.5q0 23 8 48t25 44q15 16 44.5 49t65 76t72.5 92.5t66 99.5z" />
    <glyph glyph-name="Idieresis" unicode="&#xcf;" horiz-adv-x="604" 
d="M362 193q25 0 36 -27t11 -65q0 -34 -7.5 -70t-20.5 -62q-7 -15 -18 -29.5t-24 -26t-26 -19t-24 -7.5q-14 0 -23 11t-13.5 39t-6 76t-1.5 122q0 338 6 574.5t16.5 385.5t24 217t27.5 68q48 0 71 -38.5t23 -113.5q0 -35 -6.5 -82.5t-29.5 -107.5q-5 -65 -8.5 -143
t-5.5 -160.5t-3 -165t-1 -155.5q0 -69 0.5 -126t2.5 -95zM103 1671q31 0 46.5 -20.5t15.5 -49.5q0 -38 -23.5 -61t-60.5 -23q-31 0 -47.5 19t-16.5 51q0 16 6.5 31t17.5 27t27 19t35 7zM527 1740q31 0 46 -20t15 -49q0 -38 -23 -61t-61 -23q-30 0 -46.5 18.5t-16.5 50.5
q0 16 6.5 31t17.5 27t27 19t35 7z" />
    <glyph glyph-name="Eth" unicode="&#xd0;" horiz-adv-x="1491" 
d="M326 1040q9 -91 19 -196t20 -213l43 6q64 9 114 17t91 14t75.5 9.5t69.5 4.5q17 0 22.5 -8t5.5 -19q0 -19 -14.5 -40t-60.5 -37q-18 -6 -49.5 -15.5t-74.5 -20t-96.5 -21.5t-115.5 -19q9 -116 14.5 -218t7.5 -171q99 29 207 77t213 107t200 124t167 128t114.5 119
t42.5 98q0 47 -45.5 104t-131 107t-208.5 83.5t-278 33.5q-67 0 -121 -4.5t-97 -12t-76 -17.5t-58 -20zM207 975q-10 0 -19 4t-15.5 15.5t-10.5 31t-4 51.5q0 34 35 60q-4 38 -5 71.5t-1 71.5q0 37 4 64.5t18 27.5q11 0 25.5 -8t28.5 -22.5t24.5 -35t13.5 -46.5l8 -72
q40 10 83 16t83 10t73 5.5t54 1.5q109 0 213.5 -18t197 -51.5t170 -81t133.5 -105.5t87 -125t31 -140q0 -54 -38 -116t-103 -127t-151 -130t-183.5 -124t-199.5 -110.5t-198.5 -89.5t-181.5 -59.5t-148 -21.5q-21 0 -38.5 13.5t-30 31.5t-20 37t-7.5 31q0 22 6.5 29.5
t23.5 9t45.5 2t72.5 8.5q-5 34 -7.5 70.5t-4 71.5t-2.5 66t-3 52l-12 145q-26 -2 -52.5 -2h-54.5q-116 0 -116 66q0 8 1 21.5t3 26t5.5 21.5t8.5 9t9.5 -3.5t14 -7t28.5 -7t53 -3.5q11 0 35 1.5t55 4.5z" />
    <glyph glyph-name="Ntilde" unicode="&#xd1;" horiz-adv-x="1468" 
d="M1227 1456q7 0 18.5 -9t21.5 -22.5t17.5 -29t7.5 -27.5q0 -8 -2.5 -32t-7 -57t-10 -72l-11 -78t-10.5 -75t-8 -63q-3 -23 -6.5 -70.5t-7.5 -110.5t-8.5 -137.5t-9 -150.5t-9 -149.5t-8 -135.5t-7 -108.5t-5.5 -67.5q15 -9 26 -22.5t11 -30.5q0 -12 -7 -27.5t-18 -29
t-26 -22.5t-31 -9q-19 0 -31 22.5t-19 59t-9.5 83t-2.5 95.5q0 53 1 91t3.5 76t6.5 83t10 113q-22 -23 -50 -40.5t-71 -17.5q-35 0 -79 25t-90 64.5t-92 87.5t-85 93.5t-69 83t-44 56.5q-21 26 -41.5 50t-39 42t-33 28.5t-21.5 10.5q-16 0 -21.5 -23.5t-5.5 -58.5v-1026
q0 -22 -5.5 -30.5t-26.5 -8.5q-23 0 -41.5 17t-28.5 67q-14 60 -19 132.5t-5 157.5q0 95 5 202t11 222.5t11 238t5 247.5q-14 34 -23 62t-14 52.5t-7 46.5t-2 44q0 12 1 23.5t4.5 20.5t10.5 14.5t18 5.5q15 0 29.5 -11.5t28 -32.5t26.5 -49t24 -61q11 -34 33 -76t60.5 -94.5
t97 -117.5t143.5 -144q84 -78 139.5 -122t93.5 -65t63 -25.5t48 -4.5q28 0 45 16.5t29 44.5q8 90 16.5 161t16 127.5t14.5 103t13 88t11 81t9 84.5q5 56 13.5 88.5t25.5 32.5zM440 1467q36 55 74 101t75.5 79t74.5 51.5t72 18.5q39 0 73.5 -25.5t62.5 -81.5q28 -57 77 -57
q51 0 122 54t162 144q39 38 59 38q12 0 12 -16q0 -14 -12.5 -40t-38.5 -59q-97 -123 -180 -183.5t-147 -60.5q-72 0 -113 71q-30 51 -54 77t-50 26q-18 0 -38 -12t-44.5 -36t-55.5 -60.5t-71 -84.5q-17 -20 -33.5 -29t-27.5 -9q-24 0 -24 28q0 12 5.5 28.5t19.5 37.5z" />
    <glyph glyph-name="Ograve" unicode="&#xd2;" horiz-adv-x="1366" 
d="M1038 1274q54 0 88.5 -18t34.5 -60q0 -11 -4 -20t-4 -17t10 -12q26 -10 52.5 -29t47.5 -50t34.5 -75.5t13.5 -105.5q0 -95 -41 -198.5t-112 -203t-166.5 -189t-203 -157t-222 -107.5t-224.5 -40q-55 0 -106.5 14t-91 46.5t-63.5 86t-24 133.5q0 139 96.5 311.5
t297.5 360.5q81 75 169 136t168.5 104t146.5 66.5t103 23.5zM1024 1085q-21 0 -60.5 -8t-83 -23.5t-84 -39t-65.5 -53.5q-22 -26 -49 -46.5t-48 -20.5q-5 0 -10.5 1.5t-10.5 1.5q-19 0 -39.5 -14.5t-49.5 -38.5q-82 -68 -149 -144.5t-114 -153.5t-73 -151.5t-26 -138.5
q0 -84 31 -128t112 -44q80 0 178 37.5t198.5 101.5t195 147.5t168.5 176t118.5 187.5t44.5 181q0 77 -44.5 123.5t-139.5 46.5zM339 1818q0 19 8.5 35t22.5 16q10 0 22 -9t28.5 -23.5t37.5 -33.5t48 -38q11 -8 47.5 -30.5t85 -52t103.5 -63t104.5 -63.5t86.5 -53.5t50 -32.5
q30 -23 43.5 -47.5t13.5 -42.5q0 -23 -19 -23q-14 0 -31.5 9.5t-35.5 23.5q-8 6 -43 25t-84.5 46t-108 59t-114.5 63.5t-103.5 60.5t-74.5 49q-26 19 -43 37t-27 34t-13.5 29.5t-3.5 24.5z" />
    <glyph glyph-name="Oacute" unicode="&#xd3;" horiz-adv-x="1366" 
d="M1038 1274q54 0 88.5 -18t34.5 -60q0 -11 -4 -20t-4 -17t10 -12q26 -10 52.5 -29t47.5 -50t34.5 -75.5t13.5 -105.5q0 -95 -41 -198.5t-112 -203t-166.5 -189t-203 -157t-222 -107.5t-224.5 -40q-55 0 -106.5 14t-91 46.5t-63.5 86t-24 133.5q0 139 96.5 311.5
t297.5 360.5q81 75 169 136t168.5 104t146.5 66.5t103 23.5zM1024 1085q-21 0 -60.5 -8t-83 -23.5t-84 -39t-65.5 -53.5q-22 -26 -49 -46.5t-48 -20.5q-5 0 -10.5 1.5t-10.5 1.5q-19 0 -39.5 -14.5t-49.5 -38.5q-82 -68 -149 -144.5t-114 -153.5t-73 -151.5t-26 -138.5
q0 -84 31 -128t112 -44q80 0 178 37.5t198.5 101.5t195 147.5t168.5 176t118.5 187.5t44.5 181q0 77 -44.5 123.5t-139.5 46.5zM1061 1851q5 -12 8.5 -23.5t3.5 -24.5q0 -18 -8.5 -40t-28.5 -51q-22 -31 -58 -70t-79 -81.5t-89.5 -84.5t-88 -78.5t-75 -65t-50.5 -42.5
t-36 -20.5t-34 -6.5q-30 0 -30 22q0 28 53 75q58 51 122 114.5t123.5 129t110.5 128.5t84 113q10 14 20 23t21 9q18 0 31 -26z" />
    <glyph glyph-name="Ocircumflex" unicode="&#xd4;" horiz-adv-x="1366" 
d="M1038 1274q54 0 88.5 -18t34.5 -60q0 -11 -4 -20t-4 -17t10 -12q26 -10 52.5 -29t47.5 -50t34.5 -75.5t13.5 -105.5q0 -95 -41 -198.5t-112 -203t-166.5 -189t-203 -157t-222 -107.5t-224.5 -40q-55 0 -106.5 14t-91 46.5t-63.5 86t-24 133.5q0 139 96.5 311.5
t297.5 360.5q81 75 169 136t168.5 104t146.5 66.5t103 23.5zM1024 1085q-21 0 -60.5 -8t-83 -23.5t-84 -39t-65.5 -53.5q-22 -26 -49 -46.5t-48 -20.5q-5 0 -10.5 1.5t-10.5 1.5q-19 0 -39.5 -14.5t-49.5 -38.5q-82 -68 -149 -144.5t-114 -153.5t-73 -151.5t-26 -138.5
q0 -84 31 -128t112 -44q80 0 178 37.5t198.5 101.5t195 147.5t168.5 176t118.5 187.5t44.5 181q0 77 -44.5 123.5t-139.5 46.5zM768 1726q11 20 29.5 29.5t38.5 9.5q17 0 32 -7.5t21 -24.5q15 -42 36.5 -78t45.5 -65t49 -51.5t47 -37.5q20 -14 28.5 -28t8.5 -27
q0 -12 -5.5 -22t-14.5 -17.5t-20.5 -12t-22.5 -4.5t-36.5 19t-57.5 54t-65.5 83t-58.5 107q-24 -47 -55.5 -94.5t-67 -94t-74 -90.5t-75.5 -84q-22 -23 -37 -23q-14 0 -20.5 14.5t-6.5 35.5q0 23 8 48t25 44q15 16 44.5 49t65 76t72.5 92.5t66 99.5z" />
    <glyph glyph-name="Otilde" unicode="&#xd5;" horiz-adv-x="1366" 
d="M1038 1274q54 0 88.5 -18t34.5 -60q0 -11 -4 -20t-4 -17t10 -12q26 -10 52.5 -29t47.5 -50t34.5 -75.5t13.5 -105.5q0 -95 -41 -198.5t-112 -203t-166.5 -189t-203 -157t-222 -107.5t-224.5 -40q-55 0 -106.5 14t-91 46.5t-63.5 86t-24 133.5q0 139 96.5 311.5
t297.5 360.5q81 75 169 136t168.5 104t146.5 66.5t103 23.5zM1024 1085q-21 0 -60.5 -8t-83 -23.5t-84 -39t-65.5 -53.5q-22 -26 -49 -46.5t-48 -20.5q-5 0 -10.5 1.5t-10.5 1.5q-19 0 -39.5 -14.5t-49.5 -38.5q-82 -68 -149 -144.5t-114 -153.5t-73 -151.5t-26 -138.5
q0 -84 31 -128t112 -44q80 0 178 37.5t198.5 101.5t195 147.5t168.5 176t118.5 187.5t44.5 181q0 77 -44.5 123.5t-139.5 46.5zM428 1372q36 55 74 101t75.5 79t74.5 51.5t72 18.5q39 0 73.5 -25.5t62.5 -81.5q28 -57 77 -57q51 0 122 54t162 144q39 38 59 38q12 0 12 -16
q0 -14 -12.5 -40t-38.5 -59q-97 -123 -180 -183.5t-147 -60.5q-72 0 -113 71q-30 51 -54 77t-50 26q-18 0 -38 -12t-44.5 -36t-55.5 -60.5t-71 -84.5q-17 -20 -33.5 -29t-27.5 -9q-24 0 -24 28q0 12 5.5 28.5t19.5 37.5z" />
    <glyph glyph-name="Odieresis" unicode="&#xd6;" horiz-adv-x="1366" 
d="M1038 1274q54 0 88.5 -18t34.5 -60q0 -11 -4 -20t-4 -17t10 -12q26 -10 52.5 -29t47.5 -50t34.5 -75.5t13.5 -105.5q0 -95 -41 -198.5t-112 -203t-166.5 -189t-203 -157t-222 -107.5t-224.5 -40q-55 0 -106.5 14t-91 46.5t-63.5 86t-24 133.5q0 139 96.5 311.5
t297.5 360.5q81 75 169 136t168.5 104t146.5 66.5t103 23.5zM1024 1085q-21 0 -60.5 -8t-83 -23.5t-84 -39t-65.5 -53.5q-22 -26 -49 -46.5t-48 -20.5q-5 0 -10.5 1.5t-10.5 1.5q-19 0 -39.5 -14.5t-49.5 -38.5q-82 -68 -149 -144.5t-114 -153.5t-73 -151.5t-26 -138.5
q0 -84 31 -128t112 -44q80 0 178 37.5t198.5 101.5t195 147.5t168.5 176t118.5 187.5t44.5 181q0 77 -44.5 123.5t-139.5 46.5zM709 1529q31 0 46.5 -20.5t15.5 -49.5q0 -38 -23.5 -61t-60.5 -23q-31 0 -47.5 19t-16.5 51q0 16 6.5 31t17.5 27t27 19t35 7zM1133 1598
q31 0 46 -20t15 -49q0 -38 -23 -61t-61 -23q-30 0 -46.5 18.5t-16.5 50.5q0 16 6.5 31t17.5 27t27 19t35 7z" />
    <glyph glyph-name="multiply" unicode="&#xd7;" horiz-adv-x="956" 
d="M76 1110q0 10 5 17.5t17 7.5q7 0 21.5 -12.5t33.5 -35t42 -53.5t49 -67q25 -35 72 -93.5t106 -128.5q74 77 142 146t120 145q23 33 39 58t29 41.5t24 25t25 8.5q19 0 28.5 -14.5t9.5 -47.5q0 -49 -17 -100.5t-46 -91.5q-47 -66 -114.5 -137.5t-139.5 -146.5
q52 -60 106.5 -117.5t102.5 -107.5q33 -34 65.5 -65t58.5 -57t42 -45.5t16 -30.5q0 -9 -3.5 -18.5t-10 -18t-15.5 -14t-20 -5.5q-17 0 -46 20.5t-62.5 50.5t-68 65.5t-62.5 65.5q-39 42 -82.5 91t-91.5 106q-41 -45 -77.5 -89t-66.5 -89q-52 -77 -80.5 -131t-45 -87.5
t-27.5 -49t-29 -15.5q-7 0 -15 6t-15.5 19t-12.5 34t-5 52q0 52 24 124t89 156q42 54 82 100.5t80 90.5l-109 141q-39 50 -70 99.5t-52.5 90.5t-33 69.5t-11.5 37.5z" />
    <glyph glyph-name="Oslash" unicode="&#xd8;" horiz-adv-x="1366" 
d="M1083 1270q25 38 44 73.5t35.5 63.5t31 44.5t31.5 16.5q18 0 28.5 -19.5t10.5 -57.5q0 -23 -21 -70t-57 -107l-33 -55q0 -10 10 -12q26 -10 52.5 -29t47.5 -50t34.5 -75.5t13.5 -105.5q0 -94 -40 -196t-109.5 -200.5t-163 -187t-199.5 -156.5t-219 -109t-222 -44
q-40 -79 -60 -133t-32.5 -87t-22.5 -47t-30 -14q-12 0 -20.5 20.5t-8.5 59.5q0 38 10.5 91t36.5 122q-37 12 -68.5 32.5t-55 53t-37 77t-13.5 103.5q0 139 96.5 311.5t297.5 360.5q81 75 169 136t168.5 104t146.5 66.5t103 23.5q13 0 23.5 -1t21.5 -3zM1208 915
q0 60 -26.5 102.5t-85.5 57.5q-63 -89 -146.5 -198.5t-175 -234t-183.5 -261.5t-173 -281q81 22 171 69.5t178 112.5t168 143.5t140.5 161.5t96.5 167t36 161zM162 256q0 -72 22.5 -115.5t81.5 -54.5q2 6 4.5 11t5.5 12q61 125 143.5 250t173 247.5t182.5 240t173 226.5
q-28 -6 -59 -16t-60.5 -24.5t-55 -32.5t-42.5 -39q-21 -26 -48.5 -46.5t-48.5 -20.5q-5 0 -10.5 1.5t-10.5 1.5q-19 0 -39.5 -14.5t-49.5 -38.5q-82 -68 -149 -144.5t-114 -153.5t-73 -151.5t-26 -138.5z" />
    <glyph glyph-name="Ugrave" unicode="&#xd9;" horiz-adv-x="1446" 
d="M336 1294q34 0 52 -37.5t18 -128.5q0 -13 -3.5 -51.5t-9 -94t-13 -124t-15 -140t-14.5 -143t-12.5 -133.5t-9 -110t-3.5 -74q0 -37 8.5 -63.5t30 -44t57.5 -25.5t90 -8q45 0 95.5 5.5t101.5 15t101 21.5t93 25.5t77.5 26.5t55.5 25q32 18 49.5 42.5t25.5 55t9.5 65
t1.5 72.5q0 29 -5.5 77t-14.5 106.5t-20 122t-21.5 124t-20 112.5t-14.5 87q-8 50 -14 102t-6 97q0 48 11 79t42 31q22 0 38.5 -25.5t27.5 -65t16.5 -86.5t5.5 -89q0 -26 -1.5 -49t-6.5 -39q5 -29 14 -80.5t19.5 -117t21 -141.5t18.5 -153.5t13.5 -153t5.5 -139.5
t-36.5 -114.5t-97.5 -88t-140.5 -63.5t-165.5 -42t-172.5 -23t-161.5 -7q-80 0 -127.5 24t-72.5 66t-32.5 99.5t-7.5 124.5q0 25 3 74.5t7.5 115t10.5 141.5t12.5 153t12.5 151t10.5 134.5t8 103t3.5 57.5q1 30 2.5 52t7 36.5t15 22t26.5 7.5zM221 1747q0 19 8.5 35t22.5 16
q10 0 22 -9t28.5 -23.5t37.5 -33.5t48 -38q11 -8 47.5 -30.5t85 -52t103.5 -63t104.5 -63.5t86.5 -53.5t50 -32.5q30 -23 43.5 -47.5t13.5 -42.5q0 -23 -19 -23q-14 0 -31.5 9.5t-35.5 23.5q-8 6 -43 25t-84.5 46t-108 59t-114.5 63.5t-103.5 60.5t-74.5 49q-26 19 -43 37
t-27 34t-13.5 29.5t-3.5 24.5z" />
    <glyph glyph-name="Uacute" unicode="&#xda;" horiz-adv-x="1446" 
d="M336 1294q34 0 52 -37.5t18 -128.5q0 -13 -3.5 -51.5t-9 -94t-13 -124t-15 -140t-14.5 -143t-12.5 -133.5t-9 -110t-3.5 -74q0 -37 8.5 -63.5t30 -44t57.5 -25.5t90 -8q45 0 95.5 5.5t101.5 15t101 21.5t93 25.5t77.5 26.5t55.5 25q32 18 49.5 42.5t25.5 55t9.5 65
t1.5 72.5q0 29 -5.5 77t-14.5 106.5t-20 122t-21.5 124t-20 112.5t-14.5 87q-8 50 -14 102t-6 97q0 48 11 79t42 31q22 0 38.5 -25.5t27.5 -65t16.5 -86.5t5.5 -89q0 -26 -1.5 -49t-6.5 -39q5 -29 14 -80.5t19.5 -117t21 -141.5t18.5 -153.5t13.5 -153t5.5 -139.5
t-36.5 -114.5t-97.5 -88t-140.5 -63.5t-165.5 -42t-172.5 -23t-161.5 -7q-80 0 -127.5 24t-72.5 66t-32.5 99.5t-7.5 124.5q0 25 3 74.5t7.5 115t10.5 141.5t12.5 153t12.5 151t10.5 134.5t8 103t3.5 57.5q1 30 2.5 52t7 36.5t15 22t26.5 7.5zM1076 1780q5 -12 8.5 -23.5
t3.5 -24.5q0 -18 -8.5 -40t-28.5 -51q-22 -31 -58 -70t-79 -81.5t-89.5 -84.5t-88 -78.5t-75 -65t-50.5 -42.5t-36 -20.5t-34 -6.5q-30 0 -30 22q0 28 53 75q58 51 122 114.5t123.5 129t110.5 128.5t84 113q10 14 20 23t21 9q18 0 31 -26z" />
    <glyph glyph-name="Ucircumflex" unicode="&#xdb;" horiz-adv-x="1446" 
d="M336 1294q34 0 52 -37.5t18 -128.5q0 -13 -3.5 -51.5t-9 -94t-13 -124t-15 -140t-14.5 -143t-12.5 -133.5t-9 -110t-3.5 -74q0 -37 8.5 -63.5t30 -44t57.5 -25.5t90 -8q45 0 95.5 5.5t101.5 15t101 21.5t93 25.5t77.5 26.5t55.5 25q32 18 49.5 42.5t25.5 55t9.5 65
t1.5 72.5q0 29 -5.5 77t-14.5 106.5t-20 122t-21.5 124t-20 112.5t-14.5 87q-8 50 -14 102t-6 97q0 48 11 79t42 31q22 0 38.5 -25.5t27.5 -65t16.5 -86.5t5.5 -89q0 -26 -1.5 -49t-6.5 -39q5 -29 14 -80.5t19.5 -117t21 -141.5t18.5 -153.5t13.5 -153t5.5 -139.5
t-36.5 -114.5t-97.5 -88t-140.5 -63.5t-165.5 -42t-172.5 -23t-161.5 -7q-80 0 -127.5 24t-72.5 66t-32.5 99.5t-7.5 124.5q0 25 3 74.5t7.5 115t10.5 141.5t12.5 153t12.5 151t10.5 134.5t8 103t3.5 57.5q1 30 2.5 52t7 36.5t15 22t26.5 7.5zM682 1783q11 20 29.5 29.5
t38.5 9.5q17 0 32 -7.5t21 -24.5q15 -42 36.5 -78t45.5 -65t49 -51.5t47 -37.5q20 -14 28.5 -28t8.5 -27q0 -12 -5.5 -22t-14.5 -17.5t-20.5 -12t-22.5 -4.5t-36.5 19t-57.5 54t-65.5 83t-58.5 107q-24 -47 -55.5 -94.5t-67 -94t-74 -90.5t-75.5 -84q-22 -23 -37 -23
q-14 0 -20.5 14.5t-6.5 35.5q0 23 8 48t25 44q15 16 44.5 49t65 76t72.5 92.5t66 99.5z" />
    <glyph glyph-name="Udieresis" unicode="&#xdc;" horiz-adv-x="1446" 
d="M336 1294q34 0 52 -37.5t18 -128.5q0 -13 -3.5 -51.5t-9 -94t-13 -124t-15 -140t-14.5 -143t-12.5 -133.5t-9 -110t-3.5 -74q0 -37 8.5 -63.5t30 -44t57.5 -25.5t90 -8q45 0 95.5 5.5t101.5 15t101 21.5t93 25.5t77.5 26.5t55.5 25q32 18 49.5 42.5t25.5 55t9.5 65
t1.5 72.5q0 29 -5.5 77t-14.5 106.5t-20 122t-21.5 124t-20 112.5t-14.5 87q-8 50 -14 102t-6 97q0 48 11 79t42 31q22 0 38.5 -25.5t27.5 -65t16.5 -86.5t5.5 -89q0 -26 -1.5 -49t-6.5 -39q5 -29 14 -80.5t19.5 -117t21 -141.5t18.5 -153.5t13.5 -153t5.5 -139.5
t-36.5 -114.5t-97.5 -88t-140.5 -63.5t-165.5 -42t-172.5 -23t-161.5 -7q-80 0 -127.5 24t-72.5 66t-32.5 99.5t-7.5 124.5q0 25 3 74.5t7.5 115t10.5 141.5t12.5 153t12.5 151t10.5 134.5t8 103t3.5 57.5q1 30 2.5 52t7 36.5t15 22t26.5 7.5zM487 1577q31 0 46.5 -20.5
t15.5 -49.5q0 -38 -23.5 -61t-60.5 -23q-31 0 -47.5 19t-16.5 51q0 16 6.5 31t17.5 27t27 19t35 7zM911 1646q31 0 46 -20t15 -49q0 -38 -23 -61t-61 -23q-30 0 -46.5 18.5t-16.5 50.5q0 16 6.5 31t17.5 27t27 19t35 7z" />
    <glyph glyph-name="Yacute" unicode="&#xdd;" horiz-adv-x="1384" 
d="M610 707q-61 14 -127.5 49.5t-131 84t-123 106t-103 115t-70.5 111t-26 95.5q0 24 11 33.5t34 9.5q14 0 24.5 -3.5t20 -11.5t19 -20.5t22.5 -30.5q45 -63 89 -116t92.5 -99t104 -86t123.5 -76q23 -12 43.5 -17t39.5 -5q34 0 63 13t65 38q61 42 114.5 88.5t98 90.5t81 83
t65.5 66q34 32 61.5 60.5t49.5 50t39.5 34t31.5 12.5q12 0 23.5 -8t11.5 -39q0 -10 -19.5 -37t-50 -62.5t-68 -76.5t-74 -80t-68.5 -71.5t-50 -51.5q-19 -20 -52.5 -53.5t-73.5 -69.5t-83 -68t-82 -50q0 -20 -1 -74.5t-2 -126.5t-3 -154.5t-3 -160t-2 -141.5t-1 -99
q0 -54 -12.5 -97t-30.5 -73t-37.5 -45.5t-34.5 -15.5q-36 0 -36 64q0 38 14 102q4 20 7.5 60.5t5.5 94.5t4 117t3 128.5t2 130t1.5 119.5t0.5 97.5v65.5zM967 1851q5 -12 8.5 -23.5t3.5 -24.5q0 -18 -8.5 -40t-28.5 -51q-22 -31 -58 -70t-79 -81.5t-89.5 -84.5t-88 -78.5
t-75 -65t-50.5 -42.5t-36 -20.5t-34 -6.5q-30 0 -30 22q0 28 53 75q58 51 122 114.5t123.5 129t110.5 128.5t84 113q10 14 20 23t21 9q18 0 31 -26z" />
    <glyph glyph-name="Thorn" unicode="&#xde;" horiz-adv-x="1380" 
d="M129 901h58t57 2v240q0 44 -1 74.5t-1 50.5q0 28 4 38.5t18 10.5q23 0 48 -39.5t38 -120.5q4 -23 6.5 -89.5t5.5 -160.5q85 6 164 13t151.5 14t140 11.5t130.5 4.5q108 0 180 -7.5t115.5 -24.5t61.5 -45t18 -68q0 -68 -36.5 -135.5t-100 -129.5t-148 -115.5t-181 -93.5
t-199.5 -62.5t-203 -22.5h-38.5t-37.5 2q2 -90 2 -153.5v-86.5q0 -42 -8.5 -75t-22 -55.5t-30.5 -34t-33 -11.5q-14 0 -22.5 15t-12.5 43t-5 68t-1 89v246q-25 21 -25 63q0 28 5.5 40.5t19.5 17.5q0 88 -1 178t-1 178q-31 2 -60.5 13t-53 25.5t-38 29t-14.5 24.5
q0 22 13 30.5t38 8.5zM367 774q3 -91 4.5 -185.5t3.5 -185.5q17 -2 35.5 -3t40.5 -1q91 0 183.5 20t177.5 52.5t159 74.5t128.5 86.5t86 87t31.5 77.5q0 21 -55.5 34t-174.5 13q-77 0 -154 -9t-154.5 -21t-155.5 -23.5t-156 -16.5z" />
    <glyph glyph-name="germandbls" unicode="&#xdf;" horiz-adv-x="1399" 
d="M299 823v-84.5t2 -120.5q27 100 72 188.5t101.5 163t122.5 133.5t135.5 100t140.5 63t137 22q58 0 91.5 -30.5t33.5 -90.5q0 -74 -31.5 -145t-84 -134t-120 -115.5t-139.5 -88.5q65 17 139 30t158 13q128 0 199 -52.5t71 -142.5q0 -60 -30 -116.5t-80.5 -108.5
t-116.5 -98t-138 -85t-145.5 -70.5t-138.5 -53.5t-116.5 -33.5t-80.5 -11.5q-24 0 -39 12t-23 28.5t-10.5 34.5t-2.5 31q0 26 16 31.5t47 5.5q64 0 146 21t166.5 56.5t165.5 81.5t144 96t101.5 100t38.5 94q0 42 -45.5 68t-134.5 26q-105 0 -191.5 -17.5t-155 -39t-121 -39
t-89.5 -17.5q-28 0 -39 18t-11 60q0 12 2.5 20.5t11 16t24.5 15t42 18.5q105 43 195.5 104.5t157 127t105 127t38.5 104.5q0 21 -13 37t-51 16q-42 0 -106.5 -26.5t-136.5 -82t-144.5 -141.5t-130.5 -205.5t-94.5 -274.5t-36.5 -347q0 -51 1.5 -108.5l3 -115t4 -111.5
t4.5 -98t3.5 -74.5t2.5 -41.5q1 -8 1 -15.5v-14.5q0 -62 -19.5 -89t-45.5 -27q-29 0 -38 28.5t-13 88.5q-1 15 -2 71t-2 139.5t-2 186.5t-2 212.5t-1.5 217.5t-1 201.5t-1 164.5t-0.5 106q0 34 0.5 62.5t5 48.5t14 31t27.5 11t28.5 -12.5t16 -35t7 -52.5t1.5 -66z" />
    <glyph glyph-name="agrave" unicode="&#xe0;" horiz-adv-x="1311" 
d="M1012 1028q40 0 59 -14.5t19 -52.5q0 -10 -1.5 -17.5t-3.5 -13.5q7 2 14 2h15q37 0 55.5 -16t18.5 -42q0 -52 -30 -117.5t-83 -140.5q-1 -7 -1 -14v-15q0 -15 0.5 -30t0.5 -29q0 -28 4 -66.5t11 -82t16 -90t18.5 -89.5t18.5 -79.5t16 -61.5q5 -14 6.5 -28t1.5 -27
q0 -35 -13.5 -58.5t-39.5 -23.5q-13 0 -28.5 26.5t-32 71t-33 102t-30 118.5t-23 121.5t-13.5 111.5q-81 -87 -179 -168t-200 -143.5t-202 -100.5t-185 -38q-35 0 -60 12t-42 33t-25 48.5t-8 59.5q0 57 29 124t78.5 137.5t116.5 142t142.5 137t156.5 122.5t159 99t149.5 66
t127.5 24zM954 612q3 85 17.5 157t48.5 116q-6 1 -12 1.5t-12 0.5q-12 0 -24 -1.5t-26 -6.5q-79 -25 -167 -76t-174 -116t-164 -139t-137.5 -145t-94.5 -133.5t-35 -105.5q0 -37 39 -37q31 0 82 16t115 46.5t136 73.5t144 97t140 117.5t124 134.5zM316 1535q0 19 8.5 35
t22.5 16q10 0 22 -9t28.5 -23.5t37.5 -33.5t48 -38q11 -8 47.5 -30.5t85 -52t103.5 -63t104.5 -63.5t86.5 -53.5t50 -32.5q30 -23 43.5 -47.5t13.5 -42.5q0 -23 -19 -23q-14 0 -31.5 9.5t-35.5 23.5q-8 6 -43 25t-84.5 46t-108 59t-114.5 63.5t-103.5 60.5t-74.5 49
q-26 19 -43 37t-27 34t-13.5 29.5t-3.5 24.5z" />
    <glyph glyph-name="aacute" unicode="&#xe1;" horiz-adv-x="1311" 
d="M1012 1028q40 0 59 -14.5t19 -52.5q0 -10 -1.5 -17.5t-3.5 -13.5q7 2 14 2h15q37 0 55.5 -16t18.5 -42q0 -52 -30 -117.5t-83 -140.5q-1 -7 -1 -14v-15q0 -15 0.5 -30t0.5 -29q0 -28 4 -66.5t11 -82t16 -90t18.5 -89.5t18.5 -79.5t16 -61.5q5 -14 6.5 -28t1.5 -27
q0 -35 -13.5 -58.5t-39.5 -23.5q-13 0 -28.5 26.5t-32 71t-33 102t-30 118.5t-23 121.5t-13.5 111.5q-81 -87 -179 -168t-200 -143.5t-202 -100.5t-185 -38q-35 0 -60 12t-42 33t-25 48.5t-8 59.5q0 57 29 124t78.5 137.5t116.5 142t142.5 137t156.5 122.5t159 99t149.5 66
t127.5 24zM954 612q3 85 17.5 157t48.5 116q-6 1 -12 1.5t-12 0.5q-12 0 -24 -1.5t-26 -6.5q-79 -25 -167 -76t-174 -116t-164 -139t-137.5 -145t-94.5 -133.5t-35 -105.5q0 -37 39 -37q31 0 82 16t115 46.5t136 73.5t144 97t140 117.5t124 134.5zM930 1538q5 -12 8.5 -23.5
t3.5 -24.5q0 -18 -8.5 -40t-28.5 -51q-22 -31 -58 -70t-79 -81.5t-89.5 -84.5t-88 -78.5t-75 -65t-50.5 -42.5t-36 -20.5t-34 -6.5q-30 0 -30 22q0 28 53 75q58 51 122 114.5t123.5 129t110.5 128.5t84 113q10 14 20 23t21 9q18 0 31 -26z" />
    <glyph glyph-name="acircumflex" unicode="&#xe2;" horiz-adv-x="1311" 
d="M1012 1028q40 0 59 -14.5t19 -52.5q0 -10 -1.5 -17.5t-3.5 -13.5q7 2 14 2h15q37 0 55.5 -16t18.5 -42q0 -52 -30 -117.5t-83 -140.5q-1 -7 -1 -14v-15q0 -15 0.5 -30t0.5 -29q0 -28 4 -66.5t11 -82t16 -90t18.5 -89.5t18.5 -79.5t16 -61.5q5 -14 6.5 -28t1.5 -27
q0 -35 -13.5 -58.5t-39.5 -23.5q-13 0 -28.5 26.5t-32 71t-33 102t-30 118.5t-23 121.5t-13.5 111.5q-81 -87 -179 -168t-200 -143.5t-202 -100.5t-185 -38q-35 0 -60 12t-42 33t-25 48.5t-8 59.5q0 57 29 124t78.5 137.5t116.5 142t142.5 137t156.5 122.5t159 99t149.5 66
t127.5 24zM954 612q3 85 17.5 157t48.5 116q-6 1 -12 1.5t-12 0.5q-12 0 -24 -1.5t-26 -6.5q-79 -25 -167 -76t-174 -116t-164 -139t-137.5 -145t-94.5 -133.5t-35 -105.5q0 -37 39 -37q31 0 82 16t115 46.5t136 73.5t144 97t140 117.5t124 134.5zM610 1470q11 20 29.5 29.5
t38.5 9.5q17 0 32 -7.5t21 -24.5q15 -42 36.5 -78t45.5 -65t49 -51.5t47 -37.5q20 -14 28.5 -28t8.5 -27q0 -12 -5.5 -22t-14.5 -17.5t-20.5 -12t-22.5 -4.5t-36.5 19t-57.5 54t-65.5 83t-58.5 107q-24 -47 -55.5 -94.5t-67 -94t-74 -90.5t-75.5 -84q-22 -23 -37 -23
q-14 0 -20.5 14.5t-6.5 35.5q0 23 8 48t25 44q15 16 44.5 49t65 76t72.5 92.5t66 99.5z" />
    <glyph glyph-name="atilde" unicode="&#xe3;" horiz-adv-x="1311" 
d="M1012 1028q40 0 59 -14.5t19 -52.5q0 -10 -1.5 -17.5t-3.5 -13.5q7 2 14 2h15q37 0 55.5 -16t18.5 -42q0 -52 -30 -117.5t-83 -140.5q-1 -7 -1 -14v-15q0 -15 0.5 -30t0.5 -29q0 -28 4 -66.5t11 -82t16 -90t18.5 -89.5t18.5 -79.5t16 -61.5q5 -14 6.5 -28t1.5 -27
q0 -35 -13.5 -58.5t-39.5 -23.5q-13 0 -28.5 26.5t-32 71t-33 102t-30 118.5t-23 121.5t-13.5 111.5q-81 -87 -179 -168t-200 -143.5t-202 -100.5t-185 -38q-35 0 -60 12t-42 33t-25 48.5t-8 59.5q0 57 29 124t78.5 137.5t116.5 142t142.5 137t156.5 122.5t159 99t149.5 66
t127.5 24zM954 612q3 85 17.5 157t48.5 116q-6 1 -12 1.5t-12 0.5q-12 0 -24 -1.5t-26 -6.5q-79 -25 -167 -76t-174 -116t-164 -139t-137.5 -145t-94.5 -133.5t-35 -105.5q0 -37 39 -37q31 0 82 16t115 46.5t136 73.5t144 97t140 117.5t124 134.5zM239 1096q36 55 74 101
t75.5 79t74.5 51.5t72 18.5q39 0 73.5 -25.5t62.5 -81.5q28 -57 77 -57q51 0 122 54t162 144q39 38 59 38q12 0 12 -16q0 -14 -12.5 -40t-38.5 -59q-97 -123 -180 -183.5t-147 -60.5q-72 0 -113 71q-30 51 -54 77t-50 26q-18 0 -38 -12t-44.5 -36t-55.5 -60.5t-71 -84.5
q-17 -20 -33.5 -29t-27.5 -9q-24 0 -24 28q0 12 5.5 28.5t19.5 37.5z" />
    <glyph glyph-name="adieresis" unicode="&#xe4;" horiz-adv-x="1311" 
d="M1012 1028q40 0 59 -14.5t19 -52.5q0 -10 -1.5 -17.5t-3.5 -13.5q7 2 14 2h15q37 0 55.5 -16t18.5 -42q0 -52 -30 -117.5t-83 -140.5q-1 -7 -1 -14v-15q0 -15 0.5 -30t0.5 -29q0 -28 4 -66.5t11 -82t16 -90t18.5 -89.5t18.5 -79.5t16 -61.5q5 -14 6.5 -28t1.5 -27
q0 -35 -13.5 -58.5t-39.5 -23.5q-13 0 -28.5 26.5t-32 71t-33 102t-30 118.5t-23 121.5t-13.5 111.5q-81 -87 -179 -168t-200 -143.5t-202 -100.5t-185 -38q-35 0 -60 12t-42 33t-25 48.5t-8 59.5q0 57 29 124t78.5 137.5t116.5 142t142.5 137t156.5 122.5t159 99t149.5 66
t127.5 24zM954 612q3 85 17.5 157t48.5 116q-6 1 -12 1.5t-12 0.5q-12 0 -24 -1.5t-26 -6.5q-79 -25 -167 -76t-174 -116t-164 -139t-137.5 -145t-94.5 -133.5t-35 -105.5q0 -37 39 -37q31 0 82 16t115 46.5t136 73.5t144 97t140 117.5t124 134.5zM455 1358q31 0 46.5 -20.5
t15.5 -49.5q0 -38 -23.5 -61t-60.5 -23q-31 0 -47.5 19t-16.5 51q0 16 6.5 31t17.5 27t27 19t35 7zM879 1427q31 0 46 -20t15 -49q0 -38 -23 -61t-61 -23q-30 0 -46.5 18.5t-16.5 50.5q0 16 6.5 31t17.5 27t27 19t35 7z" />
    <glyph glyph-name="aring" unicode="&#xe5;" horiz-adv-x="1311" 
d="M1012 1028q40 0 59 -14.5t19 -52.5q0 -10 -1.5 -17.5t-3.5 -13.5q7 2 14 2h15q37 0 55.5 -16t18.5 -42q0 -52 -30 -117.5t-83 -140.5q-1 -7 -1 -14v-15q0 -15 0.5 -30t0.5 -29q0 -28 4 -66.5t11 -82t16 -90t18.5 -89.5t18.5 -79.5t16 -61.5q5 -14 6.5 -28t1.5 -27
q0 -35 -13.5 -58.5t-39.5 -23.5q-13 0 -28.5 26.5t-32 71t-33 102t-30 118.5t-23 121.5t-13.5 111.5q-81 -87 -179 -168t-200 -143.5t-202 -100.5t-185 -38q-35 0 -60 12t-42 33t-25 48.5t-8 59.5q0 57 29 124t78.5 137.5t116.5 142t142.5 137t156.5 122.5t159 99t149.5 66
t127.5 24zM954 612q3 85 17.5 157t48.5 116q-6 1 -12 1.5t-12 0.5q-12 0 -24 -1.5t-26 -6.5q-79 -25 -167 -76t-174 -116t-164 -139t-137.5 -145t-94.5 -133.5t-35 -105.5q0 -37 39 -37q31 0 82 16t115 46.5t136 73.5t144 97t140 117.5t124 134.5zM741 1444q19 0 39 -10
q9 11 25 17.5t41 6.5q49 0 76.5 -29.5t27.5 -72.5q0 -39 -20.5 -81t-54.5 -82.5t-78.5 -76.5t-93.5 -63.5t-98.5 -43.5t-92.5 -16q-83 0 -118.5 31.5t-35.5 87.5q0 42 21.5 83.5t55.5 78.5t76.5 68t85 53.5t80.5 35.5t64 13zM854 1333q0 14 -9.5 19.5t-23 8t-27 5.5
t-20.5 12q-50 -5 -107 -29t-105 -58t-80 -74.5t-32 -77.5q0 -20 12 -32.5t44 -12.5q37 0 77.5 12t79 31.5t73.5 44.5t61 51.5t41.5 52.5t15.5 47z" />
    <glyph glyph-name="ae" unicode="&#xe6;" horiz-adv-x="1841" 
d="M1141 -29q-62 0 -126.5 15t-116.5 48.5t-85 88t-33 133.5v18.5t2 18.5q-63 -75 -138 -139t-156.5 -111.5t-168 -74.5t-172.5 -27q-35 0 -60 12t-42 33t-25 48.5t-8 59.5q0 57 34 114.5t93 110t139.5 98t172.5 79t192 52.5t199 19q23 48 36 96.5t13 98.5q0 51 -22.5 73.5
t-77.5 22.5q-40 0 -90 -13t-102 -32.5t-101 -44t-87.5 -48t-62 -42.5t-23.5 -29q0 -3 2 -6t2 -6q0 -7 -9 -13t-20 -10t-21.5 -6t-14.5 -2q-5 0 -13 7.5t-16 19.5t-14 26.5t-6 28.5t24 40.5t66.5 58.5t99.5 65.5t123 60.5t137 44.5t142 17.5q50 0 87.5 -12.5t62 -35t37 -53
t12.5 -67.5t-6 -75t-17 -77q69 68 152 124t167.5 95.5t166 61.5t147.5 22q52 0 89 -10.5t60 -29t34 -43.5t11 -54q0 -48 -38 -93.5t-103 -85.5t-150.5 -74.5t-181 -59.5t-194.5 -40.5t-191 -18.5q-20 -38 -30.5 -77t-10.5 -77q0 -35 11.5 -66.5t37.5 -55t68.5 -37
t104.5 -13.5q89 0 180 24t177.5 64t166 93t145.5 112q25 22 37 22q10 0 10 -13q0 -11 -7.5 -29.5t-22.5 -37.5q-30 -38 -73 -81.5t-95 -86.5t-112.5 -82.5t-125.5 -70t-134 -48.5t-138 -18zM172 45q38 0 85 13.5t99 39t106.5 60.5t107.5 78.5t102 93.5t90 104
q-154 -15 -271.5 -60t-197 -100t-120 -108t-40.5 -84q0 -37 39 -37zM1636 872q-55 0 -129.5 -21.5t-154.5 -59.5t-158.5 -91t-140.5 -116q80 10 160 27.5t153.5 39t136.5 45.5t109.5 47.5t73 44.5t26.5 37q0 17 -20.5 32t-55.5 15z" />
    <glyph glyph-name="ccedilla" unicode="&#xe7;" horiz-adv-x="1090" 
d="M770 145q-5 2 -8 9q-55 -39 -114.5 -72.5t-123.5 -58t-132 -38.5t-138 -14q-102 0 -151.5 47.5t-49.5 147.5q0 86 38.5 177t102 178.5t146.5 168.5t172.5 147.5t179 115.5t166.5 73q44 14 70 14q25 0 40 -12.5t15 -35.5q0 -25 -20.5 -50t-53 -49.5t-73.5 -47.5t-82 -42
t-78 -33t-62 -22q-40 -25 -86.5 -65.5t-94 -90t-91.5 -105t-77.5 -111t-54 -109t-20.5 -97.5q0 -15 5 -29.5t16.5 -26t29 -18t42.5 -6.5q64 0 132.5 17.5t137.5 48t137 71.5t131 87t119.5 95.5t103.5 96.5q21 22 35 22q11 0 11 -16q0 -23 -25.5 -62t-65.5 -83.5t-89 -90.5
t-97 -83l6 -5q37 -32 55.5 -80.5t18.5 -107.5q0 -101 -38.5 -186.5t-103.5 -147.5t-149.5 -96.5t-175.5 -34.5q-56 0 -99 14t-72 36.5t-43.5 51.5t-14.5 58q0 45 20 45q10 0 18 -13.5t23.5 -29.5t44.5 -29.5t80 -13.5q98 0 177 33.5t134.5 87.5t85 123t29.5 141
q0 34 -8.5 61t-30.5 45z" />
    <glyph glyph-name="egrave" unicode="&#xe8;" 
d="M889 958q52 0 89 -10.5t60 -29t34 -43.5t11 -54q0 -49 -44 -102t-115 -103t-159 -94.5t-176.5 -78t-167.5 -53t-132 -19.5q-29 0 -48.5 18t-25.5 41q-31 -70 -31 -135q0 -35 11.5 -66.5t37.5 -55t68.5 -37t104.5 -13.5q89 0 180 24t177.5 64t166 93t145.5 112
q25 22 37 22q10 0 10 -13q0 -11 -7.5 -29.5t-22.5 -37.5q-30 -38 -73 -81.5t-95 -86.5t-112.5 -82.5t-125.5 -70t-134 -48.5t-138 -18q-62 0 -126.5 15t-116.5 48.5t-85 88t-33 133.5q0 93 42 181t110.5 166t157 143t181.5 112.5t183 73.5t162 26zM252 494q90 19 179.5 46
t171 57.5t151.5 63t121.5 62.5t80.5 56.5t29 45.5q0 17 -20.5 32t-55.5 15q-44 0 -99.5 -13t-116.5 -37t-124 -58t-121.5 -76t-109 -91t-86.5 -103zM214 1505q0 19 8.5 35t22.5 16q10 0 22 -9t28.5 -23.5t37.5 -33.5t48 -38q11 -8 47.5 -30.5t85 -52t103.5 -63t104.5 -63.5
t86.5 -53.5t50 -32.5q30 -23 43.5 -47.5t13.5 -42.5q0 -23 -19 -23q-14 0 -31.5 9.5t-35.5 23.5q-8 6 -43 25t-84.5 46t-108 59t-114.5 63.5t-103.5 60.5t-74.5 49q-26 19 -43 37t-27 34t-13.5 29.5t-3.5 24.5z" />
    <glyph glyph-name="eacute" unicode="&#xe9;" 
d="M889 958q52 0 89 -10.5t60 -29t34 -43.5t11 -54q0 -49 -44 -102t-115 -103t-159 -94.5t-176.5 -78t-167.5 -53t-132 -19.5q-29 0 -48.5 18t-25.5 41q-31 -70 -31 -135q0 -35 11.5 -66.5t37.5 -55t68.5 -37t104.5 -13.5q89 0 180 24t177.5 64t166 93t145.5 112
q25 22 37 22q10 0 10 -13q0 -11 -7.5 -29.5t-22.5 -37.5q-30 -38 -73 -81.5t-95 -86.5t-112.5 -82.5t-125.5 -70t-134 -48.5t-138 -18q-62 0 -126.5 15t-116.5 48.5t-85 88t-33 133.5q0 93 42 181t110.5 166t157 143t181.5 112.5t183 73.5t162 26zM252 494q90 19 179.5 46
t171 57.5t151.5 63t121.5 62.5t80.5 56.5t29 45.5q0 17 -20.5 32t-55.5 15q-44 0 -99.5 -13t-116.5 -37t-124 -58t-121.5 -76t-109 -91t-86.5 -103zM835 1538q5 -12 8.5 -23.5t3.5 -24.5q0 -18 -8.5 -40t-28.5 -51q-22 -31 -58 -70t-79 -81.5t-89.5 -84.5t-88 -78.5t-75 -65
t-50.5 -42.5t-36 -20.5t-34 -6.5q-30 0 -30 22q0 28 53 75q58 51 122 114.5t123.5 129t110.5 128.5t84 113q10 14 20 23t21 9q18 0 31 -26z" />
    <glyph glyph-name="ecircumflex" unicode="&#xea;" 
d="M889 958q52 0 89 -10.5t60 -29t34 -43.5t11 -54q0 -49 -44 -102t-115 -103t-159 -94.5t-176.5 -78t-167.5 -53t-132 -19.5q-29 0 -48.5 18t-25.5 41q-31 -70 -31 -135q0 -35 11.5 -66.5t37.5 -55t68.5 -37t104.5 -13.5q89 0 180 24t177.5 64t166 93t145.5 112
q25 22 37 22q10 0 10 -13q0 -11 -7.5 -29.5t-22.5 -37.5q-30 -38 -73 -81.5t-95 -86.5t-112.5 -82.5t-125.5 -70t-134 -48.5t-138 -18q-62 0 -126.5 15t-116.5 48.5t-85 88t-33 133.5q0 93 42 181t110.5 166t157 143t181.5 112.5t183 73.5t162 26zM252 494q90 19 179.5 46
t171 57.5t151.5 63t121.5 62.5t80.5 56.5t29 45.5q0 17 -20.5 32t-55.5 15q-44 0 -99.5 -13t-116.5 -37t-124 -58t-121.5 -76t-109 -91t-86.5 -103zM567 1421q11 20 29.5 29.5t38.5 9.5q17 0 32 -7.5t21 -24.5q15 -42 36.5 -78t45.5 -65t49 -51.5t47 -37.5q20 -14 28.5 -28
t8.5 -27q0 -12 -5.5 -22t-14.5 -17.5t-20.5 -12t-22.5 -4.5t-36.5 19t-57.5 54t-65.5 83t-58.5 107q-24 -47 -55.5 -94.5t-67 -94t-74 -90.5t-75.5 -84q-22 -23 -37 -23q-14 0 -20.5 14.5t-6.5 35.5q0 23 8 48t25 44q15 16 44.5 49t65 76t72.5 92.5t66 99.5z" />
    <glyph glyph-name="edieresis" unicode="&#xeb;" 
d="M889 958q52 0 89 -10.5t60 -29t34 -43.5t11 -54q0 -49 -44 -102t-115 -103t-159 -94.5t-176.5 -78t-167.5 -53t-132 -19.5q-29 0 -48.5 18t-25.5 41q-31 -70 -31 -135q0 -35 11.5 -66.5t37.5 -55t68.5 -37t104.5 -13.5q89 0 180 24t177.5 64t166 93t145.5 112
q25 22 37 22q10 0 10 -13q0 -11 -7.5 -29.5t-22.5 -37.5q-30 -38 -73 -81.5t-95 -86.5t-112.5 -82.5t-125.5 -70t-134 -48.5t-138 -18q-62 0 -126.5 15t-116.5 48.5t-85 88t-33 133.5q0 93 42 181t110.5 166t157 143t181.5 112.5t183 73.5t162 26zM252 494q90 19 179.5 46
t171 57.5t151.5 63t121.5 62.5t80.5 56.5t29 45.5q0 17 -20.5 32t-55.5 15q-44 0 -99.5 -13t-116.5 -37t-124 -58t-121.5 -76t-109 -91t-86.5 -103zM392 1230q31 0 46.5 -20.5t15.5 -49.5q0 -38 -23.5 -61t-60.5 -23q-31 0 -47.5 19t-16.5 51q0 16 6.5 31t17.5 27t27 19
t35 7zM816 1299q31 0 46 -20t15 -49q0 -38 -23 -61t-61 -23q-30 0 -46.5 18.5t-16.5 50.5q0 16 6.5 31t17.5 27t27 19t35 7z" />
    <glyph glyph-name="igrave" unicode="&#xec;" horiz-adv-x="539" 
d="M256 950q13 0 29.5 -10.5t31.5 -26.5t25 -35.5t10 -37.5q0 -11 -4 -57.5t-9.5 -113.5t-9.5 -145.5t-4 -153.5q0 -97 1.5 -157.5t3 -96.5t3 -53.5t1.5 -26.5q0 -12 -2.5 -22t-10 -17t-22 -11t-37.5 -4q-21 0 -33.5 17t-20 47.5t-10 73.5t-2.5 94q0 163 2.5 298.5t9 233
t18.5 151t30 53.5zM-71 1505q0 19 8.5 35t22.5 16q10 0 22 -9t28.5 -23.5t37.5 -33.5t48 -38q11 -8 47.5 -30.5t85 -52t103.5 -63t104.5 -63.5t86.5 -53.5t50 -32.5q30 -23 43.5 -47.5t13.5 -42.5q0 -23 -19 -23q-14 0 -31.5 9.5t-35.5 23.5q-8 6 -43 25t-84.5 46t-108 59
t-114.5 63.5t-103.5 60.5t-74.5 49q-26 19 -43 37t-27 34t-13.5 29.5t-3.5 24.5z" />
    <glyph glyph-name="iacute" unicode="&#xed;" horiz-adv-x="539" 
d="M256 950q13 0 29.5 -10.5t31.5 -26.5t25 -35.5t10 -37.5q0 -11 -4 -57.5t-9.5 -113.5t-9.5 -145.5t-4 -153.5q0 -97 1.5 -157.5t3 -96.5t3 -53.5t1.5 -26.5q0 -12 -2.5 -22t-10 -17t-22 -11t-37.5 -4q-21 0 -33.5 17t-20 47.5t-10 73.5t-2.5 94q0 163 2.5 298.5t9 233
t18.5 151t30 53.5zM546 1538q5 -12 8.5 -23.5t3.5 -24.5q0 -18 -8.5 -40t-28.5 -51q-22 -31 -58 -70t-79 -81.5t-89.5 -84.5t-88 -78.5t-75 -65t-50.5 -42.5t-36 -20.5t-34 -6.5q-30 0 -30 22q0 28 53 75q58 51 122 114.5t123.5 129t110.5 128.5t84 113q10 14 20 23t21 9
q18 0 31 -26z" />
    <glyph glyph-name="icircumflex" unicode="&#xee;" horiz-adv-x="539" 
d="M256 950q13 0 29.5 -10.5t31.5 -26.5t25 -35.5t10 -37.5q0 -11 -4 -57.5t-9.5 -113.5t-9.5 -145.5t-4 -153.5q0 -97 1.5 -157.5t3 -96.5t3 -53.5t1.5 -26.5q0 -12 -2.5 -22t-10 -17t-22 -11t-37.5 -4q-21 0 -33.5 17t-20 47.5t-10 73.5t-2.5 94q0 163 2.5 298.5t9 233
t18.5 151t30 53.5zM226 1470q11 20 29.5 29.5t38.5 9.5q17 0 32 -7.5t21 -24.5q15 -42 36.5 -78t45.5 -65t49 -51.5t47 -37.5q20 -14 28.5 -28t8.5 -27q0 -12 -5.5 -22t-14.5 -17.5t-20.5 -12t-22.5 -4.5t-36.5 19t-57.5 54t-65.5 83t-58.5 107q-24 -47 -55.5 -94.5t-67 -94
t-74 -90.5t-75.5 -84q-22 -23 -37 -23q-14 0 -20.5 14.5t-6.5 35.5q0 23 8 48t25 44q15 16 44.5 49t65 76t72.5 92.5t66 99.5z" />
    <glyph glyph-name="idieresis" unicode="&#xef;" horiz-adv-x="539" 
d="M256 950q13 0 29.5 -10.5t31.5 -26.5t25 -35.5t10 -37.5q0 -11 -4 -57.5t-9.5 -113.5t-9.5 -145.5t-4 -153.5q0 -97 1.5 -157.5t3 -96.5t3 -53.5t1.5 -26.5q0 -12 -2.5 -22t-10 -17t-22 -11t-37.5 -4q-21 0 -33.5 17t-20 47.5t-10 73.5t-2.5 94q0 163 2.5 298.5t9 233
t18.5 151t30 53.5zM71 1358q31 0 46.5 -20.5t15.5 -49.5q0 -38 -23.5 -61t-60.5 -23q-31 0 -47.5 19t-16.5 51q0 16 6.5 31t17.5 27t27 19t35 7zM495 1427q31 0 46 -20t15 -49q0 -38 -23 -61t-61 -23q-30 0 -46.5 18.5t-16.5 50.5q0 16 6.5 31t17.5 27t27 19t35 7z" />
    <glyph glyph-name="eth" unicode="&#xf0;" horiz-adv-x="1196" 
d="M891 1563q6 3 11 3q14 0 23 -17t9 -40q0 -20 -8.5 -40.5t-28.5 -34.5q-40 -29 -81.5 -58t-84.5 -61q81 -40 152.5 -92.5t125.5 -117t85.5 -141t31.5 -163.5q0 -124 -37.5 -234t-100.5 -202.5t-144.5 -165.5t-170 -123.5t-177 -77.5t-164.5 -27q-132 0 -205.5 63
t-73.5 197q0 66 23.5 135.5t66.5 139t103 135.5t133 124.5t157 107.5t175 83q33 13 57.5 20.5t44.5 7.5q29 0 50 -23.5t21 -65.5q0 -29 -11.5 -47t-30 -30t-43 -19t-50.5 -12.5t-51.5 -12.5t-46.5 -18q-88 -47 -173.5 -108.5t-153 -134t-109 -153t-41.5 -163.5
q0 -72 38 -106t128 -34q67 0 142 26.5t148.5 75t140.5 116t118 149t81.5 174.5t30.5 193q0 82 -29 151t-77.5 125.5t-113 101.5t-136.5 80q-81 -66 -169.5 -145t-186.5 -182q-25 -26 -38 -26q-11 0 -16.5 13t-5.5 34q0 16 3 36t9 40.5t14 40t19 34.5q9 13 31 34.5t54.5 48.5
t72.5 58.5t84 64.5q-96 32 -173 45t-131 20t-83 13t-29 23q0 11 11 19t28 13.5t37.5 8t40.5 2.5q85 0 186 -19.5t203 -56.5q48 34 93.5 66.5t83.5 58.5t66.5 44.5t41.5 25.5z" />
    <glyph glyph-name="ntilde" unicode="&#xf1;" horiz-adv-x="1225" 
d="M289 995q12 0 22.5 -12.5t17.5 -34t11 -49t4 -57.5q0 -20 -1 -54t-1 -79q27 27 63 58t77.5 61.5t86 59t87.5 50t83 34.5t72 13q38 0 75 -22.5t66 -58.5t46.5 -82t17.5 -93v-111.5t0.5 -134.5t0.5 -139.5t0.5 -126.5t0.5 -96v-47q0 -60 -6.5 -94.5t-32.5 -34.5
q-18 0 -32.5 5t-25 21t-16.5 46t-6 79v82.5t-0.5 107t-0.5 118.5t-0.5 116.5t-0.5 101v72.5q0 82 -13 116t-44 34q-15 0 -51.5 -17t-84 -45t-102 -65.5t-105.5 -79t-94 -84t-67 -80.5q-2 -62 -2 -124.5v-121.5q0 -87 -5 -141t-15.5 -83.5t-26.5 -39.5t-39 -10q-27 0 -35 29
t-8 72q0 10 0.5 49t1 97.5t1.5 130.5t1.5 148t1 151t0.5 140q0 45 4.5 86t13.5 72t24 49t36 18zM219 1168q36 55 74 101t75.5 79t74.5 51.5t72 18.5q39 0 73.5 -25.5t62.5 -81.5q28 -57 77 -57q51 0 122 54t162 144q39 38 59 38q12 0 12 -16q0 -14 -12.5 -40t-38.5 -59
q-97 -123 -180 -183.5t-147 -60.5q-72 0 -113 71q-30 51 -54 77t-50 26q-18 0 -38 -12t-44.5 -36t-55.5 -60.5t-71 -84.5q-17 -20 -33.5 -29t-27.5 -9q-24 0 -24 28q0 12 5.5 28.5t19.5 37.5z" />
    <glyph glyph-name="ograve" unicode="&#xf2;" horiz-adv-x="1196" 
d="M897 965q60 0 106.5 -18.5t78.5 -50.5t48.5 -75t16.5 -92q0 -108 -44 -206.5t-116 -183t-163 -152.5t-185 -116t-183.5 -74t-156.5 -26q-62 0 -108.5 13t-77 41.5t-45.5 73t-15 108.5q0 95 37.5 188t101 177t148 156t178 124.5t191 82.5t188.5 30zM907 838
q-38 0 -74 -13.5t-69.5 -34.5t-64 -47.5t-58.5 -52.5q-20 -18 -42 -25t-46 -12t-48.5 -12t-49.5 -25q-59 -42 -110.5 -94.5t-89.5 -110t-59.5 -117t-21.5 -116.5t33 -89t90 -32q58 0 136 26.5t161 72t164.5 107.5t145.5 133t103.5 147.5t39.5 152.5q0 39 -11.5 66.5t-31 44
t-44.5 24t-53 7.5zM255 1505q0 19 8.5 35t22.5 16q10 0 22 -9t28.5 -23.5t37.5 -33.5t48 -38q11 -8 47.5 -30.5t85 -52t103.5 -63t104.5 -63.5t86.5 -53.5t50 -32.5q30 -23 43.5 -47.5t13.5 -42.5q0 -23 -19 -23q-14 0 -31.5 9.5t-35.5 23.5q-8 6 -43 25t-84.5 46t-108 59
t-114.5 63.5t-103.5 60.5t-74.5 49q-26 19 -43 37t-27 34t-13.5 29.5t-3.5 24.5z" />
    <glyph glyph-name="oacute" unicode="&#xf3;" horiz-adv-x="1196" 
d="M897 965q60 0 106.5 -18.5t78.5 -50.5t48.5 -75t16.5 -92q0 -108 -44 -206.5t-116 -183t-163 -152.5t-185 -116t-183.5 -74t-156.5 -26q-62 0 -108.5 13t-77 41.5t-45.5 73t-15 108.5q0 95 37.5 188t101 177t148 156t178 124.5t191 82.5t188.5 30zM907 838
q-38 0 -74 -13.5t-69.5 -34.5t-64 -47.5t-58.5 -52.5q-20 -18 -42 -25t-46 -12t-48.5 -12t-49.5 -25q-59 -42 -110.5 -94.5t-89.5 -110t-59.5 -117t-21.5 -116.5t33 -89t90 -32q58 0 136 26.5t161 72t164.5 107.5t145.5 133t103.5 147.5t39.5 152.5q0 39 -11.5 66.5t-31 44
t-44.5 24t-53 7.5zM934 1538q5 -12 8.5 -23.5t3.5 -24.5q0 -18 -8.5 -40t-28.5 -51q-22 -31 -58 -70t-79 -81.5t-89.5 -84.5t-88 -78.5t-75 -65t-50.5 -42.5t-36 -20.5t-34 -6.5q-30 0 -30 22q0 28 53 75q58 51 122 114.5t123.5 129t110.5 128.5t84 113q10 14 20 23t21 9
q18 0 31 -26z" />
    <glyph glyph-name="ocircumflex" unicode="&#xf4;" horiz-adv-x="1196" 
d="M897 965q60 0 106.5 -18.5t78.5 -50.5t48.5 -75t16.5 -92q0 -108 -44 -206.5t-116 -183t-163 -152.5t-185 -116t-183.5 -74t-156.5 -26q-62 0 -108.5 13t-77 41.5t-45.5 73t-15 108.5q0 95 37.5 188t101 177t148 156t178 124.5t191 82.5t188.5 30zM907 838
q-38 0 -74 -13.5t-69.5 -34.5t-64 -47.5t-58.5 -52.5q-20 -18 -42 -25t-46 -12t-48.5 -12t-49.5 -25q-59 -42 -110.5 -94.5t-89.5 -110t-59.5 -117t-21.5 -116.5t33 -89t90 -32q58 0 136 26.5t161 72t164.5 107.5t145.5 133t103.5 147.5t39.5 152.5q0 39 -11.5 66.5t-31 44
t-44.5 24t-53 7.5zM655 1451q11 20 29.5 29.5t38.5 9.5q17 0 32 -7.5t21 -24.5q15 -42 36.5 -78t45.5 -65t49 -51.5t47 -37.5q20 -14 28.5 -28t8.5 -27q0 -12 -5.5 -22t-14.5 -17.5t-20.5 -12t-22.5 -4.5t-36.5 19t-57.5 54t-65.5 83t-58.5 107q-24 -47 -55.5 -94.5t-67 -94
t-74 -90.5t-75.5 -84q-22 -23 -37 -23q-14 0 -20.5 14.5t-6.5 35.5q0 23 8 48t25 44q15 16 44.5 49t65 76t72.5 92.5t66 99.5z" />
    <glyph glyph-name="otilde" unicode="&#xf5;" horiz-adv-x="1196" 
d="M897 965q60 0 106.5 -18.5t78.5 -50.5t48.5 -75t16.5 -92q0 -108 -44 -206.5t-116 -183t-163 -152.5t-185 -116t-183.5 -74t-156.5 -26q-62 0 -108.5 13t-77 41.5t-45.5 73t-15 108.5q0 95 37.5 188t101 177t148 156t178 124.5t191 82.5t188.5 30zM907 838
q-38 0 -74 -13.5t-69.5 -34.5t-64 -47.5t-58.5 -52.5q-20 -18 -42 -25t-46 -12t-48.5 -12t-49.5 -25q-59 -42 -110.5 -94.5t-89.5 -110t-59.5 -117t-21.5 -116.5t33 -89t90 -32q58 0 136 26.5t161 72t164.5 107.5t145.5 133t103.5 147.5t39.5 152.5q0 39 -11.5 66.5t-31 44
t-44.5 24t-53 7.5zM250 1100q36 55 74 101t75.5 79t74.5 51.5t72 18.5q39 0 73.5 -25.5t62.5 -81.5q28 -57 77 -57q51 0 122 54t162 144q39 38 59 38q12 0 12 -16q0 -14 -12.5 -40t-38.5 -59q-97 -123 -180 -183.5t-147 -60.5q-72 0 -113 71q-30 51 -54 77t-50 26
q-18 0 -38 -12t-44.5 -36t-55.5 -60.5t-71 -84.5q-17 -20 -33.5 -29t-27.5 -9q-24 0 -24 28q0 12 5.5 28.5t19.5 37.5z" />
    <glyph glyph-name="odieresis" unicode="&#xf6;" horiz-adv-x="1196" 
d="M897 965q60 0 106.5 -18.5t78.5 -50.5t48.5 -75t16.5 -92q0 -108 -44 -206.5t-116 -183t-163 -152.5t-185 -116t-183.5 -74t-156.5 -26q-62 0 -108.5 13t-77 41.5t-45.5 73t-15 108.5q0 95 37.5 188t101 177t148 156t178 124.5t191 82.5t188.5 30zM907 838
q-38 0 -74 -13.5t-69.5 -34.5t-64 -47.5t-58.5 -52.5q-20 -18 -42 -25t-46 -12t-48.5 -12t-49.5 -25q-59 -42 -110.5 -94.5t-89.5 -110t-59.5 -117t-21.5 -116.5t33 -89t90 -32q58 0 136 26.5t161 72t164.5 107.5t145.5 133t103.5 147.5t39.5 152.5q0 39 -11.5 66.5t-31 44
t-44.5 24t-53 7.5zM397 1358q31 0 46.5 -20.5t15.5 -49.5q0 -38 -23.5 -61t-60.5 -23q-31 0 -47.5 19t-16.5 51q0 16 6.5 31t17.5 27t27 19t35 7zM821 1427q31 0 46 -20t15 -49q0 -38 -23 -61t-61 -23q-30 0 -46.5 18.5t-16.5 50.5q0 16 6.5 31t17.5 27t27 19t35 7z" />
    <glyph glyph-name="divide" unicode="&#xf7;" horiz-adv-x="1075" 
d="M59 688q7 0 13 -3t18.5 -7t37 -7t69.5 -3q12 0 36.5 1.5t55.5 3.5t66.5 5t69.5 6t62.5 5.5t47.5 4.5q86 9 152 17t120 14t100 10t92 4q23 0 31 -7.5t8 -18.5q0 -9 -4.5 -19.5t-15.5 -21t-30.5 -20.5t-49.5 -17q-33 -9 -102 -24t-166.5 -29.5t-220 -25.5t-261.5 -11
q-153 0 -153 65q0 9 1 22t3.5 25.5t7 21.5t12.5 9zM610 1126q22 0 42 -19t20 -65q0 -34 -21.5 -68.5t-52 -62.5t-63.5 -45.5t-56 -17.5q-34 0 -50.5 14.5t-16.5 46.5q0 47 19 88.5t69 83.5q26 22 56.5 33.5t53.5 11.5zM610 408q22 0 42 -19t20 -65q0 -32 -20.5 -67
t-49.5 -65t-62.5 -49.5t-58.5 -19.5q-29 0 -52 21t-23 53q0 16 2.5 34.5t9 37.5t17.5 36.5t28 32.5q15 13 22.5 16.5t14.5 4.5t15.5 3t23.5 13q17 12 32.5 22.5t38.5 10.5z" />
    <glyph glyph-name="oslash" unicode="&#xf8;" horiz-adv-x="1196" 
d="M242 -238q0 38 14 91t39 118q-62 1 -107.5 14t-75.5 41t-44.5 72.5t-14.5 108.5q0 86 31.5 171.5t86 164t127.5 147.5t156.5 123.5t172.5 91.5t176 51l59 107q19 34 33 66.5t26.5 58.5t25.5 42.5t30 16.5q18 0 33 -16t15 -43q0 -15 -7.5 -38.5t-21 -52.5t-31 -63
t-37.5 -71q52 -5 93 -25t69 -51t42.5 -71.5t14.5 -86.5q0 -94 -33 -180t-89 -162.5t-129.5 -141t-153.5 -115.5t-161.5 -86.5t-154.5 -53.5q-17 -40 -31.5 -79.5t-25.5 -84.5q-17 -68 -32 -102.5t-44 -34.5q-32 0 -41.5 16.5t-9.5 56.5zM907 838q-28 0 -53 -7
q-56 -100 -127 -236.5t-164 -322.5l-86 -172q62 25 129 62t130 83.5t119.5 100t99 111.5t67.5 118.5t25 120.5q0 39 -11.5 66.5t-31 44t-44.5 24t-53 7.5zM332 59q32 75 72 157.5t83.5 167t88.5 168t88 159.5l-23 -21q-20 -18 -42 -25.5t-46 -12.5t-48.5 -12t-49.5 -24
q-59 -42 -110.5 -94.5t-89.5 -110t-59.5 -117t-21.5 -116.5t33 -89t90 -32h16.5t18.5 2z" />
    <glyph glyph-name="ugrave" unicode="&#xf9;" horiz-adv-x="1147" 
d="M252 924q29 0 51.5 -32t22.5 -95q0 -21 -1.5 -60.5t-4.5 -89t-5.5 -104t-5.5 -106t-4.5 -95.5t-1.5 -72q0 -41 7 -67.5t20.5 -41.5t33 -20.5t44.5 -5.5q29 0 68 3.5t80.5 10.5t83.5 17.5t78 23.5t64 29.5t41 36.5q7 10 11.5 35.5t7 61.5t3.5 80t1 92q0 54 -1 108.5
t-2 102.5t-2 86t-1 59q0 78 17 109.5t40 31.5q12 0 21 -10.5t15 -26.5t9.5 -35.5t3.5 -38.5q0 -12 -0.5 -53t-0.5 -99t-1 -127.5t-1 -140t-0.5 -136.5t-0.5 -115q0 -50 -33.5 -89.5t-86.5 -70t-119 -52.5t-130.5 -36t-121.5 -20.5t-91 -6.5q-51 0 -82 18.5t-47 47.5t-21 63
t-5 66v63.5t0.5 96t0.5 112.5t0.5 114t0.5 100.5v70.5q0 37 1.5 74.5t6.5 66.5t13.5 47.5t23.5 18.5zM113 1509q0 19 8.5 35t22.5 16q10 0 22 -9t28.5 -23.5t37.5 -33.5t48 -38q11 -8 47.5 -30.5t85 -52t103.5 -63t104.5 -63.5t86.5 -53.5t50 -32.5q30 -23 43.5 -47.5
t13.5 -42.5q0 -23 -19 -23q-14 0 -31.5 9.5t-35.5 23.5q-8 6 -43 25t-84.5 46t-108 59t-114.5 63.5t-103.5 60.5t-74.5 49q-26 19 -43 37t-27 34t-13.5 29.5t-3.5 24.5z" />
    <glyph glyph-name="uacute" unicode="&#xfa;" horiz-adv-x="1147" 
d="M252 924q29 0 51.5 -32t22.5 -95q0 -21 -1.5 -60.5t-4.5 -89t-5.5 -104t-5.5 -106t-4.5 -95.5t-1.5 -72q0 -41 7 -67.5t20.5 -41.5t33 -20.5t44.5 -5.5q29 0 68 3.5t80.5 10.5t83.5 17.5t78 23.5t64 29.5t41 36.5q7 10 11.5 35.5t7 61.5t3.5 80t1 92q0 54 -1 108.5
t-2 102.5t-2 86t-1 59q0 78 17 109.5t40 31.5q12 0 21 -10.5t15 -26.5t9.5 -35.5t3.5 -38.5q0 -12 -0.5 -53t-0.5 -99t-1 -127.5t-1 -140t-0.5 -136.5t-0.5 -115q0 -50 -33.5 -89.5t-86.5 -70t-119 -52.5t-130.5 -36t-121.5 -20.5t-91 -6.5q-51 0 -82 18.5t-47 47.5t-21 63
t-5 66v63.5t0.5 96t0.5 112.5t0.5 114t0.5 100.5v70.5q0 37 1.5 74.5t6.5 66.5t13.5 47.5t23.5 18.5zM885 1565q5 -12 8.5 -23.5t3.5 -24.5q0 -18 -8.5 -40t-28.5 -51q-22 -31 -58 -70t-79 -81.5t-89.5 -84.5t-88 -78.5t-75 -65t-50.5 -42.5t-36 -20.5t-34 -6.5
q-30 0 -30 22q0 28 53 75q58 51 122 114.5t123.5 129t110.5 128.5t84 113q10 14 20 23t21 9q18 0 31 -26z" />
    <glyph glyph-name="ucircumflex" unicode="&#xfb;" horiz-adv-x="1147" 
d="M252 924q29 0 51.5 -32t22.5 -95q0 -21 -1.5 -60.5t-4.5 -89t-5.5 -104t-5.5 -106t-4.5 -95.5t-1.5 -72q0 -41 7 -67.5t20.5 -41.5t33 -20.5t44.5 -5.5q29 0 68 3.5t80.5 10.5t83.5 17.5t78 23.5t64 29.5t41 36.5q7 10 11.5 35.5t7 61.5t3.5 80t1 92q0 54 -1 108.5
t-2 102.5t-2 86t-1 59q0 78 17 109.5t40 31.5q12 0 21 -10.5t15 -26.5t9.5 -35.5t3.5 -38.5q0 -12 -0.5 -53t-0.5 -99t-1 -127.5t-1 -140t-0.5 -136.5t-0.5 -115q0 -50 -33.5 -89.5t-86.5 -70t-119 -52.5t-130.5 -36t-121.5 -20.5t-91 -6.5q-51 0 -82 18.5t-47 47.5t-21 63
t-5 66v63.5t0.5 96t0.5 112.5t0.5 114t0.5 100.5v70.5q0 37 1.5 74.5t6.5 66.5t13.5 47.5t23.5 18.5zM531 1470q11 20 29.5 29.5t38.5 9.5q17 0 32 -7.5t21 -24.5q15 -42 36.5 -78t45.5 -65t49 -51.5t47 -37.5q20 -14 28.5 -28t8.5 -27q0 -12 -5.5 -22t-14.5 -17.5
t-20.5 -12t-22.5 -4.5t-36.5 19t-57.5 54t-65.5 83t-58.5 107q-24 -47 -55.5 -94.5t-67 -94t-74 -90.5t-75.5 -84q-22 -23 -37 -23q-14 0 -20.5 14.5t-6.5 35.5q0 23 8 48t25 44q15 16 44.5 49t65 76t72.5 92.5t66 99.5z" />
    <glyph glyph-name="udieresis" unicode="&#xfc;" horiz-adv-x="1147" 
d="M252 924q29 0 51.5 -32t22.5 -95q0 -21 -1.5 -60.5t-4.5 -89t-5.5 -104t-5.5 -106t-4.5 -95.5t-1.5 -72q0 -41 7 -67.5t20.5 -41.5t33 -20.5t44.5 -5.5q29 0 68 3.5t80.5 10.5t83.5 17.5t78 23.5t64 29.5t41 36.5q7 10 11.5 35.5t7 61.5t3.5 80t1 92q0 54 -1 108.5
t-2 102.5t-2 86t-1 59q0 78 17 109.5t40 31.5q12 0 21 -10.5t15 -26.5t9.5 -35.5t3.5 -38.5q0 -12 -0.5 -53t-0.5 -99t-1 -127.5t-1 -140t-0.5 -136.5t-0.5 -115q0 -50 -33.5 -89.5t-86.5 -70t-119 -52.5t-130.5 -36t-121.5 -20.5t-91 -6.5q-51 0 -82 18.5t-47 47.5t-21 63
t-5 66v63.5t0.5 96t0.5 112.5t0.5 114t0.5 100.5v70.5q0 37 1.5 74.5t6.5 66.5t13.5 47.5t23.5 18.5zM373 1358q31 0 46.5 -20.5t15.5 -49.5q0 -38 -23.5 -61t-60.5 -23q-31 0 -47.5 19t-16.5 51q0 16 6.5 31t17.5 27t27 19t35 7zM797 1427q31 0 46 -20t15 -49
q0 -38 -23 -61t-61 -23q-30 0 -46.5 18.5t-16.5 50.5q0 16 6.5 31t17.5 27t27 19t35 7z" />
    <glyph glyph-name="yacute" unicode="&#xfd;" horiz-adv-x="995" 
d="M463 82q-14 13 -38 46t-55 79.5t-66.5 101.5t-71 112.5t-69 113t-60 101.5t-45 79t-23.5 45q-10 23 -10 44q0 33 18 54t37 21q12 0 26.5 -9.5t29.5 -26t29 -37.5t25 -44q28 -57 74 -130.5t96 -147.5t96.5 -140t75.5 -108q34 77 68 153.5t65 147.5t58.5 133t49 110
t36 79.5t20.5 41.5q31 57 57 74.5t46 17.5q36 0 36 -31q0 -20 -14 -53t-39 -78q-10 -17 -36 -71t-63 -132.5t-82 -174.5t-92 -197t-92.5 -201t-84 -185t-67.5 -149.5t-42 -95.5q-26 -62 -53.5 -99t-55 -57.5t-55 -27t-53.5 -6.5q-52 0 -110.5 36t-112.5 101q-24 28 -24 50
q0 20 18 29.5t41 9.5q14 0 29 -3t26 -10q48 -27 86.5 -49.5t72.5 -22.5q17 0 32 8t32 29t37.5 57.5t48 92.5t63.5 134.5t85 184.5zM776 1538q5 -12 8.5 -23.5t3.5 -24.5q0 -18 -8.5 -40t-28.5 -51q-22 -31 -58 -70t-79 -81.5t-89.5 -84.5t-88 -78.5t-75 -65t-50.5 -42.5
t-36 -20.5t-34 -6.5q-30 0 -30 22q0 28 53 75q58 51 122 114.5t123.5 129t110.5 128.5t84 113q10 14 20 23t21 9q18 0 31 -26z" />
    <glyph glyph-name="thorn" unicode="&#xfe;" horiz-adv-x="1464" 
d="M1184 946q62 0 107 -14t74.5 -39.5t43.5 -62t14 -82.5q0 -56 -31.5 -115.5t-86 -119.5t-127 -118t-154.5 -110t-168.5 -96t-169.5 -76t-157.5 -50t-131.5 -18q-14 0 -26 0.5t-23 3.5q3 -86 5.5 -139.5t4.5 -89.5t3 -62t1 -57q0 -54 -5 -106t-15.5 -93.5t-27 -66.5
t-40.5 -25q-35 0 -46 38t-11 99q0 52 3.5 108.5t3.5 111.5q0 114 -6.5 286.5t-6.5 392.5v1002q0 102 16 150.5t45 48.5q16 0 26.5 -20t16.5 -52t8 -71t2 -78q0 -45 -1.5 -82t-1.5 -56q0 -26 0.5 -89.5t2 -152t3.5 -196t4 -221.5q32 35 89.5 72.5t130 72.5t156 66.5t167 55
t163.5 37t146 13.5zM344 154q51 0 120 16t146.5 44t159.5 66.5t159.5 82t146.5 91t121 95t82 92t30 82.5q0 23 -10 40t-27 28.5t-39.5 17.5t-48.5 6q-45 0 -99 -8t-112.5 -22.5t-119 -33.5t-117.5 -41.5t-108.5 -47t-92.5 -48.5q-23 -14 -36 -24t-19 -19t-7.5 -19.5
t-1.5 -24.5q0 -18 -3.5 -32t-15 -23t-33 -14t-57.5 -5h-24z" />
    <glyph glyph-name="ydieresis" unicode="&#xff;" horiz-adv-x="995" 
d="M463 82q-14 13 -38 46t-55 79.5t-66.5 101.5t-71 112.5t-69 113t-60 101.5t-45 79t-23.5 45q-10 23 -10 44q0 33 18 54t37 21q12 0 26.5 -9.5t29.5 -26t29 -37.5t25 -44q28 -57 74 -130.5t96 -147.5t96.5 -140t75.5 -108q34 77 68 153.5t65 147.5t58.5 133t49 110
t36 79.5t20.5 41.5q31 57 57 74.5t46 17.5q36 0 36 -31q0 -20 -14 -53t-39 -78q-10 -17 -36 -71t-63 -132.5t-82 -174.5t-92 -197t-92.5 -201t-84 -185t-67.5 -149.5t-42 -95.5q-26 -62 -53.5 -99t-55 -57.5t-55 -27t-53.5 -6.5q-52 0 -110.5 36t-112.5 101q-24 28 -24 50
q0 20 18 29.5t41 9.5q14 0 29 -3t26 -10q48 -27 86.5 -49.5t72.5 -22.5q17 0 32 8t32 29t37.5 57.5t48 92.5t63.5 134.5t85 184.5zM300 1358q31 0 46.5 -20.5t15.5 -49.5q0 -38 -23.5 -61t-60.5 -23q-31 0 -47.5 19t-16.5 51q0 16 6.5 31t17.5 27t27 19t35 7zM724 1427
q31 0 46 -20t15 -49q0 -38 -23 -61t-61 -23q-30 0 -46.5 18.5t-16.5 50.5q0 16 6.5 31t17.5 27t27 19t35 7z" />
    <glyph glyph-name="Amacron" unicode="&#x100;" horiz-adv-x="1321" 
d="M758 1456q7 0 23 -2t32.5 -8.5t29.5 -19t13 -33.5q0 -9 -8.5 -23t-18 -33t-18 -41t-8.5 -47q0 -50 12.5 -107.5t26.5 -111.5q23 -93 51.5 -202t60.5 -224q57 14 102.5 26t87 23t82 22.5t87.5 24.5q9 3 15 3q18 0 18 -13q0 -11 -32.5 -34t-84.5 -50.5t-117 -55t-129 -46.5
q23 -78 47 -153.5t49 -143.5t50 -126t51 -101q11 -21 24.5 -35t25 -24.5t19.5 -18t8 -15.5q0 -15 -15 -24.5t-38 -9.5q-34 0 -65.5 6.5t-51.5 29.5q-16 18 -35 57.5t-38.5 91t-39.5 110.5t-38 117.5t-34 111.5t-28 92q-56 -18 -109.5 -32.5t-112.5 -28.5t-128 -28t-155 -30
q-24 -60 -49.5 -130.5l-59.5 -164.5q-14 -38 -22 -65t-14 -45t-12.5 -26.5t-16.5 -8.5q-11 0 -25.5 13.5t-27.5 34t-22 44.5t-9 45q0 41 11.5 78.5t33.5 91.5q5 12 17.5 40t31.5 69q-22 -2 -37 -3t-25 -1q-24 0 -43.5 9.5t-34 23.5t-22.5 30t-8 29q0 20 14 28.5t60 10.5
q45 2 84.5 8t78.5 12q31 64 64.5 132.5t65 133t59.5 120t47 93.5q10 20 29 65t43 101t50 116t50.5 109t45 81t32.5 32zM842 578q-20 73 -39.5 148.5t-37 148t-32.5 139.5t-26 123q-31 -66 -69 -151.5t-77 -173.5t-74.5 -170.5t-60.5 -143.5q43 7 99 17t114 21t111.5 22
t91.5 20zM336 1618q5 0 9.5 -3.5t14 -7t28 -7t52.5 -3.5q13 0 46.5 3t73 7.5t76.5 9t58 7.5q64 9 114 17t91 14t76 10t70 4q17 0 22.5 -8t5.5 -19q0 -19 -15 -40t-61 -37q-25 -8 -76.5 -23t-125 -30t-165 -26t-196.5 -11q-116 0 -116 65q0 9 1 22t3 25.5t5.5 21.5t8.5 9z
" />
    <glyph glyph-name="amacron" unicode="&#x101;" horiz-adv-x="1311" 
d="M1012 1028q40 0 59 -14.5t19 -52.5q0 -10 -1.5 -17.5t-3.5 -13.5q7 2 14 2h15q37 0 55.5 -16t18.5 -42q0 -52 -30 -117.5t-83 -140.5q-1 -7 -1 -14v-15q0 -15 0.5 -30t0.5 -29q0 -28 4 -66.5t11 -82t16 -90t18.5 -89.5t18.5 -79.5t16 -61.5q5 -14 6.5 -28t1.5 -27
q0 -35 -13.5 -58.5t-39.5 -23.5q-13 0 -28.5 26.5t-32 71t-33 102t-30 118.5t-23 121.5t-13.5 111.5q-81 -87 -179 -168t-200 -143.5t-202 -100.5t-185 -38q-35 0 -60 12t-42 33t-25 48.5t-8 59.5q0 57 29 124t78.5 137.5t116.5 142t142.5 137t156.5 122.5t159 99t149.5 66
t127.5 24zM954 612q3 85 17.5 157t48.5 116q-6 1 -12 1.5t-12 0.5q-12 0 -24 -1.5t-26 -6.5q-79 -25 -167 -76t-174 -116t-164 -139t-137.5 -145t-94.5 -133.5t-35 -105.5q0 -37 39 -37q31 0 82 16t115 46.5t136 73.5t144 97t140 117.5t124 134.5zM441 1253q5 0 9.5 -3.5
t14 -7t28 -7t52.5 -3.5q13 0 46.5 3t73 7.5t76.5 9t58 7.5q64 9 114 17t91 14t76 10t70 4q17 0 22.5 -8t5.5 -19q0 -19 -15 -40t-61 -37q-25 -8 -76.5 -23t-125 -30t-165 -26t-196.5 -11q-116 0 -116 65q0 9 1 22t3 25.5t5.5 21.5t8.5 9z" />
    <glyph glyph-name="Abreve" unicode="&#x102;" horiz-adv-x="1321" 
d="M758 1456q7 0 23 -2t32.5 -8.5t29.5 -19t13 -33.5q0 -9 -8.5 -23t-18 -33t-18 -41t-8.5 -47q0 -50 12.5 -107.5t26.5 -111.5q23 -93 51.5 -202t60.5 -224q57 14 102.5 26t87 23t82 22.5t87.5 24.5q9 3 15 3q18 0 18 -13q0 -11 -32.5 -34t-84.5 -50.5t-117 -55t-129 -46.5
q23 -78 47 -153.5t49 -143.5t50 -126t51 -101q11 -21 24.5 -35t25 -24.5t19.5 -18t8 -15.5q0 -15 -15 -24.5t-38 -9.5q-34 0 -65.5 6.5t-51.5 29.5q-16 18 -35 57.5t-38.5 91t-39.5 110.5t-38 117.5t-34 111.5t-28 92q-56 -18 -109.5 -32.5t-112.5 -28.5t-128 -28t-155 -30
q-24 -60 -49.5 -130.5l-59.5 -164.5q-14 -38 -22 -65t-14 -45t-12.5 -26.5t-16.5 -8.5q-11 0 -25.5 13.5t-27.5 34t-22 44.5t-9 45q0 41 11.5 78.5t33.5 91.5q5 12 17.5 40t31.5 69q-22 -2 -37 -3t-25 -1q-24 0 -43.5 9.5t-34 23.5t-22.5 30t-8 29q0 20 14 28.5t60 10.5
q45 2 84.5 8t78.5 12q31 64 64.5 132.5t65 133t59.5 120t47 93.5q10 20 29 65t43 101t50 116t50.5 109t45 81t32.5 32zM842 578q-20 73 -39.5 148.5t-37 148t-32.5 139.5t-26 123q-31 -66 -69 -151.5t-77 -173.5t-74.5 -170.5t-60.5 -143.5q43 7 99 17t114 21t111.5 22
t91.5 20zM247 1587q0 20 6 45t17 47.5t26 37.5t33 15q22 0 28 -18.5t6 -41.5q0 -12 -0.5 -23.5t-0.5 -20.5q0 -33 11.5 -55.5t32 -36t47.5 -19.5t59 -6q51 0 103.5 13.5t111.5 46t127.5 85.5t150.5 132q11 11 20.5 16t15.5 5q11 0 11 -16q0 -14 -10 -36.5t-33 -48.5
q-133 -158 -270.5 -237t-290.5 -79q-42 0 -78.5 13.5t-63.5 38.5t-43 61.5t-16 81.5z" />
    <glyph glyph-name="abreve" unicode="&#x103;" horiz-adv-x="1311" 
d="M1012 1028q40 0 59 -14.5t19 -52.5q0 -10 -1.5 -17.5t-3.5 -13.5q7 2 14 2h15q37 0 55.5 -16t18.5 -42q0 -52 -30 -117.5t-83 -140.5q-1 -7 -1 -14v-15q0 -15 0.5 -30t0.5 -29q0 -28 4 -66.5t11 -82t16 -90t18.5 -89.5t18.5 -79.5t16 -61.5q5 -14 6.5 -28t1.5 -27
q0 -35 -13.5 -58.5t-39.5 -23.5q-13 0 -28.5 26.5t-32 71t-33 102t-30 118.5t-23 121.5t-13.5 111.5q-81 -87 -179 -168t-200 -143.5t-202 -100.5t-185 -38q-35 0 -60 12t-42 33t-25 48.5t-8 59.5q0 57 29 124t78.5 137.5t116.5 142t142.5 137t156.5 122.5t159 99t149.5 66
t127.5 24zM954 612q3 85 17.5 157t48.5 116q-6 1 -12 1.5t-12 0.5q-12 0 -24 -1.5t-26 -6.5q-79 -25 -167 -76t-174 -116t-164 -139t-137.5 -145t-94.5 -133.5t-35 -105.5q0 -37 39 -37q31 0 82 16t115 46.5t136 73.5t144 97t140 117.5t124 134.5zM406 1274q0 20 6 45
t17 47.5t26 37.5t33 15q22 0 28 -18.5t6 -41.5q0 -12 -0.5 -23.5t-0.5 -20.5q0 -33 11.5 -55.5t32 -36t47.5 -19.5t59 -6q51 0 103.5 13.5t111.5 46t127.5 85.5t150.5 132q11 11 20.5 16t15.5 5q11 0 11 -16q0 -14 -10 -36.5t-33 -48.5q-133 -158 -270.5 -237t-290.5 -79
q-42 0 -78.5 13.5t-63.5 38.5t-43 61.5t-16 81.5z" />
    <glyph glyph-name="Aogonek" unicode="&#x104;" horiz-adv-x="1321" 
d="M758 1456q7 0 23 -2t32.5 -8.5t29.5 -19t13 -33.5q0 -9 -8.5 -23t-18 -33t-18 -41t-8.5 -47q0 -50 12.5 -107.5t26.5 -111.5q23 -93 51.5 -202t60.5 -224q57 14 102.5 26t87 23t82 22.5t87.5 24.5q9 3 15 3q18 0 18 -13q0 -11 -32.5 -34t-84.5 -50.5t-117 -55t-129 -46.5
q22 -79 39.5 -135t34 -100t35 -82.5t43.5 -82.5q12 -20 25.5 -34t25 -24.5t19 -18.5t7.5 -15q0 -15 -15 -25t-38 -10t-46 3.5t-42 12.5q-35 -29 -73.5 -69t-71 -83t-53.5 -86t-21 -79q0 -18 13 -32.5t42 -14.5q44 0 94 13.5t101 38.5t99.5 59.5t90.5 76.5q10 10 18 10
t12 -7.5t4 -18.5q0 -12 -4.5 -25.5t-15.5 -27.5q-36 -45 -83 -83.5t-100 -67t-108.5 -44.5t-109.5 -16q-35 0 -65.5 6.5t-54 20.5t-37 35t-13.5 50q0 37 14.5 76t38 77t53.5 73.5t62 66t63.5 55.5t57.5 41q-17 27 -33.5 67t-34 93.5t-37.5 121t-45 149.5
q-56 -18 -109.5 -32.5t-112.5 -28.5t-128 -28t-155 -30q-25 -60 -50 -130.5t-59 -164.5q-14 -38 -22 -65t-14.5 -45t-12.5 -26.5t-16 -8.5q-11 0 -25.5 13.5t-27.5 34t-22 44.5t-9 45q0 41 11.5 78.5t33.5 91.5q5 12 17.5 40t31.5 69q-22 -2 -37 -3t-25 -1q-24 0 -43.5 9.5
t-34 23.5t-22.5 30t-8 29q0 20 8 27t33 10t72 6t124 16q31 64 64.5 132.5t65 133t59.5 120t47 93.5q10 20 29 65t43 101t50 116t50.5 109t45 81t32.5 32zM842 578q-20 73 -39.5 148.5t-37 148t-32.5 139.5t-26 123q-31 -66 -69 -151.5t-77 -173.5t-74.5 -170.5t-60.5 -143.5
q43 7 99 17t114 21t111.5 22t91.5 20z" />
    <glyph glyph-name="aogonek" unicode="&#x105;" horiz-adv-x="1311" 
d="M1012 1028q40 0 59 -14.5t19 -52.5q0 -10 -1.5 -17.5t-3.5 -13.5q7 2 14 2h15q37 0 55.5 -16t18.5 -42q0 -52 -30 -117.5t-83 -140.5q-1 -7 -1 -14v-15q0 -38 3.5 -95.5t10.5 -121t17 -125.5t23 -108q8 -30 8 -55q0 -35 -13.5 -58.5t-39.5 -23.5q-17 0 -34 34
q-35 -28 -76 -68.5t-76 -86t-58.5 -91.5t-23.5 -83q0 -18 13 -32.5t42 -14.5q44 0 94 13.5t101 38.5t99.5 59.5t90.5 76.5q10 10 18 10t12 -7.5t4 -18.5q0 -12 -4.5 -25.5t-15.5 -27.5q-36 -45 -83 -83.5t-100 -67t-108.5 -44.5t-109.5 -16q-35 0 -65.5 6.5t-54 20.5t-37 35
t-13.5 50q0 43 18.5 87.5t48 87t66 81.5t73 70t69 53t53.5 31q-13 36 -24.5 82.5t-21 97.5t-16.5 103.5t-10 101.5q-81 -87 -179 -168t-200 -143.5t-202 -100.5t-185 -38q-35 0 -60 12t-42 33t-25 48.5t-8 59.5q0 57 29 124t78.5 137.5t116.5 142t142.5 137t156.5 122.5
t159 99t149.5 66t127.5 24zM954 612q3 85 17.5 157t48.5 116q-6 1 -12 1.5t-12 0.5q-12 0 -24 -1.5t-26 -6.5q-79 -25 -167 -76t-174 -116t-164 -139t-137.5 -145t-94.5 -133.5t-35 -105.5q0 -37 39 -37q31 0 82 16t115 46.5t136 73.5t144 97t140 117.5t124 134.5z" />
    <glyph glyph-name="Cacute" unicode="&#x106;" horiz-adv-x="1354" 
d="M1096 1300q15 0 32.5 -12t32.5 -29t25 -35t10 -30q0 -13 -15.5 -33t-39 -38.5t-51 -32t-50.5 -13.5q-18 0 -43.5 2.5t-50.5 12.5q-16 -8 -58.5 -38t-101 -77t-128 -107t-140 -128t-136 -140.5t-116.5 -145t-81.5 -141t-30.5 -127.5q0 -27 5.5 -49.5t19.5 -38t38 -24
t62 -8.5q59 0 141.5 19t177 52.5t197.5 79t202.5 97.5t192 108.5t166.5 112.5q22 16 36 16q12 0 12 -12q-1 -8 -8.5 -23t-25.5 -33q-71 -71 -157.5 -138t-182 -126.5t-196 -109t-198 -85t-189 -55.5t-168.5 -20q-68 0 -111 16t-68 46t-34 72t-9 93q0 84 30 174.5t88.5 185.5
t144.5 193.5t198 198.5q108 96 199.5 166t165 115t127.5 67t86 22zM953 1741q5 -12 8.5 -23.5t3.5 -24.5q0 -18 -8.5 -40t-28.5 -51q-22 -31 -58 -70t-79 -81.5t-89.5 -84.5t-88 -78.5t-75 -65t-50.5 -42.5t-36 -20.5t-34 -6.5q-30 0 -30 22q0 28 53 75q58 51 122 114.5
t123.5 129t110.5 128.5t84 113q10 14 20 23t21 9q18 0 31 -26z" />
    <glyph glyph-name="cacute" unicode="&#x107;" horiz-adv-x="1090" 
d="M858 1026q44 14 70 14q25 0 40 -12.5t15 -35.5q0 -25 -20.5 -50t-53 -49.5t-73.5 -47.5t-82 -42t-78 -33t-62 -22q-40 -25 -86.5 -65.5t-94 -90t-91.5 -105t-77.5 -111t-54 -109t-20.5 -97.5q0 -15 5 -29.5t16.5 -26t29 -18t42.5 -6.5q64 0 132.5 17.5t137.5 48t137 71.5
t131 87t119.5 95.5t103.5 96.5q21 22 35 22q11 0 11 -16q0 -14 -10 -37t-31 -49q-40 -50 -91 -103t-111 -103.5t-128 -95.5t-143 -79t-156 -54t-166 -20q-102 0 -151.5 47.5t-49.5 147.5q0 86 38.5 177t102 178.5t146.5 168.5t172.5 147.5t179 115.5t166.5 73zM823 1538
q5 -12 8.5 -23.5t3.5 -24.5q0 -18 -8.5 -40t-28.5 -51q-22 -31 -58 -70t-79 -81.5t-89.5 -84.5t-88 -78.5t-75 -65t-50.5 -42.5t-36 -20.5t-34 -6.5q-30 0 -30 22q0 28 53 75q58 51 122 114.5t123.5 129t110.5 128.5t84 113q10 14 20 23t21 9q18 0 31 -26z" />
    <glyph glyph-name="Ccircumflex" unicode="&#x108;" horiz-adv-x="1354" 
d="M1096 1300q15 0 32.5 -12t32.5 -29t25 -35t10 -30q0 -13 -15.5 -33t-39 -38.5t-51 -32t-50.5 -13.5q-18 0 -43.5 2.5t-50.5 12.5q-16 -8 -58.5 -38t-101 -77t-128 -107t-140 -128t-136 -140.5t-116.5 -145t-81.5 -141t-30.5 -127.5q0 -27 5.5 -49.5t19.5 -38t38 -24
t62 -8.5q59 0 141.5 19t177 52.5t197.5 79t202.5 97.5t192 108.5t166.5 112.5q22 16 36 16q12 0 12 -12q-1 -8 -8.5 -23t-25.5 -33q-71 -71 -157.5 -138t-182 -126.5t-196 -109t-198 -85t-189 -55.5t-168.5 -20q-68 0 -111 16t-68 46t-34 72t-9 93q0 84 30 174.5t88.5 185.5
t144.5 193.5t198 198.5q108 96 199.5 166t165 115t127.5 67t86 22zM623 1665q11 20 29.5 29.5t38.5 9.5q17 0 32 -7.5t21 -24.5q15 -42 36.5 -78t45.5 -65t49 -51.5t47 -37.5q20 -14 28.5 -28t8.5 -27q0 -12 -5.5 -22t-14.5 -17.5t-20.5 -12t-22.5 -4.5t-36.5 19t-57.5 54
t-65.5 83t-58.5 107q-24 -47 -55.5 -94.5t-67 -94t-74 -90.5t-75.5 -84q-22 -23 -37 -23q-14 0 -20.5 14.5t-6.5 35.5q0 23 8 48t25 44q15 16 44.5 49t65 76t72.5 92.5t66 99.5z" />
    <glyph glyph-name="ccircumflex" unicode="&#x109;" horiz-adv-x="1090" 
d="M858 1026q44 14 70 14q25 0 40 -12.5t15 -35.5q0 -25 -20.5 -50t-53 -49.5t-73.5 -47.5t-82 -42t-78 -33t-62 -22q-40 -25 -86.5 -65.5t-94 -90t-91.5 -105t-77.5 -111t-54 -109t-20.5 -97.5q0 -15 5 -29.5t16.5 -26t29 -18t42.5 -6.5q64 0 132.5 17.5t137.5 48t137 71.5
t131 87t119.5 95.5t103.5 96.5q21 22 35 22q11 0 11 -16q0 -14 -10 -37t-31 -49q-40 -50 -91 -103t-111 -103.5t-128 -95.5t-143 -79t-156 -54t-166 -20q-102 0 -151.5 47.5t-49.5 147.5q0 86 38.5 177t102 178.5t146.5 168.5t172.5 147.5t179 115.5t166.5 73zM503 1470
q11 20 29.5 29.5t38.5 9.5q17 0 32 -7.5t21 -24.5q15 -42 36.5 -78t45.5 -65t49 -51.5t47 -37.5q20 -14 28.5 -28t8.5 -27q0 -12 -5.5 -22t-14.5 -17.5t-20.5 -12t-22.5 -4.5t-36.5 19t-57.5 54t-65.5 83t-58.5 107q-24 -47 -55.5 -94.5t-67 -94t-74 -90.5t-75.5 -84
q-22 -23 -37 -23q-14 0 -20.5 14.5t-6.5 35.5q0 23 8 48t25 44q15 16 44.5 49t65 76t72.5 92.5t66 99.5z" />
    <glyph glyph-name="Cdotaccent" unicode="&#x10a;" horiz-adv-x="1354" 
d="M1096 1300q15 0 32.5 -12t32.5 -29t25 -35t10 -30q0 -13 -15.5 -33t-39 -38.5t-51 -32t-50.5 -13.5q-18 0 -43.5 2.5t-50.5 12.5q-16 -8 -58.5 -38t-101 -77t-128 -107t-140 -128t-136 -140.5t-116.5 -145t-81.5 -141t-30.5 -127.5q0 -27 5.5 -49.5t19.5 -38t38 -24
t62 -8.5q59 0 141.5 19t177 52.5t197.5 79t202.5 97.5t192 108.5t166.5 112.5q22 16 36 16q12 0 12 -12q-1 -8 -8.5 -23t-25.5 -33q-71 -71 -157.5 -138t-182 -126.5t-196 -109t-198 -85t-189 -55.5t-168.5 -20q-68 0 -111 16t-68 46t-34 72t-9 93q0 84 30 174.5t88.5 185.5
t144.5 193.5t198 198.5q108 96 199.5 166t165 115t127.5 67t86 22zM690 1587q45 0 67.5 -29.5t22.5 -73.5q0 -57 -34.5 -90t-88.5 -33q-46 0 -70 27.5t-24 75.5q0 23 9 45t26 39.5t40 28t52 10.5z" />
    <glyph glyph-name="cdotaccent" unicode="&#x10b;" horiz-adv-x="1090" 
d="M858 1026q44 14 70 14q25 0 40 -12.5t15 -35.5q0 -25 -20.5 -50t-53 -49.5t-73.5 -47.5t-82 -42t-78 -33t-62 -22q-40 -25 -86.5 -65.5t-94 -90t-91.5 -105t-77.5 -111t-54 -109t-20.5 -97.5q0 -15 5 -29.5t16.5 -26t29 -18t42.5 -6.5q64 0 132.5 17.5t137.5 48t137 71.5
t131 87t119.5 95.5t103.5 96.5q21 22 35 22q11 0 11 -16q0 -14 -10 -37t-31 -49q-40 -50 -91 -103t-111 -103.5t-128 -95.5t-143 -79t-156 -54t-166 -20q-102 0 -151.5 47.5t-49.5 147.5q0 86 38.5 177t102 178.5t146.5 168.5t172.5 147.5t179 115.5t166.5 73zM563 1375
q45 0 67.5 -29.5t22.5 -73.5q0 -57 -34.5 -90t-88.5 -33q-46 0 -70 27.5t-24 75.5q0 23 9 45t26 39.5t40 28t52 10.5z" />
    <glyph glyph-name="Ccaron" unicode="&#x10c;" horiz-adv-x="1354" 
d="M1096 1300q15 0 32.5 -12t32.5 -29t25 -35t10 -30q0 -13 -15.5 -33t-39 -38.5t-51 -32t-50.5 -13.5q-18 0 -43.5 2.5t-50.5 12.5q-16 -8 -58.5 -38t-101 -77t-128 -107t-140 -128t-136 -140.5t-116.5 -145t-81.5 -141t-30.5 -127.5q0 -27 5.5 -49.5t19.5 -38t38 -24
t62 -8.5q59 0 141.5 19t177 52.5t197.5 79t202.5 97.5t192 108.5t166.5 112.5q22 16 36 16q12 0 12 -12q-1 -8 -8.5 -23t-25.5 -33q-71 -71 -157.5 -138t-182 -126.5t-196 -109t-198 -85t-189 -55.5t-168.5 -20q-68 0 -111 16t-68 46t-34 72t-9 93q0 84 30 174.5t88.5 185.5
t144.5 193.5t198 198.5q108 96 199.5 166t165 115t127.5 67t86 22zM715 1280q-12 -20 -31 -30t-39 -10q-17 0 -31 8t-20 24q-15 41 -36.5 77t-45.5 65t-49 51.5t-47 37.5q-21 14 -29.5 28.5t-8.5 27.5q0 12 5.5 22t14.5 17.5t20 11.5t22 4t37.5 -19.5t58.5 -54t64.5 -83
t56.5 -106.5q25 47 56.5 94.5t67 94t73.5 90.5t76 84q22 23 38 23q14 0 20.5 -14.5t6.5 -35.5q0 -22 -7.5 -47.5t-24.5 -44.5q-15 -17 -45 -50t-65.5 -75.5t-72.5 -91.5t-65 -98z" />
    <glyph glyph-name="ccaron" unicode="&#x10d;" horiz-adv-x="1090" 
d="M858 1026q44 14 70 14q25 0 40 -12.5t15 -35.5q0 -25 -20.5 -50t-53 -49.5t-73.5 -47.5t-82 -42t-78 -33t-62 -22q-40 -25 -86.5 -65.5t-94 -90t-91.5 -105t-77.5 -111t-54 -109t-20.5 -97.5q0 -15 5 -29.5t16.5 -26t29 -18t42.5 -6.5q64 0 132.5 17.5t137.5 48t137 71.5
t131 87t119.5 95.5t103.5 96.5q21 22 35 22q11 0 11 -16q0 -14 -10 -37t-31 -49q-40 -50 -91 -103t-111 -103.5t-128 -95.5t-143 -79t-156 -54t-166 -20q-102 0 -151.5 47.5t-49.5 147.5q0 86 38.5 177t102 178.5t146.5 168.5t172.5 147.5t179 115.5t166.5 73zM590 1059
q-12 -20 -31 -30t-39 -10q-17 0 -31 8t-20 24q-15 41 -36.5 77t-45.5 65t-49 51.5t-47 37.5q-21 14 -29.5 28.5t-8.5 27.5q0 12 5.5 22t14.5 17.5t20 11.5t22 4t37.5 -19.5t58.5 -54t64.5 -83t56.5 -106.5q25 47 56.5 94.5t67 94t73.5 90.5t76 84q22 23 38 23
q14 0 20.5 -14.5t6.5 -35.5q0 -22 -7.5 -47.5t-24.5 -44.5q-15 -17 -45 -50t-65.5 -75.5t-72.5 -91.5t-65 -98z" />
    <glyph glyph-name="Dcaron" unicode="&#x10e;" horiz-adv-x="1491" 
d="M207 975q-10 0 -19 4t-15.5 15.5t-10.5 31t-4 51.5q0 34 35 60q-4 40 -5 72.5t-1 70.5q0 37 4 64.5t18 27.5q11 0 25.5 -8t28.5 -22.5t24.5 -35t13.5 -46.5l8 -72q40 10 83 16t83 10t73 5.5t54 1.5q109 0 213.5 -18t197 -51.5t170 -81t133.5 -105.5t87 -125t31 -140
q0 -54 -38 -116t-103 -127t-151 -130t-183.5 -124t-199.5 -110.5t-198.5 -89.5t-181.5 -59.5t-148 -21.5q-21 0 -38.5 13.5t-30 31.5t-20 37t-7.5 31q0 22 6.5 29.5t23.5 9t45.5 2t72.5 8.5q-4 34 -6.5 70.5t-4.5 71.5t-3.5 66t-2.5 52q-5 79 -12.5 163t-15.5 166.5
t-16 159.5t-15 142zM326 1040q7 -72 15.5 -154.5t16 -169t14.5 -172.5t12.5 -165t8.5 -147.5t4 -118.5q99 29 207 77t213 107t200 124t167 128t114.5 119t42.5 98q0 47 -45.5 104t-131 107t-208.5 83.5t-278 33.5q-67 0 -121 -4.5t-97 -12t-76 -17.5t-58 -20zM791 1372
q-12 -20 -31 -30t-39 -10q-17 0 -31 8t-20 24q-15 41 -36.5 77t-45.5 65t-49 51.5t-47 37.5q-21 14 -29.5 28.5t-8.5 27.5q0 12 5.5 22t14.5 17.5t20 11.5t22 4t37.5 -19.5t58.5 -54t64.5 -83t56.5 -106.5q25 47 56.5 94.5t67 94t73.5 90.5t76 84q22 23 38 23
q14 0 20.5 -14.5t6.5 -35.5q0 -22 -7.5 -47.5t-24.5 -44.5q-15 -17 -45 -50t-65.5 -75.5t-72.5 -91.5t-65 -98z" />
    <glyph glyph-name="dcaron" unicode="&#x10f;" horiz-adv-x="1626" 
d="M893 907q71 0 115.5 -11t70.5 -28q3 96 5 186t4 166.5t3 135.5t1 92q0 39 -2 64.5t-2 44.5q0 32 7.5 41.5t28.5 9.5q15 0 28.5 -14.5t24 -41t17 -64.5t6.5 -85q0 -26 -2 -74.5t-5 -113.5t-6.5 -144t-6.5 -166.5t-5 -180.5t-2 -185q0 -140 6 -268.5t21 -231.5q3 -18 3 -34
q0 -33 -9.5 -57.5t-24 -41t-31 -25t-30.5 -8.5q-17 0 -25.5 14t-13 43.5t-5 75t-0.5 108.5q0 43 0.5 107.5t2.5 140.5q-29 -25 -75.5 -63t-105.5 -81t-127.5 -86t-141.5 -77.5t-147 -56t-144 -21.5q-81 0 -134 17t-84 46.5t-43 69.5t-12 85q0 80 46.5 164t121 163t167.5 149
t186.5 122.5t177.5 83t141 30.5zM332 86q57 0 119 16t127 43.5t130 63.5t128 75.5t122 80t111 77.5q2 78 3.5 154.5t4.5 163.5q-21 11 -54 21t-81 10q-41 0 -95 -18t-114 -49.5t-123 -73t-122.5 -88t-112 -96.5t-91.5 -97t-62 -89.5t-23 -74.5q0 -56 29.5 -87.5t103.5 -31.5
zM1577 1561q62 0 97.5 -37.5t35.5 -108.5q0 -54 -21 -105t-54.5 -95.5t-74 -81.5t-80 -63.5t-73.5 -41t-53 -14.5q-23 0 -33 10.5t-10 24.5q0 20 10 34.5t35 26.5q43 20 89.5 47t85.5 60.5t64 73t25 83.5q0 31 -17 49.5t-46 18.5q-17 0 -30 -4.5t-24 -10t-22 -10t-23 -4.5
q-32 0 -32 31q0 15 12 35t32 38t47.5 31t59.5 13z" />
    <glyph glyph-name="Dcroat" unicode="&#x110;" horiz-adv-x="1491" 
d="M326 1040q9 -91 19 -196t20 -213l43 6q64 9 114 17t91 14t75.5 9.5t69.5 4.5q17 0 22.5 -8t5.5 -19q0 -19 -14.5 -40t-60.5 -37q-18 -6 -49.5 -15.5t-74.5 -20t-96.5 -21.5t-115.5 -19q9 -116 14.5 -218t7.5 -171q99 29 207 77t213 107t200 124t167 128t114.5 119
t42.5 98q0 47 -45.5 104t-131 107t-208.5 83.5t-278 33.5q-67 0 -121 -4.5t-97 -12t-76 -17.5t-58 -20zM207 975q-10 0 -19 4t-15.5 15.5t-10.5 31t-4 51.5q0 34 35 60q-4 38 -5 71.5t-1 71.5q0 37 4 64.5t18 27.5q11 0 25.5 -8t28.5 -22.5t24.5 -35t13.5 -46.5l8 -72
q40 10 83 16t83 10t73 5.5t54 1.5q109 0 213.5 -18t197 -51.5t170 -81t133.5 -105.5t87 -125t31 -140q0 -54 -38 -116t-103 -127t-151 -130t-183.5 -124t-199.5 -110.5t-198.5 -89.5t-181.5 -59.5t-148 -21.5q-21 0 -38.5 13.5t-30 31.5t-20 37t-7.5 31q0 22 6.5 29.5
t23.5 9t45.5 2t72.5 8.5q-5 34 -7.5 70.5t-4 71.5t-2.5 66t-3 52l-12 145q-26 -2 -52.5 -2h-54.5q-116 0 -116 66q0 8 1 21.5t3 26t5.5 21.5t8.5 9t9.5 -3.5t14 -7t28.5 -7t53 -3.5q11 0 35 1.5t55 4.5z" />
    <glyph glyph-name="dcroat" unicode="&#x111;" horiz-adv-x="1378" 
d="M741 1241q5 0 9.5 -3t14 -7t28 -7t52.5 -3q12 0 43 2.5t67.5 6.5l73 8t60.5 7q2 68 2.5 120t0.5 83q0 39 -2 64.5t-2 44.5q0 32 7.5 41.5t28.5 9.5q15 0 28.5 -14.5t24 -41t17 -64.5t6.5 -85q0 -21 -1.5 -57.5t-3.5 -84.5q42 6 76.5 12t65 10.5t58 7t55.5 2.5
q17 0 22.5 -8t5.5 -19q0 -19 -15 -40.5t-61 -37.5q-26 -9 -80.5 -24.5t-132.5 -31.5q-3 -63 -6 -134t-5 -146.5t-3.5 -154.5t-1.5 -158q0 -140 6 -268.5t21 -231.5q3 -18 3 -34q0 -33 -9.5 -57.5t-24 -41t-31 -25t-30.5 -8.5q-17 0 -25.5 14t-13 43.5t-5 75t-0.5 108.5
q0 43 0.5 107.5t2.5 140.5q-29 -25 -75.5 -63t-105.5 -81t-127.5 -86t-141.5 -77.5t-147 -56t-144 -21.5q-81 0 -134 17t-84 46.5t-43 69.5t-12 85q0 80 46.5 164t121 163t167.5 149t186.5 122.5t177.5 83t141 30.5q71 0 115.5 -11t70.5 -28l7 247q-56 -8 -118 -12.5
t-129 -4.5q-117 0 -117 66q0 8 1 21t3 25.5t6 21.5t9 9zM332 86q57 0 119 16t127 43.5t130 63.5t128 75.5t122 80t111 77.5q2 78 3.5 154.5t4.5 163.5q-21 11 -54 21t-81 10q-41 0 -95 -18t-114 -49.5t-123 -73t-122.5 -88t-112 -96.5t-91.5 -97t-62 -89.5t-23 -74.5
q0 -56 29.5 -87.5t103.5 -31.5z" />
    <glyph glyph-name="Emacron" unicode="&#x112;" horiz-adv-x="1470" 
d="M936 1272q48 0 97 -6.5t88.5 -18t65 -27.5t25.5 -34q0 -19 -14 -24t-31 -5h-155q-41 0 -96 -5t-116 -13t-125 -18t-123.5 -19.5t-112 -17.5t-89.5 -13q3 -32 5 -64t3.5 -61.5t2.5 -55t1 -44.5q0 -14 -0.5 -52t-0.5 -87t-1 -104.5t-1 -105.5t-0.5 -89t-0.5 -56v-202
q0 -36 14 -46t46 -10q120 0 257.5 20.5t277 57t274 86t250.5 107.5q13 6 22 6q11 0 15.5 -6t4.5 -14q0 -18 -16 -29q-113 -83 -248.5 -148t-283 -109t-304 -67t-311.5 -23q-75 0 -108 32.5t-33 98.5q0 16 4 36.5t8.5 43t8.5 45.5t4 45q0 15 0.5 44t1 66t1.5 79.5t1.5 83
t1 77t0.5 62.5q0 31 -1 75.5t-2.5 96.5t-4 108t-5.5 109q-12 6 -17 18t-5 29q0 23 16 39q-2 19 -3.5 46.5t-1.5 44.5q0 53 8 75.5t18 22.5q6 0 16.5 -9t21.5 -22.5t21 -30t15 -30.5q3 -10 5.5 -22t4.5 -26l28 7q52 9 128.5 18.5t158.5 17t159 12.5t130 5zM1314 883
q-13 0 -44 -5.5t-71 -13.5t-85 -18t-87 -19.5t-76.5 -17.5t-53.5 -12t-55 -12t-80 -17.5t-92 -19.5t-91 -18.5t-76 -13.5t-48 -5q-23 0 -36.5 6t-20 16t-8 21t-1.5 22t0.5 20t4.5 15.5t12.5 10t23.5 3.5t54 10t94.5 24.5t124 31.5t143.5 31q144 28 249.5 39.5t180.5 11.5
q37 0 61 -4.5t38 -13.5t19 -21.5t5 -28.5t-6 -27.5t-13.5 -19t-15 -11t-10.5 -3.5q-6 0 -13.5 3.5t-7.5 18.5q0 11 -4 14t-15 3zM375 1546q5 0 9.5 -3.5t14 -7t28 -7t52.5 -3.5q13 0 46.5 3t73 7.5t76.5 9t58 7.5q64 9 114 17t91 14t76 10t70 4q17 0 22.5 -8t5.5 -19
q0 -19 -15 -40t-61 -37q-25 -8 -76.5 -23t-125 -30t-165 -26t-196.5 -11q-116 0 -116 65q0 9 1 22t3 25.5t5.5 21.5t8.5 9z" />
    <glyph glyph-name="emacron" unicode="&#x113;" 
d="M889 958q52 0 89 -10.5t60 -29t34 -43.5t11 -54q0 -49 -44 -102t-115 -103t-159 -94.5t-176.5 -78t-167.5 -53t-132 -19.5q-29 0 -48.5 18t-25.5 41q-31 -70 -31 -135q0 -35 11.5 -66.5t37.5 -55t68.5 -37t104.5 -13.5q89 0 180 24t177.5 64t166 93t145.5 112
q25 22 37 22q10 0 10 -13q0 -11 -7.5 -29.5t-22.5 -37.5q-30 -38 -73 -81.5t-95 -86.5t-112.5 -82.5t-125.5 -70t-134 -48.5t-138 -18q-62 0 -126.5 15t-116.5 48.5t-85 88t-33 133.5q0 93 42 181t110.5 166t157 143t181.5 112.5t183 73.5t162 26zM252 494q90 19 179.5 46
t171 57.5t151.5 63t121.5 62.5t80.5 56.5t29 45.5q0 17 -20.5 32t-55.5 15q-44 0 -99.5 -13t-116.5 -37t-124 -58t-121.5 -76t-109 -91t-86.5 -103zM368 1233q5 0 9.5 -3.5t14 -7t28 -7t52.5 -3.5q13 0 46.5 3t73 7.5t76.5 9t58 7.5q64 9 114 17t91 14t76 10t70 4
q17 0 22.5 -8t5.5 -19q0 -19 -15 -40t-61 -37q-25 -8 -76.5 -23t-125 -30t-165 -26t-196.5 -11q-116 0 -116 65q0 9 1 22t3 25.5t5.5 21.5t8.5 9z" />
    <glyph glyph-name="Ebreve" unicode="&#x114;" horiz-adv-x="1470" 
d="M936 1272q48 0 97 -6.5t88.5 -18t65 -27.5t25.5 -34q0 -19 -14 -24t-31 -5h-155q-41 0 -96 -5t-116 -13t-125 -18t-123.5 -19.5t-112 -17.5t-89.5 -13q3 -32 5 -64t3.5 -61.5t2.5 -55t1 -44.5q0 -14 -0.5 -52t-0.5 -87t-1 -104.5t-1 -105.5t-0.5 -89t-0.5 -56v-202
q0 -36 14 -46t46 -10q120 0 257.5 20.5t277 57t274 86t250.5 107.5q13 6 22 6q11 0 15.5 -6t4.5 -14q0 -18 -16 -29q-113 -83 -248.5 -148t-283 -109t-304 -67t-311.5 -23q-75 0 -108 32.5t-33 98.5q0 16 4 36.5t8.5 43t8.5 45.5t4 45q0 15 0.5 44t1 66t1.5 79.5t1.5 83
t1 77t0.5 62.5q0 31 -1 75.5t-2.5 96.5t-4 108t-5.5 109q-12 6 -17 18t-5 29q0 23 16 39q-2 19 -3.5 46.5t-1.5 44.5q0 53 8 75.5t18 22.5q6 0 16.5 -9t21.5 -22.5t21 -30t15 -30.5q3 -10 5.5 -22t4.5 -26l28 7q52 9 128.5 18.5t158.5 17t159 12.5t130 5zM1314 883
q-13 0 -44 -5.5t-71 -13.5t-85 -18t-87 -19.5t-76.5 -17.5t-53.5 -12t-55 -12t-80 -17.5t-92 -19.5t-91 -18.5t-76 -13.5t-48 -5q-23 0 -36.5 6t-20 16t-8 21t-1.5 22t0.5 20t4.5 15.5t12.5 10t23.5 3.5t54 10t94.5 24.5t124 31.5t143.5 31q144 28 249.5 39.5t180.5 11.5
q37 0 61 -4.5t38 -13.5t19 -21.5t5 -28.5t-6 -27.5t-13.5 -19t-15 -11t-10.5 -3.5q-6 0 -13.5 3.5t-7.5 18.5q0 11 -4 14t-15 3zM321 1587q0 20 6 45t17 47.5t26 37.5t33 15q22 0 28 -18.5t6 -41.5q0 -12 -0.5 -23.5t-0.5 -20.5q0 -33 11.5 -55.5t32 -36t47.5 -19.5t59 -6
q51 0 103.5 13.5t111.5 46t127.5 85.5t150.5 132q11 11 20.5 16t15.5 5q11 0 11 -16q0 -14 -10 -36.5t-33 -48.5q-133 -158 -270.5 -237t-290.5 -79q-42 0 -78.5 13.5t-63.5 38.5t-43 61.5t-16 81.5z" />
    <glyph glyph-name="ebreve" unicode="&#x115;" 
d="M889 958q52 0 89 -10.5t60 -29t34 -43.5t11 -54q0 -49 -44 -102t-115 -103t-159 -94.5t-176.5 -78t-167.5 -53t-132 -19.5q-29 0 -48.5 18t-25.5 41q-31 -70 -31 -135q0 -35 11.5 -66.5t37.5 -55t68.5 -37t104.5 -13.5q89 0 180 24t177.5 64t166 93t145.5 112
q25 22 37 22q10 0 10 -13q0 -11 -7.5 -29.5t-22.5 -37.5q-30 -38 -73 -81.5t-95 -86.5t-112.5 -82.5t-125.5 -70t-134 -48.5t-138 -18q-62 0 -126.5 15t-116.5 48.5t-85 88t-33 133.5q0 93 42 181t110.5 166t157 143t181.5 112.5t183 73.5t162 26zM252 494q90 19 179.5 46
t171 57.5t151.5 63t121.5 62.5t80.5 56.5t29 45.5q0 17 -20.5 32t-55.5 15q-44 0 -99.5 -13t-116.5 -37t-124 -58t-121.5 -76t-109 -91t-86.5 -103zM338 1274q0 20 6 45t17 47.5t26 37.5t33 15q22 0 28 -18.5t6 -41.5q0 -12 -0.5 -23.5t-0.5 -20.5q0 -33 11.5 -55.5t32 -36
t47.5 -19.5t59 -6q51 0 103.5 13.5t111.5 46t127.5 85.5t150.5 132q11 11 20.5 16t15.5 5q11 0 11 -16q0 -14 -10 -36.5t-33 -48.5q-133 -158 -270.5 -237t-290.5 -79q-42 0 -78.5 13.5t-63.5 38.5t-43 61.5t-16 81.5z" />
    <glyph glyph-name="Edotaccent" unicode="&#x116;" horiz-adv-x="1470" 
d="M936 1272q48 0 97 -6.5t88.5 -18t65 -27.5t25.5 -34q0 -19 -14 -24t-31 -5h-155q-41 0 -96 -5t-116 -13t-125 -18t-123.5 -19.5t-112 -17.5t-89.5 -13q3 -32 5 -64t3.5 -61.5t2.5 -55t1 -44.5q0 -14 -0.5 -52t-0.5 -87t-1 -104.5t-1 -105.5t-0.5 -89t-0.5 -56v-202
q0 -36 14 -46t46 -10q120 0 257.5 20.5t277 57t274 86t250.5 107.5q13 6 22 6q11 0 15.5 -6t4.5 -14q0 -18 -16 -29q-113 -83 -248.5 -148t-283 -109t-304 -67t-311.5 -23q-75 0 -108 32.5t-33 98.5q0 16 4 36.5t8.5 43t8.5 45.5t4 45q0 15 0.5 44t1 66t1.5 79.5t1.5 83
t1 77t0.5 62.5q0 31 -1 75.5t-2.5 96.5t-4 108t-5.5 109q-12 6 -17 18t-5 29q0 23 16 39q-2 19 -3.5 46.5t-1.5 44.5q0 53 8 75.5t18 22.5q6 0 16.5 -9t21.5 -22.5t21 -30t15 -30.5q3 -10 5.5 -22t4.5 -26l28 7q52 9 128.5 18.5t158.5 17t159 12.5t130 5zM1314 883
q-13 0 -44 -5.5t-71 -13.5t-85 -18t-87 -19.5t-76.5 -17.5t-53.5 -12t-55 -12t-80 -17.5t-92 -19.5t-91 -18.5t-76 -13.5t-48 -5q-23 0 -36.5 6t-20 16t-8 21t-1.5 22t0.5 20t4.5 15.5t12.5 10t23.5 3.5t54 10t94.5 24.5t124 31.5t143.5 31q144 28 249.5 39.5t180.5 11.5
q37 0 61 -4.5t38 -13.5t19 -21.5t5 -28.5t-6 -27.5t-13.5 -19t-15 -11t-10.5 -3.5q-6 0 -13.5 3.5t-7.5 18.5q0 11 -4 14t-15 3zM754 1647q45 0 67.5 -29.5t22.5 -73.5q0 -57 -34.5 -90t-88.5 -33q-46 0 -70 27.5t-24 75.5q0 23 9 45t26 39.5t40 28t52 10.5z" />
    <glyph glyph-name="edotaccent" unicode="&#x117;" 
d="M889 958q52 0 89 -10.5t60 -29t34 -43.5t11 -54q0 -49 -44 -102t-115 -103t-159 -94.5t-176.5 -78t-167.5 -53t-132 -19.5q-29 0 -48.5 18t-25.5 41q-31 -70 -31 -135q0 -35 11.5 -66.5t37.5 -55t68.5 -37t104.5 -13.5q89 0 180 24t177.5 64t166 93t145.5 112
q25 22 37 22q10 0 10 -13q0 -11 -7.5 -29.5t-22.5 -37.5q-30 -38 -73 -81.5t-95 -86.5t-112.5 -82.5t-125.5 -70t-134 -48.5t-138 -18q-62 0 -126.5 15t-116.5 48.5t-85 88t-33 133.5q0 93 42 181t110.5 166t157 143t181.5 112.5t183 73.5t162 26zM252 494q90 19 179.5 46
t171 57.5t151.5 63t121.5 62.5t80.5 56.5t29 45.5q0 17 -20.5 32t-55.5 15q-44 0 -99.5 -13t-116.5 -37t-124 -58t-121.5 -76t-109 -91t-86.5 -103zM575 1440q45 0 67.5 -29.5t22.5 -73.5q0 -57 -34.5 -90t-88.5 -33q-46 0 -70 27.5t-24 75.5q0 23 9 45t26 39.5t40 28
t52 10.5z" />
    <glyph glyph-name="Eogonek" unicode="&#x118;" horiz-adv-x="1470" 
d="M936 1272q48 0 97 -6.5t88.5 -18t65 -27.5t25.5 -34q0 -19 -14 -24t-31 -5h-155q-41 0 -96 -5t-116 -13t-125 -18t-123.5 -19.5t-112 -17.5t-89.5 -13q3 -32 5 -64t3.5 -61.5t2.5 -55t1 -44.5q0 -14 -0.5 -52t-0.5 -87t-1 -104.5t-1 -105.5t-0.5 -89t-0.5 -56v-202
q0 -36 14 -46t46 -10q120 0 257.5 20.5t277 57t274 86t250.5 107.5q13 6 22 6q11 0 15.5 -6t4.5 -14q0 -18 -16 -29q-48 -35 -99 -66.5t-106 -59.5q-1 -2 -5 -4q-23 -16 -51 -40.5t-56 -54t-54.5 -62t-47 -65.5t-33 -64t-12.5 -58q0 -18 13 -32.5t42 -14.5q44 0 94 13.5
t101 38.5t99.5 59.5t90.5 76.5q10 10 18 10t12 -7.5t4 -18.5q0 -12 -4.5 -25.5t-15.5 -27.5q-36 -45 -83 -83.5t-100 -67t-108.5 -44.5t-109.5 -16q-35 0 -65.5 6.5t-54 20.5t-37 35t-13.5 50q0 36 13 72.5t34.5 72.5t49.5 70t58 64q-171 -62 -354 -93.5t-367 -31.5
q-75 0 -108 32.5t-33 98.5q0 16 4 36.5t8.5 43t8.5 45.5t4 45q0 15 0.5 44t1 66t1.5 79.5t1.5 83t1 77t0.5 62.5q0 31 -1 75.5t-2.5 96.5t-4 108t-5.5 109q-12 6 -17 18t-5 29q0 23 16 39q-2 19 -3.5 46.5t-1.5 44.5q0 53 8 75.5t18 22.5q6 0 16.5 -9t21.5 -22.5t21 -30
t15 -30.5q3 -10 5.5 -22t4.5 -26l28 7q52 9 128.5 18.5t158.5 17t159 12.5t130 5zM1314 883q-13 0 -44 -5.5t-71 -13.5t-85 -18t-87 -19.5t-76.5 -17.5t-53.5 -12t-55 -12t-80 -17.5t-92 -19.5t-91 -18.5t-76 -13.5t-48 -5q-23 0 -36.5 6t-20 16t-8 21t-1.5 22t0.5 20
t4.5 15.5t12.5 10t23.5 3.5t54 10t94.5 24.5t124 31.5t143.5 31q144 28 249.5 39.5t180.5 11.5q37 0 61 -4.5t38 -13.5t19 -21.5t5 -28.5t-6 -27.5t-13.5 -19t-15 -11t-10.5 -3.5q-6 0 -13.5 3.5t-7.5 18.5q0 11 -4 14t-15 3z" />
    <glyph glyph-name="eogonek" unicode="&#x119;" 
d="M889 958q52 0 89 -10.5t60 -29t34 -43.5t11 -54q0 -49 -44 -102t-115 -103t-159 -94.5t-176.5 -78t-167.5 -53t-132 -19.5q-29 0 -48.5 18t-25.5 41q-31 -70 -31 -135q0 -35 11.5 -66.5t37.5 -55t68.5 -37t104.5 -13.5q89 0 180 24t177.5 64t166 93t145.5 112
q25 22 37 22q10 0 10 -13q0 -25 -24 -59.5t-62 -74t-86.5 -80.5t-97.5 -78q-23 -17 -50.5 -41.5t-55.5 -54t-54.5 -62t-47.5 -65t-33.5 -63.5t-12.5 -58q0 -18 13 -32.5t42 -14.5q44 0 94 13.5t101 38.5t99.5 59.5t90.5 76.5q10 10 18 10t12 -7.5t4 -18.5q0 -12 -4.5 -25.5
t-15.5 -27.5q-36 -45 -83 -83.5t-100 -67t-108.5 -44.5t-109.5 -16q-35 0 -65.5 6.5t-54 20.5t-37 35t-13.5 50q0 30 9.5 61t25.5 62t37.5 61t45.5 57q-46 -15 -92 -23.5t-93 -8.5q-62 0 -126.5 15t-116.5 48.5t-85 88t-33 133.5q0 93 42 181t110.5 166t157 143t181.5 112.5
t183 73.5t162 26zM252 494q90 19 179.5 46t171 57.5t151.5 63t121.5 62.5t80.5 56.5t29 45.5q0 17 -20.5 32t-55.5 15q-44 0 -99.5 -13t-116.5 -37t-124 -58t-121.5 -76t-109 -91t-86.5 -103z" />
    <glyph glyph-name="Ecaron" unicode="&#x11a;" horiz-adv-x="1470" 
d="M936 1272q48 0 97 -6.5t88.5 -18t65 -27.5t25.5 -34q0 -19 -14 -24t-31 -5h-155q-41 0 -96 -5t-116 -13t-125 -18t-123.5 -19.5t-112 -17.5t-89.5 -13q3 -32 5 -64t3.5 -61.5t2.5 -55t1 -44.5q0 -14 -0.5 -52t-0.5 -87t-1 -104.5t-1 -105.5t-0.5 -89t-0.5 -56v-202
q0 -36 14 -46t46 -10q120 0 257.5 20.5t277 57t274 86t250.5 107.5q13 6 22 6q11 0 15.5 -6t4.5 -14q0 -18 -16 -29q-113 -83 -248.5 -148t-283 -109t-304 -67t-311.5 -23q-75 0 -108 32.5t-33 98.5q0 16 4 36.5t8.5 43t8.5 45.5t4 45q0 15 0.5 44t1 66t1.5 79.5t1.5 83
t1 77t0.5 62.5q0 31 -1 75.5t-2.5 96.5t-4 108t-5.5 109q-12 6 -17 18t-5 29q0 23 16 39q-2 19 -3.5 46.5t-1.5 44.5q0 53 8 75.5t18 22.5q6 0 16.5 -9t21.5 -22.5t21 -30t15 -30.5q3 -10 5.5 -22t4.5 -26l28 7q52 9 128.5 18.5t158.5 17t159 12.5t130 5zM1314 883
q-13 0 -44 -5.5t-71 -13.5t-85 -18t-87 -19.5t-76.5 -17.5t-53.5 -12t-55 -12t-80 -17.5t-92 -19.5t-91 -18.5t-76 -13.5t-48 -5q-23 0 -36.5 6t-20 16t-8 21t-1.5 22t0.5 20t4.5 15.5t12.5 10t23.5 3.5t54 10t94.5 24.5t124 31.5t143.5 31q144 28 249.5 39.5t180.5 11.5
q37 0 61 -4.5t38 -13.5t19 -21.5t5 -28.5t-6 -27.5t-13.5 -19t-15 -11t-10.5 -3.5q-6 0 -13.5 3.5t-7.5 18.5q0 11 -4 14t-15 3zM781 1372q-12 -20 -31 -30t-39 -10q-17 0 -31 8t-20 24q-15 41 -36.5 77t-45.5 65t-49 51.5t-47 37.5q-21 14 -29.5 28.5t-8.5 27.5
q0 12 5.5 22t14.5 17.5t20 11.5t22 4t37.5 -19.5t58.5 -54t64.5 -83t56.5 -106.5q25 47 56.5 94.5t67 94t73.5 90.5t76 84q22 23 38 23q14 0 20.5 -14.5t6.5 -35.5q0 -22 -7.5 -47.5t-24.5 -44.5q-15 -17 -45 -50t-65.5 -75.5t-72.5 -91.5t-65 -98z" />
    <glyph glyph-name="ecaron" unicode="&#x11b;" 
d="M889 958q52 0 89 -10.5t60 -29t34 -43.5t11 -54q0 -49 -44 -102t-115 -103t-159 -94.5t-176.5 -78t-167.5 -53t-132 -19.5q-29 0 -48.5 18t-25.5 41q-31 -70 -31 -135q0 -35 11.5 -66.5t37.5 -55t68.5 -37t104.5 -13.5q89 0 180 24t177.5 64t166 93t145.5 112
q25 22 37 22q10 0 10 -13q0 -11 -7.5 -29.5t-22.5 -37.5q-30 -38 -73 -81.5t-95 -86.5t-112.5 -82.5t-125.5 -70t-134 -48.5t-138 -18q-62 0 -126.5 15t-116.5 48.5t-85 88t-33 133.5q0 93 42 181t110.5 166t157 143t181.5 112.5t183 73.5t162 26zM252 494q90 19 179.5 46
t171 57.5t151.5 63t121.5 62.5t80.5 56.5t29 45.5q0 17 -20.5 32t-55.5 15q-44 0 -99.5 -13t-116.5 -37t-124 -58t-121.5 -76t-109 -91t-86.5 -103zM602 1059q-12 -20 -31 -30t-39 -10q-17 0 -31 8t-20 24q-15 41 -36.5 77t-45.5 65t-49 51.5t-47 37.5q-21 14 -29.5 28.5
t-8.5 27.5q0 12 5.5 22t14.5 17.5t20 11.5t22 4t37.5 -19.5t58.5 -54t64.5 -83t56.5 -106.5q25 47 56.5 94.5t67 94t73.5 90.5t76 84q22 23 38 23q14 0 20.5 -14.5t6.5 -35.5q0 -22 -7.5 -47.5t-24.5 -44.5q-15 -17 -45 -50t-65.5 -75.5t-72.5 -91.5t-65 -98z" />
    <glyph glyph-name="Gcircumflex" unicode="&#x11c;" horiz-adv-x="1511" 
d="M1171 143q4 44 8.5 94t10.5 103q-53 -53 -121.5 -102.5t-146 -93t-160 -79.5t-162.5 -61.5t-155 -40t-136 -14.5q-48 0 -93 8.5t-80.5 30.5t-57 60t-21.5 97q0 48 23.5 111.5t65.5 136t99.5 151.5t124.5 159t142 158t151.5 148t152 130t145 103.5t129.5 68t106 24.5
q22 0 44 -7t39.5 -21.5t28.5 -37t11 -52.5q0 -14 -4 -30t-17 -16q-12 0 -17.5 4.5t-12 10t-17 10t-32.5 4.5q-46 0 -116 -35t-153 -94.5t-174.5 -138.5t-179.5 -167t-168 -179t-140.5 -175.5t-96 -157t-35.5 -122.5q0 -32 10.5 -49.5t29.5 -26t45 -10.5t58 -2
q59 0 129.5 14.5t145.5 39.5t151.5 58.5t147 72.5t132 81.5t107.5 84.5t72 81.5t26 73.5q-20 -22 -52 -48.5t-70 -53t-80.5 -51.5t-84 -44.5t-79 -31t-66.5 -11.5q-45 0 -45 47q0 21 27 54.5t70.5 72t97.5 77t108.5 70t104 51t82.5 19.5q48 0 73 -22.5t25 -73.5
q0 -23 -6.5 -72t-15 -127t-15 -185.5t-6.5 -246.5q0 -84 1.5 -138t3.5 -91.5t3.5 -63.5t1.5 -53q0 -16 -8 -34t-20 -33t-26.5 -25t-27.5 -10t-22 25t-14.5 67.5t-8 98.5t-2.5 118q0 79 3.5 159.5t8.5 149.5zM711 1783q11 20 29.5 29.5t38.5 9.5q17 0 32 -7.5t21 -24.5
q15 -42 36.5 -78t45.5 -65t49 -51.5t47 -37.5q20 -14 28.5 -28t8.5 -27q0 -12 -5.5 -22t-14.5 -17.5t-20.5 -12t-22.5 -4.5t-36.5 19t-57.5 54t-65.5 83t-58.5 107q-24 -47 -55.5 -94.5t-67 -94t-74 -90.5t-75.5 -84q-22 -23 -37 -23q-14 0 -20.5 14.5t-6.5 35.5q0 23 8 48
t25 44q15 16 44.5 49t65 76t72.5 92.5t66 99.5z" />
    </font>
</defs>
</svg>
